<svg width="1024" height="1200" viewBox="0 0 1024 1200" fill="none" xmlns="http://www.w3.org/2000/svg">
<rect width="1024" height="1200" fill="#F5D863"/>
<g clip-path="url(#clip0_132_477)">
<path d="M60.1696 969.562C60.1696 969.562 52.5418 970.718 48.2623 972.324C48.1911 972.351 48.1142 972.359 48.0387 972.349C47.9632 972.338 47.8915 972.309 47.8301 972.264C47.7688 972.219 47.7197 972.159 47.6874 972.09C47.6551 972.021 47.6406 971.945 47.6453 971.869C47.7731 969.706 48.8155 963.163 56.7026 960.681C56.8488 960.635 56.9752 960.54 57.061 960.413C57.1468 960.286 57.1871 960.133 57.1754 959.98C57.1618 959.803 57.0791 959.637 56.9449 959.52C56.8108 959.403 56.6359 959.342 56.4579 959.353C54.1192 959.488 46.3234 960.813 44.1618 972.234C44.0864 972.635 43.9297 973.017 43.7015 973.356C43.4732 973.694 43.1782 973.983 42.8345 974.203C42.3257 974.528 41.7871 974.804 41.2261 975.027C41.1351 975.062 41.0367 975.075 40.9396 975.063C40.8425 975.052 40.7499 975.016 40.6702 974.959C40.5904 974.903 40.526 974.827 40.4828 974.74C40.4396 974.652 40.419 974.555 40.4228 974.457C40.525 971.601 41.677 962.346 52.0361 958.407C52.1643 958.358 52.2744 958.27 52.352 958.157C52.4296 958.044 52.4709 957.909 52.4706 957.772C52.4708 957.674 52.4496 957.576 52.4084 957.487C52.3673 957.398 52.3073 957.318 52.2324 957.254C52.1576 957.191 52.0698 957.144 51.975 957.117C51.8803 957.09 51.7809 957.085 51.6837 957.1C48.7626 957.564 38.661 960.311 36.8334 976.175C36.8094 976.383 36.7286 976.581 36.5999 976.747C36.4711 976.913 36.2993 977.041 36.1032 977.116C35.6156 977.32 35.0731 977.35 34.5659 977.202C34.3526 977.129 34.166 976.994 34.0301 976.814C33.8941 976.634 33.815 976.418 33.8028 976.193C33.6348 973.545 33.4906 962.541 42.201 958.759C42.361 958.691 42.49 958.566 42.5628 958.408C42.6357 958.25 42.6473 958.071 42.5954 957.905C42.5395 957.729 42.4159 957.581 42.2516 957.496C42.0873 957.41 41.8958 957.393 41.719 957.449C39.1064 958.254 29.8739 962.377 30.71 980.148C30.71 980.148 23.5296 975.494 17.0483 975.494C11.1185 975.494 6.87004 978.168 5.35106 979.741C5.24585 979.849 5.18033 979.99 5.16509 980.141C5.14985 980.291 5.18578 980.442 5.26708 980.569C5.36246 980.72 5.51361 980.827 5.68744 980.866C5.86127 980.905 6.04361 980.874 6.19453 980.779C8.5077 979.319 17.6563 974.47 26.4324 982.358C26.5088 982.427 26.5664 982.515 26.5996 982.613C26.6328 982.711 26.6407 982.815 26.6224 982.917C26.6042 983.018 26.5604 983.114 26.4953 983.194C26.4301 983.274 26.3457 983.336 26.2499 983.375L26.1732 983.407C25.4292 983.686 24.6094 983.686 23.8655 983.407C20.5026 982.183 6.75502 978.047 0.140509 989.339C0.0918077 989.422 0.0721977 989.52 0.0847539 989.616C0.09731 989.711 0.141323 989.8 0.209886 989.868C0.291793 989.949 0.401911 989.994 0.516603 989.994C0.631295 989.994 0.741413 989.949 0.823319 989.868C2.5194 988.24 11.1148 980.805 21.0886 986.519C21.1782 986.571 21.2562 986.64 21.3175 986.723C21.3789 986.806 21.4222 986.901 21.4449 987.002C21.4676 987.103 21.469 987.207 21.4492 987.308C21.4293 987.41 21.3886 987.506 21.3296 987.591C21.0067 988.053 20.5812 988.434 20.0863 988.704C19.764 988.877 19.4093 988.98 19.0447 989.009C18.6801 989.037 18.3136 988.989 17.9685 988.868C15.0364 987.875 4.92567 985.218 0.737517 994.119C0.701886 994.194 0.685723 994.276 0.690526 994.359C0.695328 994.442 0.720939 994.522 0.76499 994.592C0.809041 994.663 0.870102 994.721 0.942529 994.761C1.01496 994.801 1.09641 994.823 1.17933 994.823C1.25547 994.824 1.33063 994.806 1.3988 994.772C1.46696 994.739 1.52623 994.689 1.57186 994.628C2.38612 993.533 7.54556 988.569 16.256 991.743C16.3531 991.778 16.4402 991.836 16.5098 991.912C16.5793 991.989 16.6292 992.081 16.6551 992.181C16.681 992.281 16.6821 992.385 16.6584 992.486C16.6346 992.586 16.5868 992.68 16.5189 992.757C13.9081 995.763 3.08537 1008.46 3.08537 1029.43C3.08537 1029.43 2.85168 1046.12 9.36213 1057.67C9.61862 1058.12 9.68422 1058.66 9.5447 1059.17C9.30736 1060.04 8.99698 1061.45 9.11018 1062.45C9.26719 1063.79 9.49175 1065.26 11.2426 1065.76C11.8787 1065.93 12.549 1065.93 13.1851 1065.76C14.1667 1065.5 15.0809 1065.04 15.8653 1064.39C17.7512 1062.89 51.1926 1037.55 51.1013 1034.17C51.01 1030.79 49.4582 1030.06 47.3586 1030.06C45.2591 1030.06 31.3837 1042.11 31.3837 1042.11C31.3837 1042.11 22.6204 1029.83 22.6204 1011.47C22.6204 993.108 40.0248 977.958 60.1696 969.562Z" fill="#231F20" stroke="#231F20" stroke-miterlimit="10"/>
<path d="M97.7479 972.482C97.7479 972.482 88.6194 975.311 85.7896 987.54C85.7896 987.54 92.0882 990.551 94.0052 991.281C94.0052 991.281 93.8226 977.684 97.7479 972.482Z" fill="#231F20" stroke="#231F20" stroke-miterlimit="10"/>
<path d="M106.237 975.585C106.237 975.585 109.615 973.03 113.723 973.03C117.831 973.03 132.893 977.501 133.988 997.577C133.988 997.577 134.81 1008.62 125.955 1011.5C125.955 1011.5 132.527 1003.05 128.146 993.836C128.146 993.836 128.115 993.905 128.051 994.028C127.62 994.867 127.023 995.609 126.297 996.211C125.571 996.814 124.731 997.262 123.827 997.531C122.922 997.799 121.973 997.881 121.036 997.773C120.099 997.664 119.193 997.367 118.375 996.899C115.875 995.453 112.992 992.626 112.992 987.266C112.992 987.266 112.764 980.604 120.124 980.695C120.124 980.695 119.565 975.817 106.237 975.585Z" fill="#231F20" stroke="#231F20" stroke-miterlimit="10"/>
<path d="M109.98 1017.47L110.528 1024.95C110.528 1024.95 121.3 1026.32 127.69 1019.75C127.69 1019.75 119.2 1021.27 115.823 1019.75C112.659 1018.33 111.076 1017.65 109.98 1017.47Z" fill="#231F20" stroke="#231F20" stroke-miterlimit="10"/>
<path d="M76.3872 997.121C76.3872 997.121 77.9391 994.657 83.051 994.657C88.163 994.657 102.708 998.277 103.955 1018.75C103.955 1018.75 104.899 1029.79 96.4699 1033.17C96.4699 1033.17 102.769 1023.49 98.5695 1014.64C98.5695 1014.64 97.3882 1017.52 95.0641 1018.95C94.4681 1019.32 93.8032 1019.55 93.1117 1019.64C92.4203 1019.73 91.7173 1019.68 91.0476 1019.48C88.6011 1018.79 83.6006 1016.37 83.6006 1008.17C83.6006 1008.17 83.7831 1002.24 90.1731 1002.24C90.1713 1002.23 87.1899 997.061 76.3872 997.121Z" fill="#231F20" stroke="#231F20" stroke-miterlimit="10"/>
<path d="M69.6631 993.166C69.6631 993.166 52.3883 998.726 53.6517 1021.86C53.669 1022.17 53.6135 1022.48 53.4897 1022.77C53.3658 1023.05 53.1769 1023.31 52.9379 1023.51L51.2619 1024.92C50.8958 1025.22 50.6602 1025.66 50.6029 1026.13C50.5457 1026.61 50.6709 1027.09 50.9533 1027.47L60.96 1041.12C61.2282 1041.49 61.6053 1041.76 62.0379 1041.91C62.4704 1042.05 62.9365 1042.05 63.3699 1041.91L63.6474 1041.82C64.1176 1041.67 64.6163 1041.63 65.1046 1041.7C65.5928 1041.78 66.0576 1041.96 66.4626 1042.25C70.6362 1045.16 84.9314 1053.07 101.125 1038.64C101.125 1038.64 97.6566 1041.11 91.3579 1041.11C85.0592 1041.11 65.0368 1030.64 65.0368 1008.01C65.0368 1008.01 65.2193 997.609 69.6631 993.166Z" fill="#231F20" stroke="#231F20" stroke-miterlimit="10"/>
<path d="M56.4067 1041.18C57.0332 1041.86 57.3875 1042.75 57.4016 1043.67C57.4158 1044.59 57.0888 1045.49 56.4834 1046.18C54.8129 1048.1 52.2587 1050.7 49.2153 1052.66C46.0811 1054.7 43.175 1057.07 40.5469 1059.72C40.4084 1059.86 40.3141 1060.04 40.2752 1060.24C40.2363 1060.43 40.2546 1060.63 40.3278 1060.82C41.2607 1063.17 44.693 1071.77 46.7798 1076.15C49.2153 1081.26 51.5266 1090.44 51.2838 1096.28C51.2838 1096.28 37.4085 1095.86 35.1976 1099.71C35.1664 1099.75 35.1261 1099.78 35.0796 1099.81C35.0331 1099.83 34.9816 1099.85 34.929 1099.85C34.8764 1099.85 34.8239 1099.84 34.7756 1099.82C34.7273 1099.8 34.6843 1099.77 34.6499 1099.73C34.1186 1099.18 32.9027 1097.53 30.8323 1092.7C28.0755 1086.27 23.692 1079.62 20.2432 1076.03C20.0747 1075.85 19.8517 1075.74 19.6104 1075.71C19.3692 1075.67 19.1239 1075.72 18.9141 1075.85C18.5428 1076.06 18.1045 1076.14 17.6821 1076.05C17.2596 1075.97 16.8821 1075.74 16.6211 1075.39L15.7721 1074.28C15.1905 1073.51 14.9308 1072.55 15.0481 1071.6C15.1654 1070.64 15.6504 1069.77 16.4001 1069.17C23.5021 1063.47 41.9088 1048.17 51.3477 1040.78C52.0873 1040.2 53.0181 1039.92 53.9552 1040C54.8924 1040.07 55.7674 1040.49 56.4067 1041.18Z" fill="#231F20" stroke="#231F20" stroke-miterlimit="10"/>
<path d="M39.3564 1141.61L44.8335 1142.58C44.8335 1142.58 45.5638 1154.02 46.9021 1157.79C46.9021 1157.79 42.0329 1157.91 39.3564 1141.61Z" fill="#231F20" stroke="#231F20" stroke-miterlimit="10"/>
<path d="M44.5892 1170.93L60.7777 1173C60.7777 1173 61.9114 1181.5 61.7654 1185.94C61.7331 1186.88 61.3301 1187.77 60.6444 1188.41C58.271 1190.65 52.2097 1196.26 49.2155 1198.19C45.4418 1200.62 39.4772 1201.59 32.1744 1193.32C32.1744 1193.32 30.3487 1191.5 30.2282 1187.97C30.1077 1184.44 32.6619 1181.64 34.8527 1181.64C36.7898 1181.64 39.0098 1183.71 40.2568 1185.32C40.3883 1185.49 40.5777 1185.61 40.7888 1185.64C40.9999 1185.68 41.218 1185.64 41.4015 1185.53C42.9095 1184.62 46.309 1182.14 46.309 1178.45C46.309 1174.89 44.3774 1175.05 44.5892 1170.93Z" fill="#231F20" stroke="#231F20" stroke-miterlimit="10"/>
<path d="M170.229 1128.26C170.229 1128.26 170.776 1135.19 170.685 1137.75C170.594 1140.3 170.594 1145.41 168.494 1146.69C166.395 1147.97 164.934 1148.7 166.029 1151.16C166.906 1153.13 168.622 1155.96 168.71 1158.29C168.714 1158.5 168.678 1158.71 168.603 1158.9C168.527 1159.09 168.414 1159.27 168.27 1159.42C168.126 1159.57 167.953 1159.69 167.763 1159.77C167.572 1159.85 167.367 1159.9 167.16 1159.9C163.983 1159.96 155.957 1160.92 155.957 1168.92C155.957 1168.92 156.322 1171.78 158.453 1173.24C160.583 1174.7 162.358 1177.93 163.326 1180.06C164.293 1182.19 166.247 1182.86 168.438 1182.86C170.628 1182.86 180.909 1180.82 180.909 1165.58C180.909 1152.44 173.849 1130.17 170.229 1128.26Z" fill="#231F20" stroke="#231F20" stroke-miterlimit="10"/>
<path d="M63.8813 1121.23C63.8813 1121.23 59.0742 1125.55 59.6822 1145.5C60.1185 1159.8 60.679 1164.98 60.9602 1166.76C60.9992 1167.02 61.104 1167.26 61.2641 1167.46C61.4243 1167.66 61.6342 1167.81 61.873 1167.91C63.9342 1168.71 69.6104 1171.45 69.541 1177.35C69.4497 1184.56 69.541 1188.03 69.541 1188.03C69.541 1188.03 77.0263 1192.41 92.271 1187.57C92.271 1187.57 91.8091 1184.43 92.375 1181.45C92.4154 1181.23 92.5151 1181.03 92.6635 1180.86C92.7802 1180.72 92.9274 1180.61 93.0934 1180.54C93.2593 1180.47 93.4397 1180.44 93.6201 1180.45C93.9488 1180.47 94.2535 1180.63 94.4706 1180.88C94.6877 1181.13 94.8003 1181.45 94.7849 1181.78C94.7484 1182.8 94.7484 1184.64 95.1008 1186.11C95.1008 1186.11 110.619 1188.8 121.026 1185.24C121.026 1185.24 121.71 1183.24 122.258 1177.13C122.806 1171.02 139.891 1173 147.803 1166.43C155.716 1159.86 163.869 1152.68 163.869 1134.79C163.869 1116.91 154.619 1076.7 149.324 1068.48C149.324 1068.48 134.779 1087.71 113.48 1093.67C113.48 1093.67 96.1962 1099.63 79.5221 1100.97C62.848 1102.31 41.668 1099.75 34.6098 1106.2C34.6098 1106.2 33.6349 1114.23 37.2863 1118.37C37.2863 1118.37 57.9788 1109.73 85.242 1110.34C85.242 1110.34 88.95 1110.43 92.1797 1110.64C93.6298 1110.74 95.0182 1111.26 96.165 1112.16C97.3118 1113.05 98.1642 1114.26 98.6116 1115.65C100.147 1120.41 101.898 1129.33 100.939 1144.16C100.939 1144.16 89.9852 1147.94 66.0082 1146.11C66.0119 1146.11 62.1159 1137.11 63.8813 1121.23Z" fill="#231F20" stroke="#231F20" stroke-miterlimit="10"/>
<path d="M124.51 1071.27C116.079 1076.43 106.61 1076.06 97.0065 1071.07C95.622 1070.35 95.6218 1069.07 96.9286 1068.29C102.738 1064.82 108.729 1061.68 114.706 1058.51C121.156 1055.09 127.246 1051.08 132.673 1046.15C133.763 1045.16 134.457 1045.31 134.693 1046.72C136.173 1055.61 133.899 1065.06 124.51 1071.27Z" fill="#231F20"/>
</g>
<path d="M1021.9 886.118C1021.97 889.191 1021.8 892.25 1020.95 895.228C1019.4 900.548 1017.15 903.21 1011 903.975C1000.52 905.277 990.528 908.401 981.353 913.939C980.552 914.402 979.944 915.149 979.643 916.039C975.7 926.475 969.559 935.089 959.808 940.597C953.159 944.355 945.946 945.849 938.409 946.193C918.693 947.1 899.609 935.451 892.168 912.597C891.234 909.712 890.13 908.236 886.913 907.783C880.744 906.915 874.628 905.496 868.765 903.2C867.22 902.603 865.739 901.843 864.348 900.932C861.432 899.006 860.006 896.253 859.754 892.741C859.435 888.213 859.703 883.752 860.905 879.364C861.047 878.857 861.216 878.358 861.411 877.87C862.708 874.701 863.05 874.592 865.798 876.263C872.822 880.522 880.346 882.962 888.586 882.865C889.486 882.854 889.978 882.505 890.508 881.854C894.036 877.541 897.055 872.828 900.48 868.453C907.324 859.71 916.447 854.546 927.127 852.636C944.446 849.541 959.298 854.749 971.614 867.504C975.903 871.937 978.886 877.231 980.866 883.109C981.163 884.001 981.523 884.294 982.453 884.382C988.284 884.929 994.119 885.249 999.974 884.936C1005.09 884.658 1010.17 884.169 1014.94 881.988C1016.18 881.446 1017.31 880.685 1018.3 879.739C1018.44 879.564 1018.62 879.422 1018.83 879.322C1019.03 879.222 1019.25 879.166 1019.48 879.158C1021.68 879.076 1021.76 879.042 1021.93 881.325C1022.06 882.935 1021.92 884.53 1021.9 886.118Z" fill="#010101"/>
<path d="M903.15 826.725C901.457 827.766 900.355 827.706 899.594 826.623C898.833 825.539 899.163 824.354 900.527 823.222C900.931 822.887 901.345 822.568 901.761 822.25C902.152 821.978 902.512 821.663 902.835 821.31C901.526 821.579 900.439 822.343 899.304 822.998C897.732 823.91 896.488 823.75 895.801 822.543C895.113 821.336 895.592 820.186 897.212 819.22C901.498 816.671 906.098 814.722 910.89 813.425C911.084 813.371 911.301 813.394 911.364 813.002C906.352 813.177 901.427 814.4 896.893 816.596C895.349 817.321 893.871 818.196 892.363 819.005C890.977 819.744 889.956 819.537 889.274 818.377C888.591 817.218 888.928 816.079 890.223 815.293C897.829 810.685 905.903 807.601 914.829 807.078C921.137 806.708 927.164 807.653 932.973 810.209C934.55 810.904 935.439 811.818 935.128 813.695C934.997 814.802 934.952 815.918 934.993 817.032C934.991 818.894 934.385 819.574 932.584 819.832C925.94 820.796 919.359 822.077 913.095 824.62C910.558 825.658 908.042 826.797 906.628 829.498C906.149 830.415 905.161 830.431 904.268 830.171C903.375 829.911 902.954 829.174 902.919 828.258C902.951 827.741 903.028 827.228 903.15 826.725Z" fill="#010101"/>
<path d="M998.311 825.015C998.124 824.833 997.937 824.645 997.753 824.461C994.905 821.603 991.595 819.274 987.968 817.577C980.618 814.049 972.785 812.608 964.323 811.984C967.879 810.905 971.551 810.28 975.255 810.122C979.992 809.95 984.532 810.632 988.348 813.896C989.577 814.962 990.795 814.988 991.645 814.029C992.495 813.07 992.305 811.692 991.077 810.591C987.699 807.602 983.671 806.261 979.294 805.964C969.405 805.295 960.206 808.093 951.288 812.128C949.484 812.947 949.271 814.535 950.67 815.904C950.848 816.075 951.124 816.153 951.125 816.485C950.42 817.111 949.691 817.69 948.999 818.329C947.908 819.342 947.738 820.599 948.536 821.53C949.392 822.533 950.518 822.596 951.693 821.607C953.068 820.486 954.659 819.674 956.36 819.223C960.945 817.897 965.465 818.435 969.952 819.684C978.346 822.024 985.633 826.571 992.612 831.71C993.514 832.363 994.4 833.043 995.566 832.377C996.846 831.641 996.843 830.484 996.422 829.182C997.597 829.341 998.666 829.301 999.18 828.136C999.714 826.888 999.204 825.862 998.311 825.015ZM983.976 820.762C988.102 822.155 991.827 824.569 994.821 827.791C991.229 825.351 987.641 822.984 983.971 820.746L983.976 820.762Z" fill="#010101"/>
<path d="M939.872 993.808C929.996 993.445 922.305 987.908 917.064 978.436C916.307 977.071 917.012 976.009 918.532 976.082C925.293 976.398 932.02 977.094 938.756 977.752C946.022 978.466 953.31 978.495 960.558 977.386C962.012 977.166 962.51 977.669 961.924 978.98C958.249 987.199 951.13 993.819 939.872 993.808Z" fill="#010101"/>
<path d="M935.887 943.611C917.749 943.392 902.6 932.466 895.519 914.574C893.217 908.768 891.915 902.808 892.035 896.501C892.092 892.994 891.805 889.513 891.637 886.021C891.604 885.606 891.653 885.187 891.782 884.792C891.91 884.396 892.115 884.031 892.385 883.718C895.639 879.729 898.594 875.509 901.636 871.352C908.238 862.327 917.238 857.06 928.011 855.192C943.692 852.46 957.368 856.992 968.673 868.286C977.971 877.574 981.843 889.163 980.368 902.403C979.273 912.346 975.652 921.346 969.421 929.133C963.063 937.096 954.671 941.391 944.861 942.99C941.89 943.436 938.889 943.644 935.887 943.611Z" fill="#F5D863"/>
<path d="M936.794 862.58C943.788 862.691 950.588 864.934 956.327 869.024C962.065 873.114 966.481 878.865 969.009 885.54C971.537 892.215 972.063 899.513 970.519 906.499C968.975 913.485 965.432 919.842 960.342 924.759C955.253 929.675 948.848 932.926 941.947 934.097C935.046 935.269 927.962 934.306 921.602 931.333C915.241 928.36 909.892 923.511 906.239 917.407C902.586 911.303 900.794 904.22 901.094 897.065C901.488 887.691 905.44 878.842 912.107 872.402C918.775 865.961 927.633 862.437 936.794 862.58Z" fill="#010101"/>
<path d="M968.854 899.197C968.554 917.79 953.612 932.281 935.049 931.975C917.611 931.694 903.252 916.153 903.583 897.954C903.924 879.343 919.29 864.428 937.559 865.172C955.19 865.89 969.255 881.098 968.854 899.197Z" fill="#F5D863"/>
<path d="M933.708 907.564C931.75 907.55 929.815 907.136 928.016 906.347C926.216 905.557 924.59 904.407 923.23 902.965C921.871 901.523 920.807 899.818 920.099 897.949C919.392 896.08 919.057 894.085 919.112 892.08C919.252 883.433 926.007 876.717 934.399 876.881C942.539 877.037 949.233 884.137 949.099 892.455C948.942 901.058 942.178 907.704 933.708 907.564Z" fill="#010101"/>
<defs>
<clipPath id="clip0_132_477">
<rect width="181" height="243" fill="white" transform="translate(0 957)"/>
</clipPath>
</defs>
</svg>
