<svg width="221" height="36" viewBox="0 0 221 36" fill="none" xmlns="http://www.w3.org/2000/svg">
<path d="M16.5044 13.48C18.451 13.72 19.891 14.3467 20.8244 15.36C21.7844 16.3467 22.2644 17.5733 22.2644 19.04C22.2644 20.5067 21.7177 21.8933 20.6244 23.2C19.5577 24.5067 18.1844 25.52 16.5044 26.24C15.7577 26.5333 14.771 26.7467 13.5444 26.88C12.3444 27.0133 11.1044 27.08 9.82438 27.08C7.69104 27.08 5.50438 26.88 3.26437 26.48C2.86438 26.4 2.43771 26.2 1.98438 25.88C1.55771 25.56 1.34438 25.0933 1.34438 24.48C1.31771 22.0267 1.22438 18.6133 1.06438 14.24L1.02438 12.04C0.917709 8.62667 0.864375 5.94667 0.864375 4C0.864375 3.65333 1.06438 3.25333 1.46438 2.8C1.89104 2.32 2.39771 2.05333 2.98438 2C3.33104 2 3.66438 1.98667 3.98438 1.96C6.99771 1.66667 9.01104 1.52 10.0244 1.52C12.0244 1.52 13.7844 1.72 15.3044 2.12C16.851 2.49333 18.131 3.18666 19.1444 4.2C19.5177 4.62667 19.8244 5.17333 20.0644 5.84C20.3044 6.48 20.4244 7.10667 20.4244 7.72C20.451 9.02667 20.1044 10.2267 19.3844 11.32C18.691 12.4133 17.731 13.1333 16.5044 13.48ZM10.2644 4.92C9.35771 4.92 8.41104 4.97333 7.42438 5.08C6.46438 5.18667 5.65104 5.32 4.98438 5.48L5.22438 13.04L6.66438 13C8.98438 12.76 10.691 12.56 11.7844 12.4C12.4777 12.24 13.1577 11.9333 13.8244 11.48C14.491 11 15.0377 10.5067 15.4644 10C15.9177 9.46667 16.1444 9.06667 16.1444 8.8C16.1444 8.4 16.0644 8 15.9044 7.6C15.7444 7.17333 15.571 6.86667 15.3844 6.68C14.6644 5.98667 13.931 5.52 13.1844 5.28C12.4377 5.04 11.4644 4.92 10.2644 4.92ZM5.34438 23.56C6.70438 23.7467 7.99771 23.84 9.22438 23.84C11.9177 23.84 14.0377 23.4933 15.5844 22.8C17.1577 22.08 17.9444 20.72 17.9444 18.72C17.9444 17.92 17.3444 17.2533 16.1444 16.72C14.9444 16.1867 13.651 15.92 12.2644 15.92C11.331 15.92 10.1444 16.0267 8.70438 16.24C7.55771 16.4 6.43771 16.5067 5.34438 16.56C5.39771 18.16 5.42438 19.1733 5.42438 19.6C5.42438 20.4267 5.41104 21.0533 5.38438 21.48L5.34438 23.56ZM28.8037 1.32C29.7371 1.4 30.5504 1.65333 31.2437 2.08C31.9371 2.48 32.2837 3.09333 32.2837 3.92C32.2837 4.53333 31.9904 5.02667 31.4037 5.4C30.8437 5.74667 30.1637 5.92 29.3637 5.92C28.5904 5.92 28.0571 5.72 27.7637 5.32C27.4704 4.92 27.3237 4.50667 27.3237 4.08C27.3237 3.28 27.4037 2.61333 27.5637 2.08C27.7504 1.54667 28.1637 1.29333 28.8037 1.32ZM32.0037 19.04V20.2C32.0037 21.24 32.0304 22.2267 32.0837 23.16C32.1637 24.0667 32.2571 24.9867 32.3637 25.92C32.3371 26.1867 32.1371 26.4667 31.7637 26.76C31.3904 27.0267 31.0571 27.16 30.7637 27.16C30.2571 27.16 29.7371 27.0667 29.2037 26.88C28.6971 26.6667 28.3904 26.4133 28.2837 26.12C28.1237 25.2667 28.0437 24.5067 28.0437 23.84C28.0437 21.6533 27.9771 19.2 27.8437 16.48C27.7371 14.08 27.6837 12.4 27.6837 11.44C27.6837 10.96 27.9237 10.5467 28.4037 10.2C28.8837 9.85333 29.3904 9.68 29.9237 9.68C30.6971 9.68 31.2304 9.85333 31.5237 10.2C31.8437 10.5467 32.0037 11.0933 32.0037 11.84V19.04ZM56.0381 23.92C56.1715 23.9733 56.3848 24.04 56.6781 24.12C56.9715 24.2 57.1848 24.28 57.3181 24.36C57.4515 24.44 57.5181 24.56 57.5181 24.72C57.5448 25.36 57.3048 25.8933 56.7981 26.32C56.3181 26.72 55.7448 26.92 55.0781 26.92C54.0381 26.92 53.2248 26.64 52.6381 26.08C52.0515 25.52 51.6248 24.6667 51.3581 23.52C51.2515 23.0667 51.1981 22.44 51.1981 21.64C51.1981 21.1867 51.2248 20.4533 51.2781 19.44C51.3315 18.3733 51.3581 17.52 51.3581 16.88C51.3581 15.9467 51.0915 15.1333 50.5581 14.44C50.0515 13.72 49.3315 13.36 48.3981 13.36C47.8381 13.36 47.2515 13.5333 46.6381 13.88C46.0248 14.2 45.5981 14.6 45.3581 15.08C44.9581 15.8533 44.6781 16.6933 44.5181 17.6C44.2248 19.2 44.0781 20.8667 44.0781 22.6C44.0781 23.4267 44.0915 24.0667 44.1181 24.52C44.1181 24.6267 44.1181 24.84 44.1181 25.16C44.1448 25.4533 44.1181 25.7333 44.0381 26C43.9848 26.24 43.8781 26.4667 43.7181 26.68C43.5848 26.8133 43.3715 26.92 43.0781 27C42.8115 27.1067 42.5581 27.16 42.3181 27.16C41.9448 27.16 41.4781 27 40.9181 26.68C40.3581 26.36 40.0381 26 39.9581 25.6L39.9181 24.92C39.9181 24.68 39.9448 24.4 39.9981 24.08C40.3181 22.2133 40.4781 20.5867 40.4781 19.2C40.4781 18.5867 40.4648 18.1067 40.4381 17.76L40.3981 15.88C40.3981 15.24 40.2381 14.6267 39.9181 14.04C39.5981 13.4267 39.2248 13.12 38.7981 13.12C38.6648 13.12 38.4781 13.1733 38.2381 13.28C37.9981 13.36 37.7981 13.4 37.6381 13.4C37.3715 13.4 37.0781 13.2667 36.7581 13C36.4648 12.7333 36.3181 12.4533 36.3181 12.16C36.3181 11.6 36.5048 11.1467 36.8781 10.8C37.2781 10.48 37.6648 10.2267 38.0381 10.04C38.4381 9.85333 38.8915 9.76 39.3981 9.76C39.8248 9.76 40.1715 9.8 40.4381 9.88C40.7048 9.96 41.0648 10.1333 41.5181 10.4C41.7581 10.5333 42.0381 10.8267 42.3581 11.28C42.6781 11.7333 42.9448 12.3733 43.1581 13.2C43.8515 11.92 44.7048 11.0267 45.7181 10.52C46.7581 9.98667 48.0781 9.72 49.6781 9.72C50.2915 9.72 50.9448 9.92 51.6381 10.32C52.3581 10.72 52.9715 11.1867 53.4781 11.72C53.9581 12.3067 54.3581 13.04 54.6781 13.92C54.9981 14.7733 55.1581 15.5467 55.1581 16.24C55.1581 16.64 55.1315 17.2933 55.0781 18.2C54.9981 18.92 54.9581 19.68 54.9581 20.48C54.9581 22.3467 55.3181 23.4933 56.0381 23.92ZM76.5753 16.96C76.5753 18.1867 76.2686 19.2267 75.6553 20.08C75.042 20.9067 74.2286 21.64 73.2153 22.28C71.8286 23.0267 70.2153 23.4133 68.3753 23.44C68.2686 23.76 68.2153 24.0933 68.2153 24.44C68.2153 24.76 68.3886 25 68.7353 25.16C69.1086 25.2933 69.762 25.4 70.6953 25.48C71.4686 25.5333 72.3353 25.7067 73.2953 26C74.282 26.2667 75.0553 26.5733 75.6153 26.92C76.3086 27.4267 76.7886 27.9733 77.0553 28.56C77.3486 29.1467 77.4953 29.88 77.4953 30.76C77.4953 31.9067 76.962 32.8667 75.8953 33.64C74.8553 34.44 73.6286 35.0267 72.2153 35.4C70.802 35.7733 69.562 35.96 68.4953 35.96C67.2153 35.96 66.122 35.8 65.2153 35.48C64.3353 35.1867 63.4953 34.7733 62.6953 34.24C62.1353 33.84 61.6953 33.3333 61.3753 32.72C61.0553 32.1067 60.8953 31.4667 60.8953 30.8C60.8953 30.1333 61.1086 29.4933 61.5353 28.88C61.9886 28.2667 62.5353 27.7333 63.1753 27.28C63.8153 26.8533 64.4153 26.56 64.9753 26.4C64.762 26.1333 64.602 25.9067 64.4953 25.72C64.4153 25.5067 64.3753 25.2667 64.3753 25C64.3753 24.0933 64.602 23.3333 65.0553 22.72C63.7753 22.2933 62.762 21.5333 62.0153 20.44C61.2953 19.3467 60.9353 18.0667 60.9353 16.6C60.9353 15.64 61.162 14.7733 61.6153 14C62.0686 13.2 62.6953 12.44 63.4953 11.72C64.8553 10.4933 66.7353 9.88 69.1353 9.88C69.4553 9.88 69.8953 9.93333 70.4553 10.04C71.0153 10.1467 71.562 10.2933 72.0953 10.48C72.9486 10.1067 73.9486 9.72 75.0953 9.32C76.242 8.92 77.0153 8.72 77.4153 8.72C78.0286 8.72 78.482 8.82667 78.7753 9.04C79.0953 9.22667 79.2553 9.65333 79.2553 10.32C79.2553 10.9333 78.8953 11.3733 78.1753 11.64C77.482 11.9067 76.4286 12.16 75.0153 12.4C76.0553 13.6533 76.5753 15.1733 76.5753 16.96ZM68.2553 20.16C69.802 20.16 70.922 19.84 71.6153 19.2C72.3353 18.56 72.6953 17.6 72.6953 16.32C72.6953 14.2133 71.4553 13.16 68.9753 13.16C68.0153 13.16 67.2553 13.2667 66.6953 13.48C66.162 13.6933 65.722 14.0533 65.3753 14.56C64.8953 15.2 64.6553 16.0667 64.6553 17.16C64.6553 18.0133 65.002 18.7333 65.6953 19.32C66.4153 19.88 67.2686 20.16 68.2553 20.16ZM64.6553 31.08C64.6553 31.5333 65.0686 31.92 65.8953 32.24C66.7486 32.5867 67.6553 32.76 68.6153 32.76C69.682 32.76 70.7753 32.56 71.8953 32.16C73.042 31.7867 73.6153 31.28 73.6153 30.64C73.6153 29.7067 72.7886 29.1067 71.1353 28.84C70.5486 28.7333 69.6953 28.5333 68.5753 28.24C68.442 28.2133 68.282 28.1733 68.0953 28.12C67.9353 28.0667 67.762 28.0133 67.5753 27.96C66.9886 28.1733 66.3486 28.6133 65.6553 29.28C64.9886 29.9733 64.6553 30.5733 64.6553 31.08ZM81.9278 17.84C81.9278 16.2133 82.2878 14.8667 83.0078 13.8C83.7278 12.7067 84.7278 11.68 86.0078 10.72C86.3811 10.4533 87.0078 10.2267 87.8878 10.04C88.7678 9.82667 89.5411 9.72 90.2078 9.72C91.0078 9.72 91.8478 9.89333 92.7278 10.24C93.6345 10.56 94.3678 10.9333 94.9278 11.36C95.9145 12.08 96.5945 12.92 96.9678 13.88C97.3411 14.8133 97.5278 15.9333 97.5278 17.24C97.5278 17.8 97.2078 18.3467 96.5678 18.88C95.9545 19.3867 95.2878 19.64 94.5678 19.64L93.0478 19.6C92.2745 19.6 91.1678 19.6267 89.7278 19.68L88.8878 19.72C88.3011 19.7733 87.8611 19.8 87.5678 19.8C87.1411 19.8 86.5545 19.7467 85.8078 19.64C85.9145 20.8933 86.3811 21.88 87.2078 22.6C88.0345 23.2933 88.9278 23.64 89.8878 23.64C91.5678 23.64 92.7411 23.3067 93.4078 22.64C93.9678 22.24 94.3411 21.9867 94.5278 21.88C94.7145 21.7733 95.0078 21.72 95.4078 21.72C95.8345 21.72 96.2078 21.92 96.5278 22.32C96.8478 22.72 97.0078 23.12 97.0078 23.52C97.0078 23.9733 96.7278 24.44 96.1678 24.92C95.6345 25.3733 94.9011 25.8533 93.9678 26.36C93.4611 26.5733 92.7678 26.76 91.8878 26.92C91.0078 27.08 90.2745 27.16 89.6878 27.16C88.7545 27.16 87.7145 26.8933 86.5678 26.36C85.4211 25.8 84.5678 25.1867 84.0078 24.52C83.4478 23.8533 82.9545 22.9067 82.5278 21.68C82.1278 20.4533 81.9278 19.1733 81.9278 17.84ZM89.8878 16.76C91.7811 16.76 93.1678 16.6933 94.0478 16.56C93.9945 15.7867 93.7545 15.16 93.3278 14.68C92.9011 14.1733 92.3145 13.7467 91.5678 13.4C91.3278 13.2933 91.1145 13.2133 90.9278 13.16C90.7411 13.1067 90.5278 13.08 90.2878 13.08C89.0611 13.08 88.0211 13.4133 87.1678 14.08C86.3411 14.7467 85.8478 15.6 85.6878 16.64C87.0211 16.72 88.4211 16.76 89.8878 16.76ZM128.952 3.88C129.112 3.32 129.352 2.86667 129.672 2.52C129.992 2.14666 130.339 1.96 130.712 1.96C131.619 1.96 132.272 2.13333 132.672 2.48C133.072 2.82667 133.272 3.42667 133.272 4.28C133.272 4.52 133.086 5.2 132.712 6.32C131.886 8.85333 130.979 11.9867 129.992 15.72C129.752 16.5733 129.552 17.32 129.392 17.96C129.259 18.6 129.139 19.1333 129.032 19.56C128.392 22.3067 127.832 24.3733 127.352 25.76C127.192 26.16 126.912 26.48 126.512 26.72C126.112 26.9333 125.686 27.04 125.232 27.04C124.779 27.04 124.326 26.9467 123.872 26.76C123.446 26.5467 123.139 26.3067 122.952 26.04C122.152 24.4667 121.139 22 119.912 18.64C118.686 15.2533 117.739 12.0533 117.072 9.04C116.459 11.92 115.792 14.5067 115.072 16.8C114.379 19.0933 113.579 21.5067 112.672 24.04C112.566 24.36 112.459 24.6667 112.352 24.96C112.246 25.2267 112.152 25.4933 112.072 25.76C111.886 26.16 111.619 26.48 111.272 26.72C110.926 26.9333 110.539 27.04 110.112 27.04C109.632 27.04 109.166 26.9467 108.712 26.76C108.259 26.5467 107.952 26.3067 107.792 26.04C107.446 25.4533 107.072 24.5467 106.672 23.32C106.299 22.0933 105.792 20.3733 105.152 18.16L104.152 14.76C103.459 12.5467 102.859 10.28 102.352 7.96C101.846 5.64 101.592 4.25333 101.592 3.8C101.592 3.24 101.872 2.8 102.432 2.48C102.992 2.13333 103.552 1.96 104.112 1.96C104.432 1.96 104.766 2.06667 105.112 2.28C105.459 2.46667 105.686 2.8 105.792 3.28C106.726 8.26667 108.099 14.0533 109.912 20.64C110.366 19.6 110.792 18.3733 111.192 16.96C111.619 15.52 112.192 13.5067 112.912 10.92C113.846 7.53333 114.552 5.12 115.032 3.68C115.139 3.28 115.406 2.96 115.832 2.72C116.286 2.48 116.739 2.36 117.192 2.36C117.779 2.36 118.259 2.52 118.632 2.84C119.006 3.13333 119.246 3.45333 119.352 3.8L119.672 5.04C120.499 8.16 121.326 11.08 122.152 13.8C122.979 16.52 123.819 18.8 124.672 20.64C125.206 19.0667 125.846 16.5467 126.592 13.08L127.192 10.44C127.912 7.61333 128.499 5.42667 128.952 3.88ZM155.291 25.08C155.291 25.6667 154.971 26.16 154.331 26.56C153.691 26.96 153.104 27.16 152.571 27.16C151.584 27.16 150.784 27.04 150.171 26.8C149.584 26.5333 149.024 26.0533 148.491 25.36C147.824 25.9733 146.891 26.44 145.691 26.76C144.491 27.0533 143.384 27.2 142.371 27.2C140.718 27.2 139.344 26.76 138.251 25.88C137.184 24.9733 136.651 23.6533 136.651 21.92C136.651 21.1733 136.878 20.4267 137.331 19.68C137.784 18.9067 138.344 18.2933 139.011 17.84C139.731 17.36 140.544 17.04 141.451 16.88C142.358 16.6933 143.411 16.6 144.611 16.6C145.171 16.6 145.838 16.7067 146.611 16.92C147.384 17.1333 147.998 17.36 148.451 17.6V16.96C148.451 15.52 148.091 14.5333 147.371 14C146.678 13.44 145.558 13.16 144.011 13.16C143.531 13.16 143.091 13.24 142.691 13.4C142.318 13.5333 141.878 13.7333 141.371 14C140.891 14.2667 140.438 14.4 140.011 14.4C139.638 14.4 139.278 14.2533 138.931 13.96C138.584 13.64 138.411 13.3067 138.411 12.96C138.411 11.84 139.104 11.0267 140.491 10.52C141.904 9.98667 143.344 9.72 144.811 9.72C145.558 9.72 146.411 9.88 147.371 10.2C148.331 10.4933 149.144 10.9067 149.811 11.44C150.611 12.1067 151.224 12.9067 151.651 13.84C152.104 14.7733 152.331 15.7867 152.331 16.88C152.331 17.2267 152.304 17.7467 152.251 18.44C152.198 19.1867 152.171 19.8267 152.171 20.36L152.131 21.44C152.078 22.0267 152.051 22.4933 152.051 22.84C152.051 23.16 152.158 23.44 152.371 23.68C152.611 23.8933 152.891 24 153.211 24L154.331 23.96C154.624 23.96 154.851 24.08 155.011 24.32C155.198 24.5333 155.291 24.7867 155.291 25.08ZM142.371 24.04C143.518 24.04 144.478 23.92 145.251 23.68C146.024 23.44 146.958 23 148.051 22.36C148.158 21.9067 148.224 21.3067 148.251 20.56C146.784 19.8667 145.571 19.52 144.611 19.52C143.704 19.52 142.971 19.56 142.411 19.64C141.851 19.6933 141.344 19.92 140.891 20.32C140.438 20.72 140.211 21.36 140.211 22.24C140.211 22.7467 140.451 23.1733 140.931 23.52C141.438 23.8667 141.918 24.04 142.371 24.04ZM158.753 13.16C158.38 13.1067 158.073 12.9467 157.833 12.68C157.62 12.4133 157.513 12.0933 157.513 11.72C157.513 11.5333 157.553 11.3333 157.633 11.12C157.74 10.9067 157.886 10.72 158.073 10.56C158.42 10.2667 158.886 9.98667 159.473 9.72C160.086 9.48 160.526 9.18667 160.793 8.84C161.06 8.49333 161.193 7.84 161.193 6.88C161.193 6.48 161.166 6.13333 161.113 5.84C161.086 5.54667 161.073 5.32 161.073 5.16C161.073 4.57333 161.286 4.13333 161.713 3.84C162.14 3.54667 162.633 3.4 163.193 3.4C163.886 3.4 164.353 3.57333 164.593 3.92C164.86 4.26667 164.993 4.90667 164.993 5.84C164.993 6.74667 164.953 7.53333 164.873 8.2C164.793 8.84 164.62 9.41333 164.353 9.92C164.726 9.92 165.34 9.89333 166.193 9.84C167.366 9.78667 168.18 9.76 168.633 9.76C169.086 9.76 169.486 9.88 169.833 10.12C170.18 10.3333 170.353 10.64 170.353 11.04C170.353 11.6 170.233 12.0133 169.993 12.28C169.753 12.5467 169.406 12.72 168.953 12.8C167.86 13.0933 166.313 13.2667 164.313 13.32C164.26 14.36 164.233 15.4933 164.233 16.72C164.233 18.7733 164.353 20.3467 164.593 21.44C164.753 22.2933 165.02 22.92 165.393 23.32C165.793 23.6933 166.38 23.88 167.153 23.88C167.553 23.88 167.873 23.8267 168.113 23.72C168.38 23.6133 168.526 23.5467 168.553 23.52C168.873 23.3333 169.166 23.24 169.433 23.24C169.806 23.24 170.073 23.36 170.233 23.6C170.42 23.84 170.513 24.16 170.513 24.56C170.513 25.3067 170.113 25.9333 169.313 26.44C168.513 26.92 167.486 27.16 166.233 27.16C164.82 27.16 163.62 26.7467 162.633 25.92C161.673 25.0667 161.1 23.9467 160.913 22.56C160.646 21.3067 160.513 19.5467 160.513 17.28C160.513 16.2933 160.566 14.9733 160.673 13.32L158.753 13.16ZM188.712 13.64C188.712 14.8133 188.112 15.4 186.912 15.4C186.512 15.4 186.179 15.3067 185.912 15.12C185.646 14.9333 185.352 14.6533 185.032 14.28C184.232 13.4 183.539 12.96 182.952 12.96C182.179 12.96 181.419 13.1867 180.672 13.64C179.952 14.0933 179.366 14.7333 178.912 15.56C178.459 16.3867 178.232 17.3067 178.232 18.32C178.232 19.44 178.446 20.3733 178.872 21.12C179.326 21.8667 180.019 22.5067 180.952 23.04C181.299 23.2267 181.699 23.3733 182.152 23.48C182.632 23.5867 183.046 23.64 183.392 23.64C184.166 23.64 185.139 23.3333 186.312 22.72C186.739 22.5067 187.099 22.3467 187.392 22.24C187.686 22.1333 187.992 22.08 188.312 22.08C188.606 22.08 188.939 22.2133 189.312 22.48C189.686 22.7467 189.872 23.08 189.872 23.48C189.872 24.28 189.499 24.96 188.752 25.52C188.006 26.0533 187.086 26.4667 185.992 26.76C184.926 27.0267 183.899 27.16 182.912 27.16C181.339 27.16 179.872 26.8 178.512 26.08C177.179 25.36 176.112 24.3733 175.312 23.12C174.512 21.84 174.112 20.4 174.112 18.8C174.112 17.0933 174.499 15.5333 175.272 14.12C176.046 12.7067 177.086 11.6 178.392 10.8C179.699 10 181.126 9.6 182.672 9.6C183.552 9.6 184.459 9.76 185.392 10.08C186.326 10.4 187.112 10.8667 187.752 11.48C188.392 12.0933 188.712 12.8133 188.712 13.64ZM210.382 27.12C208.382 27.12 207.036 26.3467 206.342 24.8C205.996 24.0267 205.769 23.0267 205.662 21.8C205.556 20.5467 205.502 19.08 205.502 17.4V16.16C205.502 14.24 204.862 13.28 203.582 13.28C202.836 13.28 202.089 13.6667 201.342 14.44C200.596 15.1867 199.969 16.1867 199.462 17.44C198.982 18.6667 198.742 19.9467 198.742 21.28C198.742 22.16 198.782 22.96 198.862 23.68C198.916 24.5867 198.942 25.28 198.942 25.76C198.942 26.6667 198.316 27.12 197.062 27.12C196.449 27.12 195.902 26.9867 195.422 26.72C194.969 26.4533 194.742 26.1067 194.742 25.68C194.849 24.32 194.902 22.64 194.902 20.64L194.862 15.36C194.862 14.5067 194.796 11.3467 194.662 5.88L194.542 2.2C194.542 1.61333 194.809 1.10667 195.342 0.679998C195.876 0.226666 196.476 -4.76837e-07 197.142 -4.76837e-07C197.729 -4.76837e-07 198.156 0.133333 198.422 0.399999C198.689 0.666666 198.822 1.08 198.822 1.64C198.822 2.33333 198.809 3.14667 198.782 4.08C198.756 4.98667 198.729 5.68 198.702 6.16C198.622 7.52 198.582 8.88 198.582 10.24C198.582 11.5733 198.556 12.6267 198.502 13.4C199.302 12.2267 200.209 11.36 201.222 10.8C202.262 10.2133 203.476 9.92 204.862 9.92C205.876 9.92 206.809 10.3733 207.662 11.28C208.542 12.16 209.076 13.1733 209.262 14.32C209.316 14.9067 209.342 15.7733 209.342 16.92L209.302 19.84C209.302 20.2933 209.329 21 209.382 21.96C209.409 22.4133 209.556 22.8933 209.822 23.4C210.116 23.9067 210.449 24.28 210.822 24.52C211.169 24.7333 211.396 24.9467 211.502 25.16C211.609 25.3733 211.662 25.6133 211.662 25.88C211.662 26.1467 211.542 26.4267 211.302 26.72C211.062 26.9867 210.756 27.12 210.382 27.12ZM220.852 24.8C220.852 25.4667 220.585 26.0933 220.052 26.68C219.519 27.24 218.932 27.52 218.292 27.52C217.545 27.52 216.865 27.32 216.252 26.92C215.639 26.4933 215.332 25.96 215.332 25.32C215.332 24.3067 215.519 23.56 215.892 23.08C216.292 22.6 216.879 22.36 217.652 22.36C218.559 22.36 219.319 22.5867 219.932 23.04C220.545 23.4667 220.852 24.0533 220.852 24.8Z" fill="white"/>
</svg>
