<svg width="596" height="104" viewBox="0 0 596 104" fill="none" xmlns="http://www.w3.org/2000/svg">
<mask id="path-1-outside-1_142_2808" maskUnits="userSpaceOnUse" x="0" y="0" width="596" height="104" fill="black">
<rect fill="white" width="596" height="104"/>
<path d="M2 79.6471V4.35294H28.4165C33.6802 4.35294 38.0214 5.2598 41.4403 7.07353C44.8592 8.86274 47.405 11.277 49.0775 14.3162C50.7501 17.3309 51.5863 20.6765 51.5863 24.3529C51.5863 27.5882 51.0083 30.2598 49.8523 32.3676C48.7209 34.4755 47.2205 36.1422 45.3512 37.3676C43.5064 38.5931 41.5018 39.5 39.3373 40.0882V40.8235C41.6494 40.9706 43.9738 41.7794 46.3104 43.25C48.6471 44.7206 50.6025 46.8284 52.1767 49.5735C53.7508 52.3186 54.5379 55.6765 54.5379 59.6471C54.5379 63.4216 53.677 66.8162 51.9553 69.8309C50.2336 72.8456 47.5156 75.2353 43.8016 77C40.0875 78.7647 35.2543 79.6471 29.302 79.6471H2ZM11.1499 71.5588H29.302C35.2789 71.5588 39.5218 70.4069 42.0306 68.1029C44.5641 65.7745 45.8308 62.9559 45.8308 59.6471C45.8308 57.098 45.179 54.7451 43.8754 52.5882C42.5718 50.4069 40.7147 48.6667 38.3043 47.3676C35.8938 46.0441 33.0407 45.3824 29.7447 45.3824H11.1499V71.5588ZM11.1499 37.4412H28.1214C30.8762 37.4412 33.3604 36.902 35.5741 35.8235C37.8124 34.7451 39.5833 33.2255 40.8869 31.2647C42.2151 29.3039 42.8792 27 42.8792 24.3529C42.8792 21.0441 41.7232 18.2377 39.4111 15.9338C37.0991 13.6054 33.4342 12.4412 28.4165 12.4412H11.1499V37.4412Z"/>
<path d="M68.3918 79.6471V23.1765H77.099V79.6471H68.3918ZM72.8192 13.7647C71.122 13.7647 69.6586 13.1887 68.4287 12.0368C67.2235 10.8848 66.6209 9.5 66.6209 7.88235C66.6209 6.26471 67.2235 4.8799 68.4287 3.72794C69.6586 2.57598 71.122 2 72.8192 2C74.5163 2 75.9675 2.57598 77.1728 3.72794C78.4026 4.8799 79.0175 6.26471 79.0175 7.88235C79.0175 9.5 78.4026 10.8848 77.1728 12.0368C75.9675 13.1887 74.5163 13.7647 72.8192 13.7647Z"/>
<path d="M101.754 45.6765V79.6471H93.0467V23.1765H101.459V32H102.197C103.525 29.1324 105.542 26.8284 108.247 25.0882C110.953 23.3235 114.446 22.4412 118.725 22.4412C122.562 22.4412 125.92 23.2255 128.798 24.7941C131.675 26.3382 133.914 28.6912 135.512 31.8529C137.111 34.9902 137.91 38.9608 137.91 43.7647V79.6471H129.203V44.3529C129.203 39.9167 128.047 36.4608 125.735 33.9853C123.423 31.4853 120.25 30.2353 116.216 30.2353C113.437 30.2353 110.953 30.8358 108.764 32.0368C106.599 33.2377 104.89 34.9902 103.635 37.2941C102.381 39.598 101.754 42.3922 101.754 45.6765Z"/>
<path d="M176.696 102C172.49 102 168.874 101.461 165.849 100.382C162.824 99.3284 160.302 97.9314 158.286 96.1912C156.293 94.4755 154.707 92.6373 153.526 90.6765L160.462 85.8235C161.249 86.8529 162.246 88.0294 163.451 89.3529C164.656 90.701 166.304 91.8652 168.395 92.8456C170.51 93.8505 173.277 94.3529 176.696 94.3529C181.271 94.3529 185.046 93.25 188.023 91.0441C190.999 88.8382 192.487 85.3824 192.487 80.6765V69.2059H191.749C191.109 70.2353 190.199 71.5098 189.019 73.0294C187.863 74.5245 186.19 75.8603 184.001 77.0368C181.837 78.1887 178.91 78.7647 175.22 78.7647C170.645 78.7647 166.538 77.6863 162.897 75.5294C159.282 73.3725 156.416 70.2353 154.301 66.1177C152.21 62 151.165 57 151.165 51.1176C151.165 45.3333 152.186 40.2966 154.227 36.0074C156.269 31.6936 159.11 28.3603 162.75 26.0073C166.39 23.6299 170.596 22.4412 175.368 22.4412C179.057 22.4412 181.984 23.0539 184.149 24.2794C186.338 25.4804 188.01 26.8529 189.166 28.3971C190.347 29.9167 191.257 31.1667 191.897 32.1471H192.782V23.1765H201.194V81.2647C201.194 86.1176 200.087 90.0637 197.873 93.1029C195.684 96.1667 192.733 98.4093 189.019 99.8309C185.329 101.277 181.222 102 176.696 102ZM176.401 70.9706C179.893 70.9706 182.845 70.174 185.256 68.5809C187.666 66.9877 189.498 64.6961 190.753 61.7059C192.007 58.7157 192.634 55.1373 192.634 50.9706C192.634 46.902 192.02 43.3113 190.79 40.1985C189.56 37.0858 187.74 34.6471 185.329 32.8823C182.919 31.1176 179.943 30.2353 176.401 30.2353C172.711 30.2353 169.637 31.1667 167.177 33.0294C164.742 34.8922 162.91 37.3922 161.68 40.5294C160.475 43.6667 159.872 47.1471 159.872 50.9706C159.872 54.8922 160.487 58.3603 161.717 61.375C162.971 64.3652 164.816 66.7181 167.251 68.4338C169.711 70.125 172.761 70.9706 176.401 70.9706Z"/>
<path d="M240.893 80.8235C235.432 80.8235 230.722 79.6225 226.762 77.2206C222.827 74.7941 219.789 71.4118 217.649 67.0735C215.534 62.7108 214.476 57.6373 214.476 51.8529C214.476 46.0686 215.534 40.9706 217.649 36.5588C219.789 32.1225 222.765 28.6667 226.577 26.1912C230.414 23.6912 234.891 22.4412 240.007 22.4412C242.959 22.4412 245.873 22.9314 248.751 23.9118C251.629 24.8922 254.248 26.4853 256.61 28.6912C258.971 30.8725 260.853 33.7647 262.255 37.3676C263.657 40.9706 264.358 45.4069 264.358 50.6765V54.3529H220.674V46.8529H255.503C255.503 43.6667 254.863 40.8235 253.584 38.3235C252.33 35.8235 250.534 33.8505 248.198 32.4044C245.886 30.9583 243.155 30.2353 240.007 30.2353C236.539 30.2353 233.538 31.0931 231.005 32.8088C228.496 34.5 226.565 36.7059 225.212 39.4265C223.86 42.1471 223.183 45.0637 223.183 48.1765V53.1765C223.183 57.4412 223.921 61.0564 225.397 64.0221C226.897 66.9632 228.976 69.2059 231.632 70.75C234.288 72.2696 237.375 73.0294 240.893 73.0294C243.18 73.0294 245.246 72.7108 247.091 72.0735C248.96 71.4118 250.571 70.4314 251.924 69.1324C253.277 67.8088 254.322 66.1667 255.06 64.2059L263.472 66.5588C262.587 69.402 261.099 71.902 259.008 74.0588C256.917 76.1912 254.335 77.8578 251.26 79.0588C248.185 80.2353 244.73 80.8235 240.893 80.8235Z"/>
<path d="M287.232 79.6471L266.571 4.35294H275.869L291.66 65.6765H292.397L308.483 4.35294H318.814L334.9 65.6765H335.638L351.429 4.35294H360.726L340.065 79.6471H330.62L313.944 19.6471H313.354L296.677 79.6471H287.232Z"/>
<path d="M382.346 80.9706C378.755 80.9706 375.496 80.2966 372.569 78.9485C369.642 77.576 367.318 75.6029 365.596 73.0294C363.875 70.4314 363.014 67.2941 363.014 63.6176C363.014 60.3824 363.653 57.7598 364.932 55.75C366.211 53.7157 367.921 52.1225 370.061 50.9706C372.2 49.8186 374.562 48.9608 377.144 48.3971C379.752 47.8088 382.371 47.3431 385.003 47C388.446 46.5588 391.238 46.2279 393.378 46.0074C395.542 45.7623 397.117 45.3578 398.1 44.7941C399.109 44.2304 399.613 43.25 399.613 41.8529V41.5588C399.613 37.9314 398.617 35.1127 396.625 33.1029C394.657 31.0931 391.669 30.0882 387.659 30.0882C383.503 30.0882 380.243 30.9951 377.882 32.8088C375.521 34.6225 373.861 36.5588 372.901 38.6176L364.637 35.6765C366.113 32.2451 368.081 29.5735 370.54 27.6618C373.024 25.7255 375.73 24.3774 378.657 23.6176C381.609 22.8333 384.511 22.4412 387.364 22.4412C389.184 22.4412 391.275 22.6618 393.636 23.1029C396.022 23.5196 398.322 24.3897 400.536 25.7132C402.774 27.0368 404.631 29.0343 406.107 31.7059C407.582 34.3774 408.32 37.9559 408.32 42.4412V79.6471H399.613V72H399.17C398.58 73.2255 397.596 74.5368 396.219 75.9338C394.841 77.3309 393.009 78.5196 390.722 79.5C388.434 80.4804 385.642 80.9706 382.346 80.9706ZM383.675 73.1765C387.118 73.1765 390.021 72.5025 392.382 71.1544C394.768 69.8064 396.563 68.0662 397.768 65.9338C398.998 63.8015 399.613 61.5588 399.613 59.2059V51.2647C399.244 51.7059 398.433 52.1103 397.178 52.4779C395.948 52.8211 394.522 53.1275 392.898 53.3971C391.3 53.6422 389.738 53.8627 388.213 54.0588C386.712 54.2304 385.495 54.3775 384.56 54.5C382.297 54.7941 380.182 55.2721 378.214 55.9338C376.271 56.5711 374.697 57.5392 373.492 58.8382C372.311 60.1127 371.721 61.8529 371.721 64.0588C371.721 67.0735 372.84 69.3529 375.078 70.8971C377.341 72.4167 380.207 73.1765 383.675 73.1765Z"/>
<path d="M448.858 23.1765V30.5294H419.49V23.1765H448.858ZM428.05 9.64706H436.757V63.4706C436.757 65.9216 437.113 67.7598 437.827 68.9853C438.565 70.1863 439.499 70.9951 440.631 71.4118C441.787 71.8039 443.004 72 444.283 72C445.243 72 446.03 71.951 446.645 71.8529C447.259 71.7304 447.751 71.6324 448.12 71.5588L449.891 79.3529C449.301 79.5735 448.477 79.7941 447.419 80.0147C446.362 80.2598 445.021 80.3824 443.398 80.3824C440.938 80.3824 438.528 79.8554 436.166 78.8015C433.83 77.7476 431.887 76.1422 430.337 73.9853C428.812 71.8284 428.05 69.1078 428.05 65.8235V9.64706Z"/>
<path d="M484.369 80.8235C479.056 80.8235 474.482 79.5735 470.644 77.0735C466.807 74.5735 463.856 71.1299 461.79 66.7426C459.724 62.3554 458.691 57.3431 458.691 51.7059C458.691 45.9706 459.748 40.9093 461.864 36.5221C464.003 32.1103 466.98 28.6667 470.792 26.1912C474.629 23.6912 479.106 22.4412 484.222 22.4412C488.206 22.4412 491.797 23.1765 494.995 24.6471C498.192 26.1176 500.812 28.1765 502.854 30.8235C504.895 33.4706 506.162 36.5588 506.654 40.0882H497.946C497.282 37.5147 495.807 35.2353 493.519 33.25C491.256 31.2402 488.206 30.2353 484.369 30.2353C480.975 30.2353 477.999 31.1176 475.441 32.8823C472.907 34.6225 470.927 37.0858 469.501 40.2721C468.099 43.4338 467.398 47.1471 467.398 51.4118C467.398 55.7745 468.086 59.5735 469.464 62.8088C470.866 66.0441 472.834 68.5564 475.367 70.3456C477.925 72.1348 480.926 73.0294 484.369 73.0294C486.632 73.0294 488.686 72.6373 490.531 71.8529C492.375 71.0686 493.937 69.9412 495.216 68.4706C496.495 67 497.405 65.2353 497.946 63.1765H506.654C506.162 66.5098 504.944 69.5123 503.001 72.1838C501.083 74.8309 498.537 76.9387 495.364 78.5074C492.216 80.0515 488.551 80.8235 484.369 80.8235Z"/>
<path d="M528.089 45.6765V79.6471H519.382V4.35294H528.089V32H528.827C530.156 29.0833 532.148 26.7672 534.804 25.0515C537.485 23.3113 541.052 22.4412 545.504 22.4412C549.365 22.4412 552.747 23.2132 555.65 24.7573C558.552 26.277 560.803 28.6176 562.401 31.7794C564.025 34.9167 564.836 38.9118 564.836 43.7647V79.6471H556.129V44.3529C556.129 39.8676 554.961 36.3995 552.624 33.9485C550.312 31.473 547.102 30.2353 542.995 30.2353C540.142 30.2353 537.584 30.8358 535.321 32.0368C533.082 33.2377 531.312 34.9902 530.008 37.2941C528.729 39.598 528.089 42.3922 528.089 45.6765Z"/>
<path d="M587.112 80.2353C585.291 80.2353 583.73 79.5858 582.426 78.2868C581.122 76.9877 580.471 75.4314 580.471 73.6176C580.471 71.8039 581.122 70.2476 582.426 68.9485C583.73 67.6495 585.291 67 587.112 67C588.932 67 590.494 67.6495 591.797 68.9485C593.101 70.2476 593.753 71.8039 593.753 73.6176C593.753 74.8186 593.445 75.9216 592.83 76.9265C592.24 77.9314 591.441 78.7402 590.432 79.3529C589.448 79.9412 588.341 80.2353 587.112 80.2353Z"/>
</mask>
<path d="M2 79.6471V4.35294H28.4165C33.6802 4.35294 38.0214 5.2598 41.4403 7.07353C44.8592 8.86274 47.405 11.277 49.0775 14.3162C50.7501 17.3309 51.5863 20.6765 51.5863 24.3529C51.5863 27.5882 51.0083 30.2598 49.8523 32.3676C48.7209 34.4755 47.2205 36.1422 45.3512 37.3676C43.5064 38.5931 41.5018 39.5 39.3373 40.0882V40.8235C41.6494 40.9706 43.9738 41.7794 46.3104 43.25C48.6471 44.7206 50.6025 46.8284 52.1767 49.5735C53.7508 52.3186 54.5379 55.6765 54.5379 59.6471C54.5379 63.4216 53.677 66.8162 51.9553 69.8309C50.2336 72.8456 47.5156 75.2353 43.8016 77C40.0875 78.7647 35.2543 79.6471 29.302 79.6471H2ZM11.1499 71.5588H29.302C35.2789 71.5588 39.5218 70.4069 42.0306 68.1029C44.5641 65.7745 45.8308 62.9559 45.8308 59.6471C45.8308 57.098 45.179 54.7451 43.8754 52.5882C42.5718 50.4069 40.7147 48.6667 38.3043 47.3676C35.8938 46.0441 33.0407 45.3824 29.7447 45.3824H11.1499V71.5588ZM11.1499 37.4412H28.1214C30.8762 37.4412 33.3604 36.902 35.5741 35.8235C37.8124 34.7451 39.5833 33.2255 40.8869 31.2647C42.2151 29.3039 42.8792 27 42.8792 24.3529C42.8792 21.0441 41.7232 18.2377 39.4111 15.9338C37.0991 13.6054 33.4342 12.4412 28.4165 12.4412H11.1499V37.4412Z" stroke="white" stroke-width="4" mask="url(#path-1-outside-1_142_2808)"/>
<path d="M68.3918 79.6471V23.1765H77.099V79.6471H68.3918ZM72.8192 13.7647C71.122 13.7647 69.6586 13.1887 68.4287 12.0368C67.2235 10.8848 66.6209 9.5 66.6209 7.88235C66.6209 6.26471 67.2235 4.8799 68.4287 3.72794C69.6586 2.57598 71.122 2 72.8192 2C74.5163 2 75.9675 2.57598 77.1728 3.72794C78.4026 4.8799 79.0175 6.26471 79.0175 7.88235C79.0175 9.5 78.4026 10.8848 77.1728 12.0368C75.9675 13.1887 74.5163 13.7647 72.8192 13.7647Z" stroke="white" stroke-width="4" mask="url(#path-1-outside-1_142_2808)"/>
<path d="M101.754 45.6765V79.6471H93.0467V23.1765H101.459V32H102.197C103.525 29.1324 105.542 26.8284 108.247 25.0882C110.953 23.3235 114.446 22.4412 118.725 22.4412C122.562 22.4412 125.92 23.2255 128.798 24.7941C131.675 26.3382 133.914 28.6912 135.512 31.8529C137.111 34.9902 137.91 38.9608 137.91 43.7647V79.6471H129.203V44.3529C129.203 39.9167 128.047 36.4608 125.735 33.9853C123.423 31.4853 120.25 30.2353 116.216 30.2353C113.437 30.2353 110.953 30.8358 108.764 32.0368C106.599 33.2377 104.89 34.9902 103.635 37.2941C102.381 39.598 101.754 42.3922 101.754 45.6765Z" stroke="white" stroke-width="4" mask="url(#path-1-outside-1_142_2808)"/>
<path d="M176.696 102C172.49 102 168.874 101.461 165.849 100.382C162.824 99.3284 160.302 97.9314 158.286 96.1912C156.293 94.4755 154.707 92.6373 153.526 90.6765L160.462 85.8235C161.249 86.8529 162.246 88.0294 163.451 89.3529C164.656 90.701 166.304 91.8652 168.395 92.8456C170.51 93.8505 173.277 94.3529 176.696 94.3529C181.271 94.3529 185.046 93.25 188.023 91.0441C190.999 88.8382 192.487 85.3824 192.487 80.6765V69.2059H191.749C191.109 70.2353 190.199 71.5098 189.019 73.0294C187.863 74.5245 186.19 75.8603 184.001 77.0368C181.837 78.1887 178.91 78.7647 175.22 78.7647C170.645 78.7647 166.538 77.6863 162.897 75.5294C159.282 73.3725 156.416 70.2353 154.301 66.1177C152.21 62 151.165 57 151.165 51.1176C151.165 45.3333 152.186 40.2966 154.227 36.0074C156.269 31.6936 159.11 28.3603 162.75 26.0073C166.39 23.6299 170.596 22.4412 175.368 22.4412C179.057 22.4412 181.984 23.0539 184.149 24.2794C186.338 25.4804 188.01 26.8529 189.166 28.3971C190.347 29.9167 191.257 31.1667 191.897 32.1471H192.782V23.1765H201.194V81.2647C201.194 86.1176 200.087 90.0637 197.873 93.1029C195.684 96.1667 192.733 98.4093 189.019 99.8309C185.329 101.277 181.222 102 176.696 102ZM176.401 70.9706C179.893 70.9706 182.845 70.174 185.256 68.5809C187.666 66.9877 189.498 64.6961 190.753 61.7059C192.007 58.7157 192.634 55.1373 192.634 50.9706C192.634 46.902 192.02 43.3113 190.79 40.1985C189.56 37.0858 187.74 34.6471 185.329 32.8823C182.919 31.1176 179.943 30.2353 176.401 30.2353C172.711 30.2353 169.637 31.1667 167.177 33.0294C164.742 34.8922 162.91 37.3922 161.68 40.5294C160.475 43.6667 159.872 47.1471 159.872 50.9706C159.872 54.8922 160.487 58.3603 161.717 61.375C162.971 64.3652 164.816 66.7181 167.251 68.4338C169.711 70.125 172.761 70.9706 176.401 70.9706Z" stroke="white" stroke-width="4" mask="url(#path-1-outside-1_142_2808)"/>
<path d="M240.893 80.8235C235.432 80.8235 230.722 79.6225 226.762 77.2206C222.827 74.7941 219.789 71.4118 217.649 67.0735C215.534 62.7108 214.476 57.6373 214.476 51.8529C214.476 46.0686 215.534 40.9706 217.649 36.5588C219.789 32.1225 222.765 28.6667 226.577 26.1912C230.414 23.6912 234.891 22.4412 240.007 22.4412C242.959 22.4412 245.873 22.9314 248.751 23.9118C251.629 24.8922 254.248 26.4853 256.61 28.6912C258.971 30.8725 260.853 33.7647 262.255 37.3676C263.657 40.9706 264.358 45.4069 264.358 50.6765V54.3529H220.674V46.8529H255.503C255.503 43.6667 254.863 40.8235 253.584 38.3235C252.33 35.8235 250.534 33.8505 248.198 32.4044C245.886 30.9583 243.155 30.2353 240.007 30.2353C236.539 30.2353 233.538 31.0931 231.005 32.8088C228.496 34.5 226.565 36.7059 225.212 39.4265C223.86 42.1471 223.183 45.0637 223.183 48.1765V53.1765C223.183 57.4412 223.921 61.0564 225.397 64.0221C226.897 66.9632 228.976 69.2059 231.632 70.75C234.288 72.2696 237.375 73.0294 240.893 73.0294C243.18 73.0294 245.246 72.7108 247.091 72.0735C248.96 71.4118 250.571 70.4314 251.924 69.1324C253.277 67.8088 254.322 66.1667 255.06 64.2059L263.472 66.5588C262.587 69.402 261.099 71.902 259.008 74.0588C256.917 76.1912 254.335 77.8578 251.26 79.0588C248.185 80.2353 244.73 80.8235 240.893 80.8235Z" stroke="white" stroke-width="4" mask="url(#path-1-outside-1_142_2808)"/>
<path d="M287.232 79.6471L266.571 4.35294H275.869L291.66 65.6765H292.397L308.483 4.35294H318.814L334.9 65.6765H335.638L351.429 4.35294H360.726L340.065 79.6471H330.62L313.944 19.6471H313.354L296.677 79.6471H287.232Z" stroke="white" stroke-width="4" mask="url(#path-1-outside-1_142_2808)"/>
<path d="M382.346 80.9706C378.755 80.9706 375.496 80.2966 372.569 78.9485C369.642 77.576 367.318 75.6029 365.596 73.0294C363.875 70.4314 363.014 67.2941 363.014 63.6176C363.014 60.3824 363.653 57.7598 364.932 55.75C366.211 53.7157 367.921 52.1225 370.061 50.9706C372.2 49.8186 374.562 48.9608 377.144 48.3971C379.752 47.8088 382.371 47.3431 385.003 47C388.446 46.5588 391.238 46.2279 393.378 46.0074C395.542 45.7623 397.117 45.3578 398.1 44.7941C399.109 44.2304 399.613 43.25 399.613 41.8529V41.5588C399.613 37.9314 398.617 35.1127 396.625 33.1029C394.657 31.0931 391.669 30.0882 387.659 30.0882C383.503 30.0882 380.243 30.9951 377.882 32.8088C375.521 34.6225 373.861 36.5588 372.901 38.6176L364.637 35.6765C366.113 32.2451 368.081 29.5735 370.54 27.6618C373.024 25.7255 375.73 24.3774 378.657 23.6176C381.609 22.8333 384.511 22.4412 387.364 22.4412C389.184 22.4412 391.275 22.6618 393.636 23.1029C396.022 23.5196 398.322 24.3897 400.536 25.7132C402.774 27.0368 404.631 29.0343 406.107 31.7059C407.582 34.3774 408.32 37.9559 408.32 42.4412V79.6471H399.613V72H399.17C398.58 73.2255 397.596 74.5368 396.219 75.9338C394.841 77.3309 393.009 78.5196 390.722 79.5C388.434 80.4804 385.642 80.9706 382.346 80.9706ZM383.675 73.1765C387.118 73.1765 390.021 72.5025 392.382 71.1544C394.768 69.8064 396.563 68.0662 397.768 65.9338C398.998 63.8015 399.613 61.5588 399.613 59.2059V51.2647C399.244 51.7059 398.433 52.1103 397.178 52.4779C395.948 52.8211 394.522 53.1275 392.898 53.3971C391.3 53.6422 389.738 53.8627 388.213 54.0588C386.712 54.2304 385.495 54.3775 384.56 54.5C382.297 54.7941 380.182 55.2721 378.214 55.9338C376.271 56.5711 374.697 57.5392 373.492 58.8382C372.311 60.1127 371.721 61.8529 371.721 64.0588C371.721 67.0735 372.84 69.3529 375.078 70.8971C377.341 72.4167 380.207 73.1765 383.675 73.1765Z" stroke="white" stroke-width="4" mask="url(#path-1-outside-1_142_2808)"/>
<path d="M448.858 23.1765V30.5294H419.49V23.1765H448.858ZM428.05 9.64706H436.757V63.4706C436.757 65.9216 437.113 67.7598 437.827 68.9853C438.565 70.1863 439.499 70.9951 440.631 71.4118C441.787 71.8039 443.004 72 444.283 72C445.243 72 446.03 71.951 446.645 71.8529C447.259 71.7304 447.751 71.6324 448.12 71.5588L449.891 79.3529C449.301 79.5735 448.477 79.7941 447.419 80.0147C446.362 80.2598 445.021 80.3824 443.398 80.3824C440.938 80.3824 438.528 79.8554 436.166 78.8015C433.83 77.7476 431.887 76.1422 430.337 73.9853C428.812 71.8284 428.05 69.1078 428.05 65.8235V9.64706Z" stroke="white" stroke-width="4" mask="url(#path-1-outside-1_142_2808)"/>
<path d="M484.369 80.8235C479.056 80.8235 474.482 79.5735 470.644 77.0735C466.807 74.5735 463.856 71.1299 461.79 66.7426C459.724 62.3554 458.691 57.3431 458.691 51.7059C458.691 45.9706 459.748 40.9093 461.864 36.5221C464.003 32.1103 466.98 28.6667 470.792 26.1912C474.629 23.6912 479.106 22.4412 484.222 22.4412C488.206 22.4412 491.797 23.1765 494.995 24.6471C498.192 26.1176 500.812 28.1765 502.854 30.8235C504.895 33.4706 506.162 36.5588 506.654 40.0882H497.946C497.282 37.5147 495.807 35.2353 493.519 33.25C491.256 31.2402 488.206 30.2353 484.369 30.2353C480.975 30.2353 477.999 31.1176 475.441 32.8823C472.907 34.6225 470.927 37.0858 469.501 40.2721C468.099 43.4338 467.398 47.1471 467.398 51.4118C467.398 55.7745 468.086 59.5735 469.464 62.8088C470.866 66.0441 472.834 68.5564 475.367 70.3456C477.925 72.1348 480.926 73.0294 484.369 73.0294C486.632 73.0294 488.686 72.6373 490.531 71.8529C492.375 71.0686 493.937 69.9412 495.216 68.4706C496.495 67 497.405 65.2353 497.946 63.1765H506.654C506.162 66.5098 504.944 69.5123 503.001 72.1838C501.083 74.8309 498.537 76.9387 495.364 78.5074C492.216 80.0515 488.551 80.8235 484.369 80.8235Z" stroke="white" stroke-width="4" mask="url(#path-1-outside-1_142_2808)"/>
<path d="M528.089 45.6765V79.6471H519.382V4.35294H528.089V32H528.827C530.156 29.0833 532.148 26.7672 534.804 25.0515C537.485 23.3113 541.052 22.4412 545.504 22.4412C549.365 22.4412 552.747 23.2132 555.65 24.7573C558.552 26.277 560.803 28.6176 562.401 31.7794C564.025 34.9167 564.836 38.9118 564.836 43.7647V79.6471H556.129V44.3529C556.129 39.8676 554.961 36.3995 552.624 33.9485C550.312 31.473 547.102 30.2353 542.995 30.2353C540.142 30.2353 537.584 30.8358 535.321 32.0368C533.082 33.2377 531.312 34.9902 530.008 37.2941C528.729 39.598 528.089 42.3922 528.089 45.6765Z" stroke="white" stroke-width="4" mask="url(#path-1-outside-1_142_2808)"/>
<path d="M587.112 80.2353C585.291 80.2353 583.73 79.5858 582.426 78.2868C581.122 76.9877 580.471 75.4314 580.471 73.6176C580.471 71.8039 581.122 70.2476 582.426 68.9485C583.73 67.6495 585.291 67 587.112 67C588.932 67 590.494 67.6495 591.797 68.9485C593.101 70.2476 593.753 71.8039 593.753 73.6176C593.753 74.8186 593.445 75.9216 592.83 76.9265C592.24 77.9314 591.441 78.7402 590.432 79.3529C589.448 79.9412 588.341 80.2353 587.112 80.2353Z" stroke="white" stroke-width="4" mask="url(#path-1-outside-1_142_2808)"/>
</svg>
