<svg width="30" height="30" viewBox="0 0 30 30" fill="none" xmlns="http://www.w3.org/2000/svg">
<path d="M19.6151 20.385H10.3844C10.1804 20.3844 9.98502 20.3032 9.84082 20.159C9.69663 20.0148 9.61535 19.8194 9.61474 19.6154V10.3847C9.61474 9.9612 9.96089 9.61504 10.3844 9.61504H14.2301C14.6536 9.61504 14.9997 9.26889 14.9997 8.84658C14.9997 8.42312 14.6536 8.07697 14.2301 8.07697H9.61474C8.76089 8.07697 8.07666 8.76927 8.07666 9.61504V20.385C8.07666 21.2308 8.76897 21.9231 9.61474 21.9231H20.3847C21.2305 21.9231 21.9228 21.2308 21.9228 20.385V15.7697C21.9228 15.3462 21.5767 15 21.1532 15C20.7309 15 20.3847 15.3462 20.3847 15.7697V19.6154C20.3847 20.0389 20.0386 20.385 19.6151 20.385ZM16.5378 8.84658C16.5378 9.26889 16.884 9.61504 17.3074 9.61504H19.3001L12.2767 16.6385C12.2054 16.7097 12.149 16.7943 12.1104 16.8873C12.0719 16.9804 12.052 17.0801 12.052 17.1808C12.052 17.2815 12.0719 17.3813 12.1104 17.4743C12.149 17.5674 12.2054 17.6519 12.2767 17.7231C12.3479 17.7943 12.4324 17.8508 12.5255 17.8894C12.6185 17.9279 12.7183 17.9478 12.819 17.9478C12.9197 17.9478 13.0194 17.9279 13.1125 17.8894C13.2055 17.8508 13.2901 17.7943 13.3613 17.7231L20.3847 10.6997V12.6923C20.3847 13.1158 20.7309 13.462 21.1532 13.462C21.5767 13.462 21.9228 13.1158 21.9228 12.6923V8.07697H17.3074C16.884 8.07697 16.5378 8.42312 16.5378 8.84658Z" fill="#5799EF"/>
</svg>
