<svg width="1010" height="1116" viewBox="0 0 1010 1116" fill="none" xmlns="http://www.w3.org/2000/svg">
<rect width="1010" height="1116" fill="#101010"/>
<path d="M976 1105.2C976 1111.14 764.881 1115.97 504.5 1115.97C244.119 1115.97 33 1111.14 33 1105.2C33 1099.27 244.119 1094.43 504.5 1094.43C764.881 1094.43 976 1099.24 976 1105.2Z" fill="#5C5C5C"/>
<path opacity="0.6" d="M976 1105.2C976 1111.14 764.881 1115.97 504.5 1115.97C244.119 1115.97 33 1111.14 33 1105.2C33 1099.27 244.119 1094.43 504.5 1094.43C764.881 1094.43 976 1099.24 976 1105.2Z" fill="white"/>
<path d="M806.354 730.277C806.213 730.277 807.926 721.785 808.09 721.245C810.06 715.193 817.473 704.614 824.51 704.637C825.695 704.672 826.859 704.956 827.927 705.471C828.995 705.986 829.943 706.719 830.708 707.624C831.474 708.529 832.04 709.585 832.371 710.724C832.701 711.862 832.788 713.057 832.627 714.231C832.111 719.251 827.607 723.615 823.525 725.96C818.833 728.893 806.354 730.277 806.354 730.277Z" fill="#5C5C5C"/>
<path d="M792.514 673.063C799.246 675.409 802.577 687.912 802.366 694.175C802.366 694.715 801.076 703.3 800.958 703.253H800.818C801.381 705.2 801.92 707.311 802.483 709.634C803.492 713.903 804.594 718.759 805.439 724.107C806.42 729.874 807.055 735.694 807.339 741.536C807.709 748.072 807.489 754.627 806.682 761.123C806.691 761.201 806.691 761.28 806.682 761.358C807.574 759.458 810.201 754.321 810.459 753.852C813.954 748.503 823.853 740.27 830.726 742.123C831.861 742.469 832.91 743.05 833.805 743.828C834.7 744.606 835.421 745.564 835.921 746.64C836.422 747.715 836.69 748.884 836.708 750.07C836.726 751.256 836.494 752.433 836.028 753.523C834.221 758.215 828.732 761.17 824.158 762.461C818.997 763.938 807.48 762.203 806.565 762.062C805.578 768.646 804.16 775.157 802.319 781.555C801.263 785.285 800.091 789.015 798.847 792.745C799.668 791.126 800.396 789.695 800.536 789.507C804.031 784.182 813.931 775.925 820.804 777.778C821.938 778.124 822.987 778.705 823.882 779.484C824.778 780.262 825.499 781.22 825.999 782.296C826.499 783.371 826.767 784.54 826.785 785.726C826.804 786.912 826.572 788.088 826.105 789.179C824.275 793.87 818.81 796.826 814.236 798.116C809.661 799.406 799.739 798.116 797.135 797.788L795.681 802.057C793.335 808.883 790.989 815.686 788.807 822.419C788.057 824.764 787.4 827.11 786.743 829.456C787.447 828.025 788.08 826.805 788.197 826.641C791.693 821.316 801.592 813.059 808.465 814.912C809.6 815.258 810.649 815.839 811.544 816.617C812.439 817.395 813.16 818.354 813.66 819.429C814.16 820.505 814.428 821.673 814.446 822.859C814.465 824.045 814.233 825.222 813.766 826.313C811.937 831.004 806.471 833.96 801.897 835.25C797.323 836.54 788.362 835.414 785.265 834.992C784.655 837.338 784.045 839.871 783.576 842.264C783.271 843.906 782.896 845.477 782.685 847.143C782.474 848.808 782.216 850.404 782.005 852.022C781.676 855.142 781.324 858.356 781.09 861.405C780.902 863.54 780.761 865.557 780.621 867.598C781.348 865.252 782.966 860.561 782.966 860.256C785.485 855.238 789.249 850.949 793.898 847.8C794.157 847.235 794.463 846.694 794.813 846.181C795.458 845.184 796.307 844.335 797.303 843.689C798.299 843.042 799.42 842.613 800.594 842.429C801.767 842.245 802.966 842.311 804.112 842.622C805.258 842.933 806.326 843.483 807.245 844.234C812.64 848.926 811.303 861.71 808.817 867.575C808.676 867.926 806.659 871.516 805.345 873.744C806.307 872.548 807.245 871.398 808.254 870.155C810.248 867.809 812.289 865.463 814.494 862.813L817.825 859.177C818.927 857.933 820.17 856.831 821.437 855.564C824.299 852.796 827.325 850.146 830.445 847.518C828.31 845.782 820.851 839.496 818.716 835.203C816.581 830.91 815.057 824.928 817.285 820.425C817.77 819.341 818.479 818.372 819.365 817.581C820.251 816.791 821.295 816.196 822.427 815.837C823.559 815.479 824.754 815.363 825.933 815.499C827.113 815.634 828.251 816.018 829.272 816.624C835.324 820.401 835.934 833.279 834.362 839.449C834.362 839.848 832.65 844.14 831.712 846.486C833.588 844.914 835.465 843.366 837.412 841.795C843.065 837.431 848.906 833.209 854.724 828.94C856.506 827.65 858.266 826.313 860.048 824.999C859.274 824.389 850.243 817.094 847.85 812.308C845.716 808.062 844.191 802.034 846.42 797.506C846.91 796.428 847.622 795.464 848.509 794.677C849.396 793.891 850.438 793.3 851.568 792.942C852.698 792.583 853.89 792.466 855.068 792.598C856.246 792.73 857.384 793.107 858.406 793.706C864.458 797.506 865.068 810.385 863.497 816.554C863.379 817.023 861.034 823.216 860.353 824.764C864.247 821.879 868.094 818.947 871.777 815.921C876.742 811.836 881.443 807.44 885.852 802.761C885.477 802.479 876.047 794.903 873.584 790C871.449 785.731 869.901 779.725 872.153 775.198C872.644 774.119 873.355 773.155 874.242 772.369C875.129 771.583 876.171 770.991 877.301 770.633C878.431 770.275 879.624 770.158 880.802 770.29C881.979 770.421 883.117 770.799 884.14 771.398C890.192 775.198 890.778 788.053 889.23 794.246C889.113 794.645 887.33 799.383 886.438 801.612L886.79 801.823C891.102 796.98 894.98 791.768 898.378 786.247C900.278 783.221 901.944 780.242 903.492 777.286C901.569 776.066 892.936 770.249 890.239 766.167C887.541 762.085 885.547 756.362 887.189 751.623C887.556 750.495 888.156 749.457 888.95 748.577C889.745 747.697 890.716 746.993 891.8 746.513C892.885 746.033 894.058 745.787 895.244 745.79C896.43 745.793 897.602 746.046 898.683 746.533C905.111 749.653 907.128 762.367 906.26 768.677C906.26 769.029 905.322 772.454 904.665 774.964C905.345 773.626 906.049 772.242 906.682 770.952C909.028 766.097 910.881 761.569 912.5 757.394C913.391 755.048 914.142 752.937 914.846 750.943C913.602 748.761 908.723 739.918 908.254 735.062C907.785 730.206 908.536 724.154 912.242 720.753C913.085 719.917 914.095 719.268 915.207 718.85C916.318 718.432 917.505 718.254 918.69 718.327C919.875 718.4 921.032 718.723 922.083 719.274C923.135 719.826 924.058 720.593 924.792 721.527C929.085 727.251 925.003 739.449 921.32 744.656C920.992 745.102 915.197 751.576 915.127 751.459V751.318C914.494 753.265 913.79 755.329 912.993 757.558C911.468 761.687 909.708 766.355 907.456 771.281C905.088 776.625 902.41 781.826 899.434 786.857C896.135 792.503 892.336 797.842 888.08 802.808L887.916 802.996C889.699 801.893 894.789 798.984 895.212 798.82C901.053 796.287 913.86 794.879 918.552 800.251C919.308 801.164 919.863 802.227 920.182 803.369C920.5 804.511 920.574 805.708 920.399 806.881C920.224 808.054 919.804 809.176 919.167 810.176C918.529 811.176 917.688 812.03 916.699 812.684C912.57 815.616 906.401 815.029 901.85 813.598C896.736 811.98 888.08 804.215 887.4 803.535C882.947 808.494 878.167 813.149 873.091 817.469C870.159 820.002 867.109 822.465 864.036 824.905C865.608 823.99 867.015 823.193 867.227 823.122C873.091 820.589 885.993 819.181 890.684 824.553C891.439 825.468 891.993 826.532 892.309 827.675C892.626 828.818 892.698 830.015 892.521 831.188C892.344 832.361 891.922 833.484 891.282 834.483C890.642 835.482 889.799 836.334 888.808 836.986C884.679 839.918 878.51 839.332 873.959 837.901C869.408 836.47 861.855 829.925 859.884 828.189L856.366 831.356C850.642 835.742 844.895 840.082 839.406 844.539C837.459 846.111 835.605 847.706 833.752 849.231L836.52 847.682C842.385 845.172 855.287 843.742 859.978 849.137C860.733 850.052 861.287 851.116 861.603 852.259C861.92 853.402 861.992 854.599 861.815 855.772C861.638 856.945 861.215 858.067 860.576 859.066C859.936 860.065 859.093 860.918 858.101 861.569C853.996 864.478 847.804 863.915 843.276 862.461C838.749 861.006 831.876 855.142 829.553 853.078C827.7 854.767 825.824 856.479 824.111 858.215C822.962 859.411 821.765 860.561 820.686 861.781L817.426 865.487C815.432 867.833 813.368 870.39 811.491 872.806C810.154 874.471 808.934 876.09 807.691 877.708C809.591 876.137 813.414 873.134 813.743 873.017C819.162 869.639 831.594 866.308 837.06 870.906C837.944 871.7 838.65 872.671 839.134 873.756C839.618 874.841 839.868 876.016 839.868 877.204C839.868 878.392 839.618 879.567 839.134 880.652C838.65 881.737 837.944 882.708 837.06 883.502C833.447 886.998 827.255 887.373 822.54 886.622C817.355 885.825 807.972 879.702 806.799 878.952C804.759 881.626 802.788 884.277 800.982 886.786C794.672 895.513 789.746 903.019 786.368 908.321L786.039 908.86L781.676 906.749C781.887 906.397 782.122 906.069 782.357 905.693C785.875 900.415 791.012 892.956 797.581 884.276C799.645 881.532 801.92 878.647 804.266 875.691C801.833 873.036 799.569 870.231 797.487 867.293C792.467 869.264 782.028 869.357 780.668 869.357C780.456 872.735 780.269 876.019 780.152 879.116C779.682 889.883 779.729 898.844 779.823 905.13C779.823 905.388 779.823 905.623 779.823 905.858L775.014 903.512C775.014 897.272 775.249 888.851 775.882 878.881C776.093 875.433 776.398 871.844 776.727 868.02C775.413 867.692 764.529 864.9 760.447 861.616C756.365 858.332 752.8 853.828 752.941 848.785C752.93 847.59 753.173 846.407 753.653 845.313C754.133 844.22 754.84 843.24 755.727 842.44C756.614 841.64 757.66 841.037 758.798 840.671C759.935 840.305 761.136 840.184 762.324 840.317C769.361 841.232 775.343 852.656 776.516 858.919C776.516 859.294 776.891 863.399 777.032 865.956C777.172 864.431 777.29 862.93 777.454 861.264C777.782 858.145 778.181 855.025 778.603 851.694C778.861 850.075 779.143 848.457 779.401 846.815C779.659 845.172 780.081 843.484 780.41 841.818C781.277 837.924 782.333 834.054 783.482 830.089C780.761 829.808 771.073 828.658 766.921 826.266C762.769 823.873 758.195 819.721 757.538 814.724C757.349 813.553 757.408 812.355 757.713 811.208C758.018 810.061 758.561 808.991 759.307 808.068C760.053 807.145 760.985 806.39 762.042 805.851C763.099 805.313 764.258 805.003 765.443 804.942C772.481 804.778 780.175 815.17 782.286 821.175C782.427 821.551 783.436 826.054 783.952 828.518C784.655 826.172 785.359 823.826 786.157 821.48C788.502 814.724 791.012 807.945 793.499 801.189C794.273 799.125 795.024 797.037 795.845 794.973C794.86 794.973 783.318 793.777 778.674 791.102C774.545 788.757 769.947 784.558 769.291 779.561C769.101 778.39 769.161 777.192 769.465 776.045C769.77 774.898 770.313 773.828 771.059 772.905C771.805 771.982 772.737 771.227 773.794 770.688C774.852 770.15 776.011 769.84 777.196 769.779C784.233 769.592 791.927 780.007 794.038 786.012C794.203 786.481 795.657 792.932 795.939 794.598C797.604 790.047 799.199 785.473 800.63 780.922C802.556 774.775 804.069 768.505 805.157 762.156C804.712 762.156 792.654 761.006 787.893 758.262C783.764 755.916 779.166 751.717 778.509 746.72C778.32 745.549 778.38 744.351 778.684 743.204C778.989 742.057 779.532 740.987 780.278 740.064C781.024 739.141 781.956 738.386 783.013 737.847C784.071 737.309 785.23 736.999 786.415 736.939C793.569 736.774 801.17 747.166 803.257 753.171C803.398 753.57 804.524 758.496 804.993 760.842H805.415C806.345 754.428 806.706 747.944 806.494 741.466C806.494 737.9 806.143 734.429 805.814 731.168C803.468 731.168 793.194 731.168 788.62 729.221C784.045 727.274 779.237 723.662 778.064 718.759C777.749 717.616 777.678 716.42 777.855 715.249C778.033 714.077 778.455 712.955 779.094 711.958C779.734 710.96 780.576 710.108 781.567 709.457C782.557 708.806 783.673 708.371 784.843 708.179C791.88 707.218 800.607 716.718 803.375 722.465C803.515 722.77 804.688 726.125 805.509 728.588C805.322 727.086 805.181 725.538 804.97 724.131C804.243 718.759 803.257 713.903 802.342 709.61C801.803 707.265 801.263 704.919 800.747 702.948C798.402 701.799 789.558 697.107 786.485 693.331C783.412 689.554 780.714 683.948 781.911 679.256C782.174 678.138 782.662 677.085 783.345 676.162C784.028 675.238 784.891 674.463 785.883 673.884C786.875 673.304 787.974 672.933 789.114 672.792C790.254 672.651 791.411 672.743 792.514 673.063Z" fill="#5C5C5C"/>
<path d="M921.625 783.15C916.042 782.916 904.876 777.192 904.876 777.192C904.876 777.192 910.881 770.976 911.303 770.647C916.3 766.66 928.263 761.921 934.222 765.956C935.188 766.643 936 767.525 936.605 768.546C937.21 769.566 937.594 770.702 937.734 771.88C937.873 773.057 937.764 774.251 937.413 775.385C937.063 776.518 936.479 777.565 935.699 778.459C932.486 782.259 926.387 783.338 921.625 783.15Z" fill="#5C5C5C"/>
<g opacity="0.5">
<path d="M806.354 730.277C806.213 730.277 807.926 721.785 808.09 721.245C810.06 715.193 817.473 704.614 824.51 704.637C825.695 704.672 826.859 704.956 827.927 705.471C828.995 705.986 829.943 706.719 830.708 707.624C831.474 708.529 832.04 709.585 832.371 710.724C832.701 711.862 832.788 713.057 832.627 714.231C832.111 719.251 827.607 723.615 823.525 725.96C818.833 728.893 806.354 730.277 806.354 730.277Z" fill="white"/>
<path d="M792.514 673.063C799.246 675.409 802.577 687.912 802.366 694.175C802.366 694.715 801.076 703.3 800.958 703.253H800.818C801.381 705.2 801.92 707.311 802.483 709.634C803.492 713.903 804.594 718.759 805.439 724.107C806.42 729.874 807.055 735.694 807.339 741.536C807.709 748.072 807.489 754.627 806.682 761.123C806.691 761.201 806.691 761.28 806.682 761.358C807.574 759.458 810.201 754.321 810.459 753.852C813.954 748.503 823.853 740.27 830.726 742.123C831.861 742.469 832.91 743.05 833.805 743.828C834.7 744.606 835.421 745.564 835.921 746.64C836.422 747.715 836.69 748.884 836.708 750.07C836.726 751.256 836.494 752.433 836.028 753.523C834.221 758.215 828.732 761.17 824.158 762.461C818.997 763.938 807.48 762.203 806.565 762.062C805.578 768.646 804.16 775.157 802.319 781.555C801.263 785.285 800.091 789.015 798.847 792.745C799.668 791.126 800.396 789.695 800.536 789.507C804.031 784.182 813.931 775.925 820.804 777.778C821.938 778.124 822.987 778.705 823.882 779.484C824.778 780.262 825.499 781.22 825.999 782.296C826.499 783.371 826.767 784.54 826.785 785.726C826.804 786.912 826.572 788.088 826.105 789.179C824.275 793.87 818.81 796.826 814.236 798.116C809.661 799.406 799.739 798.116 797.135 797.788L795.681 802.057C793.335 808.883 790.989 815.686 788.807 822.419C788.057 824.764 787.4 827.11 786.743 829.456C787.447 828.025 788.08 826.805 788.197 826.641C791.693 821.316 801.592 813.059 808.465 814.912C809.6 815.258 810.649 815.839 811.544 816.617C812.439 817.395 813.16 818.354 813.66 819.429C814.16 820.505 814.428 821.673 814.446 822.859C814.465 824.045 814.233 825.222 813.766 826.313C811.937 831.004 806.471 833.96 801.897 835.25C797.323 836.54 788.362 835.414 785.265 834.992C784.655 837.338 784.045 839.871 783.576 842.264C783.271 843.906 782.896 845.477 782.685 847.143C782.474 848.808 782.216 850.404 782.005 852.022C781.676 855.142 781.324 858.356 781.09 861.405C780.902 863.54 780.761 865.557 780.621 867.598C781.348 865.252 782.966 860.561 782.966 860.256C785.485 855.238 789.249 850.949 793.898 847.8C794.157 847.235 794.463 846.694 794.813 846.181C795.458 845.184 796.307 844.335 797.303 843.689C798.299 843.042 799.42 842.613 800.594 842.429C801.767 842.245 802.966 842.311 804.112 842.622C805.258 842.933 806.326 843.483 807.245 844.234C812.64 848.926 811.303 861.71 808.817 867.575C808.676 867.926 806.659 871.516 805.345 873.744C806.307 872.548 807.245 871.398 808.254 870.155C810.248 867.809 812.289 865.463 814.494 862.813L817.825 859.177C818.927 857.933 820.17 856.831 821.437 855.564C824.299 852.796 827.325 850.146 830.445 847.518C828.31 845.782 820.851 839.496 818.716 835.203C816.581 830.91 815.057 824.928 817.285 820.425C817.77 819.341 818.479 818.372 819.365 817.581C820.251 816.791 821.295 816.196 822.427 815.837C823.559 815.479 824.754 815.363 825.933 815.499C827.113 815.634 828.251 816.018 829.272 816.624C835.324 820.401 835.934 833.279 834.362 839.449C834.362 839.848 832.65 844.14 831.712 846.486C833.588 844.914 835.465 843.366 837.412 841.795C843.065 837.431 848.906 833.209 854.724 828.94C856.506 827.65 858.266 826.313 860.048 824.999C859.274 824.389 850.243 817.094 847.85 812.308C845.716 808.062 844.191 802.034 846.42 797.506C846.91 796.428 847.622 795.464 848.509 794.677C849.396 793.891 850.438 793.3 851.568 792.942C852.698 792.583 853.89 792.466 855.068 792.598C856.246 792.73 857.384 793.107 858.406 793.706C864.458 797.506 865.068 810.385 863.497 816.554C863.379 817.023 861.034 823.216 860.353 824.764C864.247 821.879 868.094 818.947 871.777 815.921C876.742 811.836 881.443 807.44 885.852 802.761C885.477 802.479 876.047 794.903 873.584 790C871.449 785.731 869.901 779.725 872.153 775.198C872.644 774.119 873.355 773.155 874.242 772.369C875.129 771.583 876.171 770.991 877.301 770.633C878.431 770.275 879.624 770.158 880.802 770.29C881.979 770.421 883.117 770.799 884.14 771.398C890.192 775.198 890.778 788.053 889.23 794.246C889.113 794.645 887.33 799.383 886.438 801.612L886.79 801.823C891.102 796.98 894.98 791.768 898.378 786.247C900.278 783.221 901.944 780.242 903.492 777.286C901.569 776.066 892.936 770.249 890.239 766.167C887.541 762.085 885.547 756.362 887.189 751.623C887.556 750.495 888.156 749.457 888.95 748.577C889.745 747.697 890.716 746.993 891.8 746.513C892.885 746.033 894.058 745.787 895.244 745.79C896.43 745.793 897.602 746.046 898.683 746.533C905.111 749.653 907.128 762.367 906.26 768.677C906.26 769.029 905.322 772.454 904.665 774.964C905.345 773.626 906.049 772.242 906.682 770.952C909.028 766.097 910.881 761.569 912.5 757.394C913.391 755.048 914.142 752.937 914.846 750.943C913.602 748.761 908.723 739.918 908.254 735.062C907.785 730.206 908.536 724.154 912.242 720.753C913.085 719.917 914.095 719.268 915.207 718.85C916.318 718.432 917.505 718.254 918.69 718.327C919.875 718.4 921.032 718.723 922.083 719.274C923.135 719.826 924.058 720.593 924.792 721.527C929.085 727.251 925.003 739.449 921.32 744.656C920.992 745.102 915.197 751.576 915.127 751.459V751.318C914.494 753.265 913.79 755.329 912.993 757.558C911.468 761.687 909.708 766.355 907.456 771.281C905.088 776.625 902.41 781.826 899.434 786.857C896.135 792.503 892.336 797.842 888.08 802.808L887.916 802.996C889.699 801.893 894.789 798.984 895.212 798.82C901.053 796.287 913.86 794.879 918.552 800.251C919.308 801.164 919.863 802.227 920.182 803.369C920.5 804.511 920.574 805.708 920.399 806.881C920.224 808.054 919.804 809.176 919.167 810.176C918.529 811.176 917.688 812.03 916.699 812.684C912.57 815.616 906.401 815.029 901.85 813.598C896.736 811.98 888.08 804.215 887.4 803.535C882.947 808.494 878.167 813.149 873.091 817.469C870.159 820.002 867.109 822.465 864.036 824.905C865.608 823.99 867.015 823.193 867.227 823.122C873.091 820.589 885.993 819.181 890.684 824.553C891.439 825.468 891.993 826.532 892.309 827.675C892.626 828.818 892.698 830.015 892.521 831.188C892.344 832.361 891.922 833.484 891.282 834.483C890.642 835.482 889.799 836.334 888.808 836.986C884.679 839.918 878.51 839.332 873.959 837.901C869.408 836.47 861.855 829.925 859.884 828.189L856.366 831.356C850.642 835.742 844.895 840.082 839.406 844.539C837.459 846.111 835.605 847.706 833.752 849.231L836.52 847.682C842.385 845.172 855.287 843.742 859.978 849.137C860.733 850.052 861.287 851.116 861.603 852.259C861.92 853.402 861.992 854.599 861.815 855.772C861.638 856.945 861.215 858.067 860.576 859.066C859.936 860.065 859.093 860.918 858.101 861.569C853.996 864.478 847.804 863.915 843.276 862.461C838.749 861.006 831.876 855.142 829.553 853.078C827.7 854.767 825.824 856.479 824.111 858.215C822.962 859.411 821.765 860.561 820.686 861.781L817.426 865.487C815.432 867.833 813.368 870.39 811.491 872.806C810.154 874.471 808.934 876.09 807.691 877.708C809.591 876.137 813.414 873.134 813.743 873.017C819.162 869.639 831.594 866.308 837.06 870.906C837.944 871.7 838.65 872.671 839.134 873.756C839.618 874.841 839.868 876.016 839.868 877.204C839.868 878.392 839.618 879.567 839.134 880.652C838.65 881.737 837.944 882.708 837.06 883.502C833.447 886.998 827.255 887.373 822.54 886.622C817.355 885.825 807.972 879.702 806.799 878.952C804.759 881.626 802.788 884.277 800.982 886.786C794.672 895.513 789.746 903.019 786.368 908.321L786.039 908.86L781.676 906.749C781.887 906.397 782.122 906.069 782.357 905.693C785.875 900.415 791.012 892.956 797.581 884.276C799.645 881.532 801.92 878.647 804.266 875.691C801.833 873.036 799.569 870.231 797.487 867.293C792.467 869.264 782.028 869.357 780.668 869.357C780.456 872.735 780.269 876.019 780.152 879.116C779.682 889.883 779.729 898.844 779.823 905.13C779.823 905.388 779.823 905.623 779.823 905.858L775.014 903.512C775.014 897.272 775.249 888.851 775.882 878.881C776.093 875.433 776.398 871.844 776.727 868.02C775.413 867.692 764.529 864.9 760.447 861.616C756.365 858.332 752.8 853.828 752.941 848.785C752.93 847.59 753.173 846.407 753.653 845.313C754.133 844.22 754.84 843.24 755.727 842.44C756.614 841.64 757.66 841.037 758.798 840.671C759.935 840.305 761.136 840.184 762.324 840.317C769.361 841.232 775.343 852.656 776.516 858.919C776.516 859.294 776.891 863.399 777.032 865.956C777.172 864.431 777.29 862.93 777.454 861.264C777.782 858.145 778.181 855.025 778.603 851.694C778.861 850.075 779.143 848.457 779.401 846.815C779.659 845.172 780.081 843.484 780.41 841.818C781.277 837.924 782.333 834.054 783.482 830.089C780.761 829.808 771.073 828.658 766.921 826.266C762.769 823.873 758.195 819.721 757.538 814.724C757.349 813.553 757.408 812.355 757.713 811.208C758.018 810.061 758.561 808.991 759.307 808.068C760.053 807.145 760.985 806.39 762.042 805.851C763.099 805.313 764.258 805.003 765.443 804.942C772.481 804.778 780.175 815.17 782.286 821.175C782.427 821.551 783.436 826.054 783.952 828.518C784.655 826.172 785.359 823.826 786.157 821.48C788.502 814.724 791.012 807.945 793.499 801.189C794.273 799.125 795.024 797.037 795.845 794.973C794.86 794.973 783.318 793.777 778.674 791.102C774.545 788.757 769.947 784.558 769.291 779.561C769.101 778.39 769.161 777.192 769.465 776.045C769.77 774.898 770.313 773.828 771.059 772.905C771.805 771.982 772.737 771.227 773.794 770.688C774.852 770.15 776.011 769.84 777.196 769.779C784.233 769.592 791.927 780.007 794.038 786.012C794.203 786.481 795.657 792.932 795.939 794.598C797.604 790.047 799.199 785.473 800.63 780.922C802.556 774.775 804.069 768.505 805.157 762.156C804.712 762.156 792.654 761.006 787.893 758.262C783.764 755.916 779.166 751.717 778.509 746.72C778.32 745.549 778.38 744.351 778.684 743.204C778.989 742.057 779.532 740.987 780.278 740.064C781.024 739.141 781.956 738.386 783.013 737.847C784.071 737.309 785.23 736.999 786.415 736.939C793.569 736.774 801.17 747.166 803.257 753.171C803.398 753.57 804.524 758.496 804.993 760.842H805.415C806.345 754.428 806.706 747.944 806.494 741.466C806.494 737.9 806.143 734.429 805.814 731.168C803.468 731.168 793.194 731.168 788.62 729.221C784.045 727.274 779.237 723.662 778.064 718.759C777.749 717.616 777.678 716.42 777.855 715.249C778.033 714.077 778.455 712.955 779.094 711.958C779.734 710.96 780.576 710.108 781.567 709.457C782.557 708.806 783.673 708.371 784.843 708.179C791.88 707.218 800.607 716.718 803.375 722.465C803.515 722.77 804.688 726.125 805.509 728.588C805.322 727.086 805.181 725.538 804.97 724.131C804.243 718.759 803.257 713.903 802.342 709.61C801.803 707.265 801.263 704.919 800.747 702.948C798.402 701.799 789.558 697.107 786.485 693.331C783.412 689.554 780.714 683.948 781.911 679.256C782.174 678.138 782.662 677.085 783.345 676.162C784.028 675.238 784.891 674.463 785.883 673.884C786.875 673.304 787.974 672.933 789.114 672.792C790.254 672.651 791.411 672.743 792.514 673.063Z" fill="white"/>
<path d="M921.625 783.15C916.042 782.916 904.876 777.192 904.876 777.192C904.876 777.192 910.881 770.976 911.303 770.647C916.3 766.66 928.263 761.921 934.222 765.956C935.188 766.643 936 767.525 936.605 768.546C937.21 769.566 937.594 770.702 937.734 771.88C937.873 773.057 937.764 774.251 937.413 775.385C937.063 776.518 936.479 777.565 935.699 778.459C932.486 782.259 926.387 783.338 921.625 783.15Z" fill="white"/>
</g>
<path d="M856.366 922.841C856.366 922.841 822.493 841.208 803.539 844.75C784.585 848.292 836.051 974.894 836.051 974.894C836.051 974.894 776.61 862.555 735.934 862.555C695.258 862.555 750.829 986.881 802.272 1028.19C802.272 1028.19 721.015 940.645 673.63 959.576C626.246 978.506 768.423 1067.22 768.423 1067.22C768.423 1067.22 685.805 1041.21 695.305 1061.31C704.805 1081.42 730.492 1084.98 730.492 1084.98L637.036 1089.67H962.09L888.949 1082.63C888.949 1082.63 964.787 1044.77 944.473 1029.39C924.159 1014 879.472 1047.17 879.472 1047.17C879.472 1047.17 956.671 961.968 941.775 930.042C926.88 898.117 860.518 988.006 860.518 988.006C860.518 988.006 914.682 873.251 903.844 853.125C893.007 832.998 856.366 922.841 856.366 922.841Z" fill="#5C5C5C"/>
<path opacity="0.4" d="M856.366 922.841C856.366 922.841 822.493 841.208 803.539 844.75C784.585 848.292 836.051 974.894 836.051 974.894C836.051 974.894 776.61 862.555 735.934 862.555C695.258 862.555 750.829 986.881 802.272 1028.19C802.272 1028.19 721.015 940.645 673.63 959.576C626.246 978.506 768.423 1067.22 768.423 1067.22C768.423 1067.22 685.805 1041.21 695.305 1061.31C704.805 1081.42 730.492 1084.98 730.492 1084.98L637.036 1089.67H962.09L888.949 1082.63C888.949 1082.63 964.787 1044.77 944.473 1029.39C924.159 1014 879.472 1047.17 879.472 1047.17C879.472 1047.17 956.671 961.968 941.775 930.042C926.88 898.117 860.518 988.006 860.518 988.006C860.518 988.006 914.682 873.251 903.844 853.125C893.007 832.998 856.366 922.841 856.366 922.841Z" fill="white"/>
<path d="M867.297 927.204C837.6 1015.22 837.6 1077.52 837.6 1077.52C837.6 1077.52 872.786 1078.88 909.357 1051.72" stroke="#263238" stroke-linecap="round" stroke-linejoin="round"/>
<path d="M852.402 974.589C846.256 948.27 838.1 922.461 828.006 897.389" stroke="#263238" stroke-linecap="round" stroke-linejoin="round"/>
<path d="M764.364 923.123L840.203 1035.44C840.203 1035.44 891.669 992.112 909.263 967.739" stroke="#263238" stroke-linecap="round" stroke-linejoin="round"/>
<path d="M838.843 1062.63C838.843 1062.63 758.946 1024.69 726.434 1003.04" stroke="#263238" stroke-linecap="round" stroke-linejoin="round"/>
<path d="M68.2425 1083.11C68.2425 1083.11 67.3982 1086.9 57.7528 1091.93C48.1074 1096.95 37.2047 1104.09 42.6471 1107.01C48.0895 1109.94 67.3983 1103.24 72.8586 1098.21C78.3189 1093.18 84.5876 1090.24 84.5876 1086.05C84.5876 1081.87 79.5583 1079.33 75.3732 1079.33C73.9437 1079.18 72.4998 1079.45 71.2285 1080.12C69.9572 1080.8 68.917 1081.84 68.2425 1083.11Z" fill="#263238" stroke="#263238" stroke-linecap="round" stroke-linejoin="round"/>
<path d="M76.6317 1062.99C74.1171 1070.53 67.3994 1074.72 67.3994 1076.82C67.5329 1078.93 67.815 1081.03 68.2436 1083.11C71.2559 1084.83 74.5057 1086.11 77.889 1086.9C82.5052 1087.72 84.5887 1086.05 84.5887 1086.05C84.5887 1086.05 89.6359 1082.28 90.8933 1081.02C92.1506 1079.77 95.5094 1077.66 95.0783 1073.46C94.6472 1069.26 92.9768 1067.59 94.6652 1063.82C96.3536 1060.04 131.99 1002.17 131.99 1002.17L102.64 990.837C102.64 990.837 79.1463 1055.43 76.6317 1062.99Z" fill="#263238" stroke="#263238" stroke-linecap="round" stroke-linejoin="round"/>
<path d="M217.126 1089.82C217.126 1089.82 243.548 1101.98 243.979 1104.93C244.41 1107.88 225.514 1108.27 217.126 1107.44C208.738 1106.62 203.296 1099.47 203.296 1099.47C203.296 1099.47 206.224 1088.57 217.126 1089.82Z" fill="#263238" stroke="#263238" stroke-linecap="round" stroke-linejoin="round"/>
<path d="M178.545 991.681C178.545 991.681 189.448 1059.63 193.651 1072.63C197.854 1085.64 192.375 1084.36 194.477 1088.15C197.138 1092.13 200.086 1095.92 203.296 1099.47C203.296 1099.47 210.84 1092.75 214.199 1092.28C217.558 1091.82 220.072 1091.44 220.072 1091.44C220.072 1091.44 218.384 1083.05 217.127 1081.38C215.869 1079.71 215.025 1073.84 213.768 1069.22C212.51 1064.61 210.427 988.269 210.427 988.269C210.427 988.269 187.346 992.525 178.545 991.681Z" fill="#263238" stroke="#263238" stroke-linecap="round" stroke-linejoin="round"/>
<path d="M134.504 706.899C128.751 710.995 123.284 715.478 118.141 720.317C108.082 729.549 91.3059 742.966 90.4617 745.912C89.6175 748.858 101.796 803.785 106.412 821.351C111.028 838.918 112.285 919.907 106.412 947.586C102.614 965.03 97.4247 982.143 90.8928 998.758C103.814 1007.62 119.266 1012.03 134.917 1011.33C160.925 1010.06 172.636 1002.94 185.676 1004.15C198.717 1005.35 213.355 1004.97 220.073 996.172C226.791 987.371 233.903 984.012 238.035 978.551C240.573 975.142 242.031 971.051 242.22 966.804C242.22 966.804 238.448 952.543 224.599 907.675C210.751 862.807 210.769 802.815 208.254 790.241C205.74 777.668 199.866 739.5 193.993 729.01C188.119 718.521 164.32 710.671 152.537 708.588C140.754 706.504 138.707 704.798 134.504 706.899Z" fill="#5C5C5C"/>
<mask id="mask0_141_1336" style="mask-type:luminance" maskUnits="userSpaceOnUse" x="90" y="705" width="153" height="307">
<path d="M134.505 706.899C128.752 710.995 123.285 715.478 118.142 720.316C108.083 729.549 91.3069 742.966 90.4627 745.912C89.6185 748.858 101.796 803.784 106.413 821.351C111.029 838.917 112.286 919.906 106.413 947.585C102.615 965.03 97.4257 982.142 90.8938 998.758C103.815 1007.62 119.267 1012.03 134.918 1011.33C160.926 1010.06 172.637 1002.94 185.677 1004.15C198.718 1005.35 213.356 1004.97 220.074 996.172C226.792 987.37 233.904 984.011 238.036 978.551C240.574 975.142 242.032 971.05 242.221 966.804C242.221 966.804 238.449 952.543 224.6 907.674C210.752 862.806 210.77 802.814 208.255 790.241C205.741 777.668 199.867 739.5 193.994 729.01C188.12 718.52 164.321 710.671 152.538 708.588C140.755 706.504 138.708 704.798 134.505 706.899Z" fill="white"/>
</mask>
<g mask="url(#mask0_141_1336)">
<path opacity="0.15" d="M101.347 704.385H94.9883V1020.62H101.347V704.385Z" fill="black"/>
<path opacity="0.15" d="M123.224 704.385H116.865V1020.62H123.224V704.385Z" fill="black"/>
<path opacity="0.15" d="M145.118 704.385H138.76V1020.62H145.118V704.385Z" fill="black"/>
<path opacity="0.15" d="M167.014 704.385H160.655V1020.62H167.014V704.385Z" fill="black"/>
<path opacity="0.15" d="M188.891 704.385H182.532V1020.62H188.891V704.385Z" fill="black"/>
<path opacity="0.15" d="M210.786 704.385H204.428V1020.62H210.786V704.385Z" fill="black"/>
<path opacity="0.15" d="M232.681 704.385H226.322V1020.62H232.681V704.385Z" fill="black"/>
<path d="M82.1094 711.533C137.018 711.929 190.706 711.929 245.686 711.749" stroke="white" stroke-miterlimit="10"/>
<path d="M82.1094 715.054C137.018 715.287 190.706 715.287 245.686 715.18" stroke="white" stroke-miterlimit="10"/>
<path d="M82.1094 729.837C137.018 730.34 190.706 730.34 245.686 730.106" stroke="white" stroke-miterlimit="10"/>
<path d="M82.1094 733.429C137.018 733.77 190.706 733.77 245.686 733.627" stroke="white" stroke-miterlimit="10"/>
<path d="M82.1094 748.247C137.018 748.84 190.706 748.84 245.686 748.589" stroke="white" stroke-miterlimit="10"/>
<path d="M82.1094 751.768C137.018 752.199 190.706 752.199 245.686 752.019" stroke="white" stroke-miterlimit="10"/>
<path d="M82.1094 766.604C137.018 767.305 190.706 767.305 245.686 766.999" stroke="white" stroke-miterlimit="10"/>
<path d="M82.1094 770.142C137.018 770.645 190.706 770.645 245.686 770.43" stroke="white" stroke-miterlimit="10"/>
<path d="M82.1094 784.961C137.018 785.751 190.706 785.751 245.686 785.41" stroke="white" stroke-miterlimit="10"/>
<path d="M82.1094 788.499C137.018 789.11 190.706 789.11 245.686 788.841" stroke="white" stroke-miterlimit="10"/>
<path d="M82.1094 803.317C135.348 802.527 190.706 802.527 244.537 802.868" stroke="white" stroke-miterlimit="10"/>
<path d="M82.1094 806.856C137.018 807.556 190.706 807.556 245.686 807.251" stroke="white" stroke-miterlimit="10"/>
<path d="M82.1094 821.674C137.018 820.974 190.706 820.974 245.686 821.297" stroke="white" stroke-miterlimit="10"/>
<path d="M82.1094 825.213C137.018 826.021 190.706 826.021 245.686 825.662" stroke="white" stroke-miterlimit="10"/>
<path d="M82.1094 840.031C137.018 839.438 190.706 839.438 245.686 839.708" stroke="white" stroke-miterlimit="10"/>
<path d="M82.1094 843.57C137.018 842.797 190.706 842.797 245.686 843.139" stroke="white" stroke-miterlimit="10"/>
<path d="M82.1094 858.406C137.018 857.885 190.706 857.885 245.686 858.119" stroke="white" stroke-miterlimit="10"/>
<path d="M82.1094 861.926C137.018 861.244 190.706 861.244 245.686 861.549" stroke="white" stroke-miterlimit="10"/>
<path d="M82.1094 876.763C137.018 876.35 190.706 876.35 245.686 876.529" stroke="white" stroke-miterlimit="10"/>
<path d="M82.1094 880.283C137.018 879.708 190.706 879.708 245.686 879.96" stroke="white" stroke-miterlimit="10"/>
<path d="M82.1094 895.084C137.018 894.76 190.706 894.76 245.686 894.904" stroke="white" stroke-miterlimit="10"/>
<path d="M82.1094 898.676C137.018 898.191 190.706 898.191 245.686 898.407" stroke="white" stroke-miterlimit="10"/>
<path d="M82.1094 913.476C137.018 913.261 190.706 913.261 245.686 913.35" stroke="white" stroke-miterlimit="10"/>
<path d="M82.1094 916.997C137.018 916.602 190.706 916.602 245.686 916.781" stroke="white" stroke-miterlimit="10"/>
<path d="M82.1094 931.833C137.018 931.708 190.706 931.708 245.686 931.833" stroke="white" stroke-miterlimit="10"/>
<path d="M82.1094 935.371C137.018 935.066 190.706 935.066 245.686 935.192" stroke="white" stroke-miterlimit="10"/>
<path d="M82.1094 950.19C137.018 950.19 190.706 950.19 245.686 950.19" stroke="white" stroke-miterlimit="10"/>
<path d="M82.1094 953.729C137.018 953.513 190.706 953.513 245.686 953.603" stroke="white" stroke-miterlimit="10"/>
<path d="M82.1094 968.547C137.018 968.547 190.706 968.547 245.686 968.547" stroke="white" stroke-miterlimit="10"/>
<path d="M82.1094 972.085C137.018 971.977 190.706 971.977 245.686 972.085" stroke="white" stroke-miterlimit="10"/>
<path d="M82.1094 986.903C137.018 987.065 190.706 987.065 245.686 986.993" stroke="white" stroke-miterlimit="10"/>
<path d="M82.1094 990.442H245.686" stroke="white" stroke-miterlimit="10"/>
<path d="M82.1094 1005.26C137.018 1005.53 190.706 1005.53 245.686 1005.4" stroke="white" stroke-miterlimit="10"/>
<path d="M82.1094 1008.8C137.018 1008.8 190.706 1008.8 245.686 1008.8" stroke="white" stroke-miterlimit="10"/>
<path opacity="0.3" d="M145.962 814.256L147.093 820.956C147.093 820.956 124.156 821.531 119.127 821.531H111.296L113.541 855.083C113.541 855.083 116.325 879.116 119.127 912.111C121.929 945.107 111.942 992.077 111.942 997.681C111.942 1003.28 106.356 1009.43 119.773 1012.21C133.191 1015 151.099 1014.46 153.901 1007.18C156.703 999.908 167.893 940.635 165.647 953.495C163.402 966.356 152.23 1011.1 160.061 1013.33C167.893 1015.55 188.585 1007.18 202.002 1007.74C215.419 1008.3 227.148 1003.82 228.28 998.238C229.411 992.652 221.562 941.191 221.562 941.191L238.338 987.604C238.338 987.604 240.584 990.406 229.357 1003.77C218.131 1017.13 167.857 1021.73 141.004 1021.73C114.151 1021.73 81.1738 1002.17 81.1738 1002.17C81.1738 1002.17 110.254 954.07 104.65 913.818C99.0457 873.566 99.6205 802.456 99.6205 802.456C99.6205 802.456 114.726 806.928 125.342 806.928C135.957 806.928 145.962 814.256 145.962 814.256Z" fill="black"/>
<path opacity="0.3" d="M170.336 748.05L182.909 824.638C182.909 824.638 195.949 823.237 200.871 818.998C205.792 814.759 207.912 802.078 207.912 802.078L193.057 742.517L170.336 748.05Z" fill="black"/>
</g>
<path d="M134.504 706.899C128.751 710.995 123.284 715.478 118.141 720.317C108.082 729.549 91.3059 742.966 90.4617 745.912C89.6175 748.858 101.796 803.785 106.412 821.351C111.028 838.918 112.285 919.907 106.412 947.586C102.614 965.03 97.4247 982.143 90.8928 998.758C103.814 1007.62 119.266 1012.03 134.917 1011.33C160.925 1010.06 172.636 1002.94 185.676 1004.15C198.717 1005.35 213.355 1004.97 220.073 996.172C226.791 987.371 233.903 984.012 238.035 978.551C240.573 975.142 242.031 971.051 242.22 966.804C242.22 966.804 238.448 952.543 224.599 907.675C210.751 862.807 210.769 802.815 208.254 790.241C205.74 777.668 199.866 739.5 193.993 729.01C188.119 718.521 164.32 710.671 152.537 708.588C140.754 706.504 138.707 704.798 134.504 706.899Z" stroke="#263238" stroke-linecap="round" stroke-linejoin="round"/>
<path d="M136.569 753.725L160.332 787.188L174.27 744.852C174.27 744.852 173.3 726.603 166.223 720.209C159.146 713.814 151.243 704.367 139.425 712.701C127.606 721.035 129.779 731.992 130.318 737.847C130.857 743.703 136.569 753.725 136.569 753.725Z" fill="white" stroke="#263238" stroke-miterlimit="10"/>
<path d="M145.316 740.559L152.286 748.606L150.687 773.267L160.332 787.188L166.763 769.513L158.177 748.606L159.255 735.746L150.687 728.238L145.316 740.559Z" fill="#263238" stroke="#263238" stroke-miterlimit="10"/>
<path d="M151.621 737.524L136.569 753.689C136.569 753.689 128.756 729.387 127.589 720.999C126.421 712.611 129.026 710.869 133.372 708.264C137.719 705.66 144.544 706.773 149.861 707.977C155.178 709.18 157.98 711.443 159.129 713.76C160.279 716.078 172.726 746.469 172.726 746.469L151.621 737.524Z" fill="white" stroke="#263238" stroke-miterlimit="10"/>
<path d="M160.439 781.925C170.336 832.523 182.335 919.116 171.127 1004.4" stroke="#263238" stroke-miterlimit="10"/>
<path d="M169.098 803.389C170.477 803.389 171.595 802.271 171.595 800.892C171.595 799.514 170.477 798.396 169.098 798.396C167.719 798.396 166.602 799.514 166.602 800.892C166.602 802.271 167.719 803.389 169.098 803.389Z" fill="#263238"/>
<path d="M176.264 859.95C177.643 859.95 178.761 858.833 178.761 857.454C178.761 856.075 177.643 854.957 176.264 854.957C174.885 854.957 173.768 856.075 173.768 857.454C173.768 858.833 174.885 859.95 176.264 859.95Z" fill="#263238"/>
<path d="M125.899 695.44C125.899 695.44 130.371 704.834 130.803 710.599C131.234 716.365 145.333 737.29 150.237 737.29C155.141 737.29 154.943 721.484 154.296 714.443C153.65 707.402 155.572 703.54 156.218 702.696C156.865 701.852 147.237 699.283 141.274 694.793C135.311 690.303 130.371 689.656 128.018 690.518C125.665 691.38 125.899 695.44 125.899 695.44Z" fill="white"/>
<mask id="mask1_141_1336" style="mask-type:luminance" maskUnits="userSpaceOnUse" x="125" y="690" width="32" height="48">
<path d="M125.9 695.44C125.9 695.44 130.372 704.834 130.803 710.6C131.235 716.365 145.334 737.291 150.238 737.291C155.142 737.291 154.944 721.484 154.297 714.443C153.651 707.402 155.573 703.541 156.219 702.696C156.866 701.852 147.238 699.284 141.275 694.793C135.312 690.303 130.372 689.656 128.019 690.518C125.666 691.381 125.9 695.44 125.9 695.44Z" fill="white"/>
</mask>
<g mask="url(#mask1_141_1336)">
<path d="M141.275 694.793C135.294 690.303 130.372 689.656 128.019 690.518C125.666 691.381 125.9 695.44 125.9 695.44C125.9 695.44 130.372 704.834 130.803 710.6C130.796 710.665 130.796 710.731 130.803 710.797C134.819 712.229 139.014 713.094 143.269 713.366C146.923 713.682 150.604 713.409 154.172 712.557C153.992 706.72 155.609 703.469 156.183 702.696C156.758 701.924 147.256 699.302 141.275 694.793Z" fill="#5C5C5C"/>
<path opacity="0.5" d="M141.275 694.793C135.294 690.303 130.372 689.656 128.019 690.518C125.666 691.381 125.9 695.44 125.9 695.44C125.9 695.44 130.372 704.834 130.803 710.6C130.796 710.665 130.796 710.731 130.803 710.797C134.819 712.229 139.014 713.094 143.269 713.366C146.923 713.682 150.604 713.409 154.172 712.557C153.992 706.72 155.609 703.469 156.183 702.696C156.758 701.924 147.256 699.302 141.275 694.793Z" fill="white"/>
</g>
<path d="M125.899 695.44C125.899 695.44 130.371 704.834 130.803 710.599C131.234 716.365 145.333 737.29 150.237 737.29C155.141 737.29 154.943 721.484 154.296 714.443C153.65 707.402 155.572 703.54 156.218 702.696C156.865 701.852 147.237 699.283 141.274 694.793C135.311 690.303 130.371 689.656 128.018 690.518C125.665 691.38 125.899 695.44 125.899 695.44Z" stroke="#263238" stroke-linecap="round" stroke-linejoin="round"/>
<path d="M116.076 689.656C116.076 689.656 123.117 696.93 126.96 697.774C130.804 698.618 133.588 695.637 132.08 692.655C130.571 689.674 131.451 685.183 135.923 685.812C140.396 686.44 144.042 682.615 142.551 677.496C141.06 672.377 138.707 667.455 133.157 668.515C127.607 669.574 110.723 680.046 116.076 689.656Z" fill="#263238" stroke="#263238" stroke-linecap="round" stroke-linejoin="round"/>
<path d="M162.631 661.259C162.631 661.259 166.044 668.731 169.241 671.73C172.438 674.73 175.222 674.065 174.162 676.418C173.103 678.771 168.397 681.807 168.397 681.807C168.397 681.807 168.828 692.476 168.397 697.595C167.966 702.714 168.397 704.223 163.691 705.085C157.231 705.906 150.668 705.155 144.562 702.894C140.424 701.562 136.925 698.747 134.736 694.991C132.722 695.06 130.708 694.843 128.755 694.344C124.696 693.5 121.283 684.95 123.636 681.771C124.656 680.472 126.149 679.63 127.788 679.428C129.427 679.226 131.079 679.681 132.384 680.693C133.892 682.489 135.599 684.106 136.874 684.106C138.149 684.106 140.718 683.046 139.227 680.262C137.736 677.478 136.012 675.143 138.365 673.221C140.718 671.299 158.787 661.043 162.631 661.259Z" fill="white"/>
<mask id="mask2_141_1336" style="mask-type:luminance" maskUnits="userSpaceOnUse" x="122" y="661" width="53" height="45">
<path d="M162.632 661.259C162.632 661.259 166.045 668.731 169.242 671.731C172.439 674.73 175.223 674.066 174.163 676.419C173.104 678.772 168.398 681.807 168.398 681.807C168.398 681.807 168.829 692.476 168.398 697.595C167.967 702.714 168.398 704.223 163.692 705.085C157.232 705.907 150.669 705.155 144.562 702.894C140.425 701.562 136.926 698.747 134.737 694.991C132.723 695.061 130.709 694.843 128.756 694.344C124.697 693.5 121.284 684.95 123.637 681.771C124.657 680.472 126.15 679.63 127.789 679.428C129.428 679.226 131.08 679.681 132.384 680.693C133.893 682.49 135.6 684.106 136.875 684.106C138.15 684.106 140.719 683.046 139.228 680.262C137.737 677.478 136.013 675.143 138.366 673.221C140.719 671.3 158.788 661.043 162.632 661.259Z" fill="white"/>
</mask>
<g mask="url(#mask2_141_1336)">
<path d="M162.63 661.259C158.786 661.043 140.627 671.3 138.274 673.221C135.921 675.143 137.645 677.496 139.136 680.262C140.627 683.028 138.058 684.106 136.783 684.106C135.508 684.106 133.801 682.4 132.293 680.693C130.988 679.681 129.336 679.226 127.697 679.428C126.058 679.63 124.565 680.472 123.545 681.771C121.192 684.968 124.605 693.518 128.664 694.344C129.131 694.452 129.58 694.524 129.994 694.596C141.23 684.571 153.715 676.04 167.138 669.216C165.43 666.685 163.923 664.025 162.63 661.259Z" fill="#5C5C5C"/>
<path opacity="0.5" d="M162.63 661.259C158.786 661.043 140.627 671.3 138.274 673.221C135.921 675.143 137.645 677.496 139.136 680.262C140.627 683.028 138.058 684.106 136.783 684.106C135.508 684.106 133.801 682.4 132.293 680.693C130.988 679.681 129.336 679.226 127.697 679.428C126.058 679.63 124.565 680.472 123.545 681.771C121.192 684.968 124.605 693.518 128.664 694.344C129.131 694.452 129.58 694.524 129.994 694.596C141.23 684.571 153.715 676.04 167.138 669.216C165.43 666.685 163.923 664.025 162.63 661.259Z" fill="white"/>
</g>
<path d="M162.631 661.259C162.631 661.259 166.044 668.731 169.241 671.73C172.438 674.73 175.222 674.065 174.162 676.418C173.103 678.771 168.397 681.807 168.397 681.807C168.397 681.807 168.828 692.476 168.397 697.595C167.966 702.714 168.397 704.223 163.691 705.085C157.231 705.906 150.668 705.155 144.562 702.894C140.424 701.562 136.925 698.747 134.736 694.991C132.722 695.06 130.708 694.843 128.755 694.344C124.696 693.5 121.283 684.95 123.636 681.771C124.656 680.472 126.149 679.63 127.788 679.428C129.427 679.226 131.079 679.681 132.384 680.693C133.892 682.489 135.599 684.106 136.874 684.106C138.149 684.106 140.718 683.046 139.227 680.262C137.736 677.478 136.012 675.143 138.365 673.221C140.718 671.299 158.787 661.043 162.631 661.259Z" stroke="#263238" stroke-linecap="round" stroke-linejoin="round"/>
<path d="M168.398 681.771C166.474 682.155 164.647 682.918 163.021 684.016C161.396 685.113 160.006 686.524 158.932 688.165C155.555 693.554 158.932 694.47 161.033 693.194C163.135 691.919 166.907 689.009 169.008 687.806C171.11 686.603 171.631 681.34 168.398 681.771Z" fill="#263238" stroke="#263238" stroke-linecap="round" stroke-linejoin="round"/>
<path d="M159.492 675.55C160.15 675.3 160.211 673.856 159.629 672.327C159.046 670.797 158.04 669.761 157.382 670.011C156.724 670.262 156.663 671.705 157.245 673.235C157.828 674.764 158.834 675.801 159.492 675.55Z" fill="#263238"/>
<path d="M152.088 668.497C153.225 667.719 154.536 667.234 155.906 667.087C157.276 666.94 158.661 667.134 159.937 667.653" stroke="#263238" stroke-linecap="round" stroke-linejoin="round"/>
<path d="M108.639 705.678C113.015 696.84 118.789 688.767 125.738 681.771C137.485 669.808 181.42 657.415 183.826 654.002C186.233 650.589 163.53 656.14 163.53 656.14C163.53 656.14 150.292 640.118 131.073 639.04C111.854 637.962 106.304 658.906 106.088 669.377C105.873 679.849 111.207 692.009 111.207 692.009C111.207 692.009 105.172 707.384 108.639 705.678Z" fill="#5C5C5C"/>
<mask id="mask3_141_1336" style="mask-type:luminance" maskUnits="userSpaceOnUse" x="106" y="639" width="79" height="67">
<path d="M108.64 705.678C113.016 696.84 118.79 688.767 125.739 681.771C137.486 669.808 181.421 657.415 183.827 654.002C186.234 650.589 163.531 656.14 163.531 656.14C163.531 656.14 150.293 640.118 131.074 639.04C111.855 637.962 106.305 658.906 106.089 669.377C105.874 679.849 111.208 692.009 111.208 692.009C111.208 692.009 105.173 707.384 108.64 705.678Z" fill="white"/>
</mask>
<g mask="url(#mask3_141_1336)">
<path opacity="0.15" d="M123.224 631.406H116.865V720.316H123.224V631.406Z" fill="black"/>
<path opacity="0.15" d="M145.119 631.406H138.761V720.316H145.119V631.406Z" fill="black"/>
<path opacity="0.15" d="M167.015 631.406H160.656V720.316H167.015V631.406Z" fill="black"/>
<path opacity="0.15" d="M188.892 631.406H182.533V720.316H188.892V631.406Z" fill="black"/>
<path d="M96.4424 644.715C129.276 644.715 162.11 644.62 194.944 644.428" stroke="white" stroke-miterlimit="10"/>
<path d="M96.4424 648.128C129.276 648.128 162.11 648.068 194.944 647.948" stroke="white" stroke-miterlimit="10"/>
<path d="M96.4424 663.144C129.276 663.144 162.11 663.024 194.944 662.785" stroke="white" stroke-miterlimit="10"/>
<path d="M96.4424 666.557C129.276 666.557 162.11 666.473 194.944 666.305" stroke="white" stroke-miterlimit="10"/>
<path d="M96.4424 681.573C129.276 681.573 162.11 681.429 194.944 681.142" stroke="white" stroke-miterlimit="10"/>
<path d="M96.4424 684.932C129.276 684.932 162.11 684.83 194.944 684.626" stroke="white" stroke-miterlimit="10"/>
<path d="M96.4424 700.002C129.276 700.002 162.11 699.834 194.944 699.499" stroke="white" stroke-miterlimit="10"/>
<path d="M96.4424 703.396C129.276 703.396 162.11 703.271 194.944 703.019" stroke="white" stroke-miterlimit="10"/>
</g>
<path d="M108.639 705.678C113.015 696.84 118.789 688.767 125.738 681.771C137.485 669.808 181.42 657.415 183.826 654.002C186.233 650.589 163.53 656.14 163.53 656.14C163.53 656.14 150.292 640.118 131.073 639.04C111.854 637.962 106.304 658.906 106.088 669.377C105.873 679.849 111.207 692.009 111.207 692.009C111.207 692.009 105.172 707.384 108.639 705.678Z" stroke="#263238" stroke-linecap="round" stroke-linejoin="round"/>
<path d="M111.154 692.009C111.154 692.009 105.173 707.384 108.585 705.678C112.961 696.84 118.735 688.767 125.685 681.771C137.432 669.808 181.366 657.415 183.773 654.002C186.18 650.589 163.476 656.139 163.476 656.139C163.476 656.139 148.317 664.043 135.725 672.305C127.055 678.251 118.841 684.837 111.154 692.009Z" fill="#5C5C5C" stroke="#263238" stroke-linecap="round" stroke-linejoin="round"/>
<path d="M116.703 643.746C116.703 643.746 116.919 664.456 132.294 674.927" stroke="#263238" stroke-linecap="round" stroke-linejoin="round"/>
<path d="M111.656 842.994L118.194 844.79C118.194 844.79 129.492 836.905 130.768 836.672C132.043 836.438 142.73 842.545 146.125 845.257C149.52 847.97 153.794 850.897 152.663 851.795C151.531 852.694 149.071 851.562 147.472 850.664C145.873 849.766 136.192 845.024 136.192 845.024C136.192 845.024 143.377 849.766 145.891 851.795C148.406 853.825 151.98 854.957 151.082 856.088C150.869 856.44 150.586 856.744 150.25 856.982C149.915 857.22 149.534 857.386 149.131 857.47C148.728 857.554 148.313 857.555 147.91 857.472C147.507 857.388 147.126 857.223 146.789 856.986C144.544 855.855 133.031 849.317 133.031 849.317C133.031 849.317 142.73 855.855 144.544 857.435C146.358 859.016 146.34 861.279 144.311 861.279C142.281 861.279 136.641 858.334 134.611 857.22C132.582 856.106 126.708 853.143 126.708 853.143C129.232 855.917 131.566 858.857 133.695 861.944C135.06 864.44 137.09 867.602 134.827 867.602C132.564 867.602 129.438 862.411 127.84 860.597C126.241 858.783 120.386 856.753 120.386 856.753C117.647 858.046 114.773 859.034 111.818 859.699C107.974 860.363 100.305 852.245 100.305 852.245L111.656 842.994Z" fill="white" stroke="#263238" stroke-linecap="round" stroke-linejoin="round"/>
<path d="M118.193 844.863L112.607 851.58" stroke="#263238" stroke-linecap="round" stroke-linejoin="round"/>
<path d="M133.102 849.389L129.492 847.234" stroke="#263238" stroke-linecap="round" stroke-linejoin="round"/>
<path d="M136.263 845.096L132.204 842.869" stroke="#263238" stroke-linecap="round" stroke-linejoin="round"/>
<path d="M60.2678 768.13C60.2678 768.13 33.4331 790.367 33.002 792.037C32.571 793.708 100.951 857.058 100.951 857.058L113.524 843.21L76.1998 793.295L104.723 775.333C104.723 775.333 107.238 761.502 103.052 753.527C101.757 751.164 99.9607 749.113 97.7887 747.518C95.6166 745.923 93.1218 744.823 90.4793 744.295L60.2678 768.13Z" fill="#5C5C5C"/>
<mask id="mask4_141_1336" style="mask-type:luminance" maskUnits="userSpaceOnUse" x="33" y="744" width="81" height="114">
<path d="M60.2678 768.13C60.2678 768.13 33.4331 790.367 33.002 792.037C32.571 793.708 100.951 857.058 100.951 857.058L113.524 843.21L76.1998 793.295L104.723 775.333C104.723 775.333 107.238 761.502 103.052 753.527C101.757 751.164 99.9607 749.113 97.7887 747.518C95.6166 745.923 93.1218 744.823 90.4793 744.295L60.2678 768.13Z" fill="white"/>
</mask>
<g mask="url(#mask4_141_1336)">
<path opacity="0.15" d="M35.6778 735.422H29.3193V870.476H35.6778V735.422Z" fill="black"/>
<path opacity="0.15" d="M57.5547 735.422H51.1963V870.476H57.5547V735.422Z" fill="black"/>
<path opacity="0.15" d="M79.4502 735.422H73.0918V870.476H79.4502V735.422Z" fill="black"/>
<path opacity="0.15" d="M101.345 735.422H94.9863V870.476H101.345V735.422Z" fill="black"/>
<path d="M15.3633 748.624C64.8836 748.84 115.212 748.84 164.714 748.247" stroke="white" stroke-miterlimit="10"/>
<path d="M15.3633 752.037C64.8836 752.198 115.212 752.198 164.714 751.767" stroke="white" stroke-miterlimit="10"/>
<path d="M15.3633 767.035C64.8836 767.304 115.212 767.304 164.714 766.604" stroke="white" stroke-miterlimit="10"/>
<path d="M15.3633 770.465C64.8836 770.645 115.212 770.645 164.714 770.142" stroke="white" stroke-miterlimit="10"/>
<path d="M15.3633 785.518C64.8836 785.805 115.212 785.805 164.714 785.015" stroke="white" stroke-miterlimit="10"/>
<path d="M15.3633 788.876C64.8836 789.11 115.212 789.11 164.714 788.499" stroke="white" stroke-miterlimit="10"/>
<path opacity="0.3" d="M46.4365 774.004C46.4365 774.004 59.8539 782.392 65.4399 784.637C71.026 786.883 82.2161 791.912 82.2161 791.912L95.0767 785.194L64.8831 760.587L46.4365 774.004Z" fill="black"/>
<path d="M15.3633 802.833C64.8836 802.527 115.212 802.527 164.714 803.317" stroke="white" stroke-miterlimit="10"/>
<path d="M15.3633 807.305C64.8836 807.556 115.212 807.556 164.714 806.856" stroke="white" stroke-miterlimit="10"/>
<path d="M15.3633 821.243C64.8836 820.974 115.212 820.974 164.714 821.674" stroke="white" stroke-miterlimit="10"/>
<path d="M15.3633 825.716C64.8836 826.021 115.212 826.021 164.714 825.213" stroke="white" stroke-miterlimit="10"/>
<path d="M15.3633 839.654C64.8836 839.438 115.212 839.438 164.714 840.031" stroke="white" stroke-miterlimit="10"/>
<path d="M15.3633 843.084C64.8836 842.797 115.212 842.797 164.714 843.569" stroke="white" stroke-miterlimit="10"/>
</g>
<path d="M60.2678 768.13C60.2678 768.13 33.4331 790.367 33.002 792.037C32.571 793.708 100.951 857.058 100.951 857.058L113.524 843.21L76.1998 793.295L104.723 775.333C104.723 775.333 107.238 761.502 103.052 753.527C101.757 751.164 99.9607 749.113 97.7887 747.518C95.6166 745.923 93.1218 744.823 90.4793 744.295L60.2678 768.13Z" stroke="#263238" stroke-linecap="round" stroke-linejoin="round"/>
<path d="M247.752 767.232C247.752 767.232 221.582 752.324 210.733 741.727C199.884 731.13 195.393 726.154 194.262 730.213C193.13 734.273 203.746 787.691 205.775 788.661C207.805 789.631 250.679 804.916 259.265 805.365C267.851 805.814 273.634 806.497 274.622 802.671C275.61 798.845 269.234 787.098 261.295 777.83C253.356 768.562 247.752 767.232 247.752 767.232Z" fill="#5C5C5C"/>
<mask id="mask5_141_1336" style="mask-type:luminance" maskUnits="userSpaceOnUse" x="194" y="728" width="81" height="78">
<path d="M247.751 767.232C247.751 767.232 221.581 752.324 210.732 741.727C199.883 731.13 195.393 726.154 194.261 730.213C193.129 734.273 203.745 787.691 205.774 788.661C207.804 789.631 250.678 804.916 259.264 805.365C267.85 805.814 273.633 806.497 274.621 802.671C275.609 798.845 269.233 787.098 261.294 777.83C253.355 768.562 247.751 767.232 247.751 767.232Z" fill="white"/>
</mask>
<g mask="url(#mask5_141_1336)">
<path opacity="0.15" d="M210.787 746.325H204.429V817.633H210.787V746.325Z" fill="black"/>
<path opacity="0.15" d="M232.684 746.325H226.325V817.633H232.684V746.325Z" fill="black"/>
<path opacity="0.15" d="M254.561 746.325H248.202V817.633H254.561V746.325Z" fill="black"/>
<path opacity="0.15" d="M276.455 746.325H270.097V817.633H276.455V746.325Z" fill="black"/>
<path d="M185.605 751.768C216.739 752.103 247.825 752.169 278.862 751.965" stroke="white" stroke-miterlimit="10"/>
<path d="M185.605 766.604C216.739 767.167 247.825 767.269 278.862 766.909" stroke="white" stroke-miterlimit="10"/>
<path d="M185.605 770.142C216.739 770.549 247.825 770.621 278.862 770.358" stroke="white" stroke-miterlimit="10"/>
<path d="M185.605 784.96C216.739 785.595 247.825 785.715 278.862 785.32" stroke="white" stroke-miterlimit="10"/>
<path d="M185.605 788.499C216.739 788.978 247.825 789.068 278.862 788.768" stroke="white" stroke-miterlimit="10"/>
<path opacity="0.3" d="M220.901 799.168C220.901 799.168 238.234 793.582 243.838 784.637C249.442 775.692 247.197 770.088 242.149 763.945C239.227 760.307 235.037 757.908 230.42 757.228C230.42 757.228 227.618 777.92 220.901 781.835C216.059 784.887 211.56 788.452 207.483 792.469L220.901 799.168Z" fill="black"/>
<path d="M185.605 803.317C216.739 802.683 247.825 802.569 278.862 802.976" stroke="white" stroke-miterlimit="10"/>
</g>
<path d="M247.752 767.232C247.752 767.232 221.582 752.324 210.733 741.727C199.884 731.13 195.393 726.154 194.262 730.213C193.13 734.273 203.746 787.691 205.775 788.661C207.805 789.631 250.679 804.916 259.265 805.365C267.851 805.814 273.634 806.497 274.622 802.671C275.61 798.845 269.234 787.098 261.295 777.83C253.356 768.562 247.752 767.232 247.752 767.232Z" stroke="#263238" stroke-linecap="round" stroke-linejoin="round"/>
<path d="M128.63 712.359C128.63 712.359 140.377 748.426 145.406 773.178C150.435 797.929 152.591 820.974 152.591 820.974C152.591 820.974 145.406 816.375 126.169 814.687C106.932 812.999 98.0771 810.071 89.689 794.139C81.301 778.207 75.8406 779.464 67.4525 776.95C59.0644 774.435 56.5498 769.765 56.5498 769.765C56.5498 769.765 125.702 711.874 128.63 712.359ZM155.213 709.216C161.434 721.67 166.496 734.669 170.337 748.049C176.875 770.609 186.143 819.896 186.143 819.896C186.143 819.896 202.165 818.1 206.907 807.933C211.649 797.767 211.864 793.923 219.48 791.229C227.096 788.535 237.549 782.877 238.447 775.656C239.109 770.778 240.087 765.948 241.375 761.197C241.375 761.197 199.183 726.226 192.627 721.682C186.071 717.137 157.027 707.42 155.213 709.216Z" fill="#5C5C5C"/>
<mask id="mask6_141_1336" style="mask-type:luminance" maskUnits="userSpaceOnUse" x="56" y="708" width="186" height="113">
<path d="M128.63 712.359C128.63 712.359 140.377 748.426 145.406 773.178C150.435 797.929 152.591 820.974 152.591 820.974C152.591 820.974 145.406 816.375 126.169 814.687C106.932 812.999 98.0771 810.071 89.689 794.139C81.301 778.207 75.8406 779.464 67.4525 776.95C59.0644 774.435 56.5498 769.765 56.5498 769.765C56.5498 769.765 125.702 711.874 128.63 712.359ZM155.213 709.216C161.434 721.67 166.496 734.669 170.337 748.049C176.875 770.609 186.143 819.896 186.143 819.896C186.143 819.896 202.165 818.1 206.907 807.933C211.649 797.767 211.864 793.923 219.48 791.229C227.096 788.535 237.549 782.877 238.447 775.656C239.109 770.778 240.087 765.948 241.375 761.197C241.375 761.197 199.183 726.226 192.627 721.682C186.071 717.137 157.027 707.42 155.213 709.216Z" fill="white"/>
</mask>
<g mask="url(#mask6_141_1336)">
<path opacity="0.15" d="M57.5557 734.434H51.1973V855.137H57.5557V734.434Z" fill="black"/>
<path opacity="0.15" d="M79.4512 734.434H73.0928V855.137H79.4512V734.434Z" fill="black"/>
<path opacity="0.15" d="M101.346 695.906H94.9873V855.154H101.346V695.906Z" fill="black"/>
<path opacity="0.15" d="M123.223 695.906H116.864V855.154H123.223V695.906Z" fill="black"/>
<path opacity="0.15" d="M145.118 695.906H138.76V855.154H145.118V695.906Z" fill="black"/>
<path opacity="0.15" d="M167.014 695.906H160.655V855.154H167.014V695.906Z" fill="black"/>
<path opacity="0.15" d="M188.891 695.906H182.532V855.154H188.891V695.906Z" fill="black"/>
<path opacity="0.15" d="M210.786 695.906H204.428V855.154H210.786V695.906Z" fill="black"/>
<path opacity="0.15" d="M232.683 695.906H226.324V855.154H232.683V695.906Z" fill="black"/>
<path d="M84.9658 711.533C137.055 711.928 189.036 711.928 240.406 711.767" stroke="white" stroke-miterlimit="10"/>
<path d="M84.9658 715.053C137.055 715.287 189.036 715.287 240.406 715.197" stroke="white" stroke-miterlimit="10"/>
<path d="M84.9658 729.836C137.055 730.339 189.036 730.339 240.406 730.142" stroke="white" stroke-miterlimit="10"/>
<path d="M84.9658 733.428C137.055 733.769 189.036 733.769 240.406 733.626" stroke="white" stroke-miterlimit="10"/>
<path d="M22.9258 748.247C95.0777 748.84 167.212 748.84 239.938 748.552" stroke="white" stroke-miterlimit="10"/>
<path d="M22.9258 751.767C95.0777 752.198 167.212 752.198 239.938 751.983" stroke="white" stroke-miterlimit="10"/>
<path d="M22.9258 766.604C95.0777 767.304 167.212 767.304 239.938 766.963" stroke="white" stroke-miterlimit="10"/>
<path d="M22.9258 770.142C95.0777 770.645 167.212 770.645 239.938 770.394" stroke="white" stroke-miterlimit="10"/>
<path d="M22.9258 784.96C95.0777 785.751 167.212 785.751 239.938 785.356" stroke="white" stroke-miterlimit="10"/>
<path d="M22.9258 788.499C95.0777 789.11 167.212 789.11 239.938 788.804" stroke="white" stroke-miterlimit="10"/>
<path d="M22.9258 803.317C95.0777 802.527 167.212 802.527 239.938 802.922" stroke="white" stroke-miterlimit="10"/>
<path d="M22.9258 806.856C95.0777 807.556 167.212 807.556 239.938 807.215" stroke="white" stroke-miterlimit="10"/>
<path d="M22.9258 821.674C95.0777 820.973 167.212 820.973 239.938 821.333" stroke="white" stroke-miterlimit="10"/>
</g>
<path d="M128.63 712.359C128.63 712.359 140.377 748.426 145.406 773.178C150.435 797.929 152.591 820.974 152.591 820.974C152.591 820.974 145.406 816.375 126.169 814.687C106.932 812.999 98.0771 810.071 89.689 794.139C81.301 778.207 75.8406 779.464 67.4525 776.95C59.0644 774.435 56.5498 769.765 56.5498 769.765C56.5498 769.765 125.702 711.874 128.63 712.359ZM155.213 709.216C161.434 721.67 166.496 734.669 170.337 748.049C176.875 770.609 186.143 819.896 186.143 819.896C186.143 819.896 202.165 818.1 206.907 807.933C211.649 797.767 211.864 793.923 219.48 791.229C227.096 788.535 237.549 782.877 238.447 775.656C239.109 770.778 240.087 765.948 241.375 761.197C241.375 761.197 199.183 726.226 192.627 721.682C186.071 717.137 157.027 707.42 155.213 709.216Z" stroke="#263238" stroke-linecap="round" stroke-linejoin="round"/>
<path d="M228.478 707.941C228.478 707.941 230.167 717.964 230.741 720.352C231.316 722.741 236.794 729.675 236.794 729.675L227.634 735.458C225.454 731.519 223.056 727.705 220.449 724.035C218.905 722.472 211.145 720.442 208.882 717.389C206.619 714.335 207.194 710.761 206.619 708.498C206.044 706.235 200.835 699.75 202.11 698.763C203.386 697.775 206.062 698.619 207.319 700.182C208.577 701.744 208.595 703.989 209.116 705.121C209.636 706.253 216.588 710.51 216.588 710.51C216.588 710.51 213.48 701.618 212.995 700.361C212.878 700.018 212.838 699.653 212.877 699.292C212.917 698.931 213.035 698.584 213.223 698.274C213.411 697.964 213.666 697.699 213.968 697.498C214.27 697.297 214.612 697.164 214.971 697.11C216.372 697.11 222.73 703.325 222.73 703.325L228.478 707.941Z" stroke="#263238" stroke-linecap="round" stroke-linejoin="round"/>
<path d="M201.771 690.763C207.3 688 207.698 677.589 202.661 667.508C197.624 657.428 189.059 651.495 183.531 654.257C178.002 657.02 177.604 667.431 182.641 677.512C187.678 687.592 196.243 693.525 201.771 690.763Z" fill="white" stroke="#263238" stroke-linecap="round" stroke-linejoin="round"/>
<path d="M199.535 688.372C203.333 686.475 202.958 678.023 198.697 669.495C194.436 660.967 187.902 655.593 184.104 657.491C180.306 659.388 180.682 667.84 184.943 676.368C189.204 684.895 195.737 690.27 199.535 688.372Z" fill="white" stroke="#263238" stroke-linecap="round" stroke-linejoin="round"/>
<path d="M201.23 690.051L217.091 713.761C217.292 714.066 217.553 714.326 217.859 714.526C218.165 714.727 218.509 714.862 218.869 714.924C219.229 714.986 219.598 714.974 219.953 714.888C220.308 714.803 220.642 714.645 220.934 714.425C221.221 714.211 221.462 713.942 221.644 713.634C221.826 713.326 221.945 712.985 221.993 712.63C222.042 712.276 222.019 711.915 221.927 711.57C221.834 711.224 221.674 710.9 221.455 710.617L203.835 688.165C203.737 688.027 203.612 687.909 203.468 687.82C203.323 687.731 203.162 687.672 202.994 687.647C202.826 687.622 202.655 687.631 202.491 687.674C202.327 687.716 202.173 687.792 202.039 687.896L201.446 688.291C201.189 688.499 201.022 688.799 200.982 689.127C200.942 689.456 201.031 689.787 201.23 690.051Z" fill="#263238" stroke="#263238" stroke-linecap="round" stroke-linejoin="round"/>
<path d="M212.816 693.374C212.816 693.374 208.11 696.284 208.326 697.864C208.541 699.445 209.224 700.092 210.571 700.092C211.918 700.092 215.492 698.08 216.839 697.415C218.186 696.751 217.217 691.596 212.816 693.374Z" fill="white" stroke="#263238" stroke-linecap="round" stroke-linejoin="round"/>
<path d="M214.613 698.763C212.932 700.997 211.424 703.357 210.104 705.821C209.961 706.809 218.133 714.802 219.552 714.802C220.971 714.802 228.731 710.007 228.443 708.031C228.156 706.055 220.253 700.128 218.852 698.709C217.451 697.29 216.193 696.787 214.613 698.763Z" fill="white" stroke="#263238" stroke-linecap="round" stroke-linejoin="round"/>
<path d="M212.528 708.641L220.144 699.606" stroke="#263238" stroke-linecap="round" stroke-linejoin="round"/>
<path d="M224.384 703.99L216.769 712.593" stroke="#263238" stroke-linecap="round" stroke-linejoin="round"/>
<path d="M247.069 782.805L223.826 734.057L240.98 725.076C240.98 725.076 259.264 746.289 266.719 761C274.173 775.71 277.496 799.15 274.622 802.761C271.748 806.371 258.582 803.874 252.044 799.815" fill="#5C5C5C"/>
<mask id="mask7_141_1336" style="mask-type:luminance" maskUnits="userSpaceOnUse" x="223" y="725" width="53" height="80">
<path d="M247.07 782.805L223.827 734.057L240.981 725.076C240.981 725.076 259.265 746.289 266.72 761C274.174 775.71 277.497 799.15 274.623 802.761C271.749 806.371 258.583 803.874 252.045 799.815" fill="white"/>
</mask>
<g mask="url(#mask7_141_1336)">
<path opacity="0.15" d="M232.682 716.975H226.323V815.118H232.682V716.975Z" fill="black"/>
<path opacity="0.15" d="M254.56 716.975H248.201V815.118H254.56V716.975Z" fill="black"/>
<path opacity="0.15" d="M276.455 716.975H270.097V815.118H276.455V716.975Z" fill="black"/>
<path d="M207.23 729.836C237.765 730.339 269.557 730.339 299.751 729.836" stroke="white" stroke-miterlimit="10"/>
<path d="M207.23 733.428C237.765 733.769 269.557 733.769 299.751 733.428" stroke="white" stroke-miterlimit="10"/>
<path d="M207.23 748.246C237.765 748.839 269.557 748.839 299.751 748.246" stroke="white" stroke-miterlimit="10"/>
<path d="M207.23 751.767C237.765 752.198 269.557 752.198 299.751 751.767" stroke="white" stroke-miterlimit="10"/>
<path d="M207.23 766.603C237.765 767.304 269.557 767.304 299.751 766.603" stroke="white" stroke-miterlimit="10"/>
<path d="M207.23 770.142C237.765 770.645 269.557 770.645 299.751 770.142" stroke="white" stroke-miterlimit="10"/>
<path d="M207.23 784.96C237.765 785.751 269.557 785.751 299.751 784.96" stroke="white" stroke-miterlimit="10"/>
<path d="M207.23 788.499C237.765 789.109 269.557 789.109 299.751 788.499" stroke="white" stroke-miterlimit="10"/>
<path d="M207.23 803.317C237.765 802.527 269.557 802.527 299.751 803.317" stroke="white" stroke-miterlimit="10"/>
</g>
<path d="M247.069 782.805L223.826 734.057L240.98 725.076C240.98 725.076 259.264 746.289 266.719 761C274.173 775.71 277.496 799.15 274.622 802.761C271.748 806.371 258.582 803.874 252.044 799.815" stroke="#263238" stroke-linecap="round" stroke-linejoin="round"/>
</svg>
