<svg width="1010" height="1116" viewBox="0 0 1010 1116" fill="none" xmlns="http://www.w3.org/2000/svg">
<rect width="1010" height="1116" fill="#101010"/>
<path d="M976 1088.2C976 1094.14 764.881 1098.97 504.5 1098.97C244.119 1098.97 33 1094.14 33 1088.2C33 1082.27 244.119 1077.43 504.5 1077.43C764.881 1077.43 976 1082.24 976 1088.2Z" fill="#5C5C5C"/>
<path opacity="0.6" d="M976 1088.2C976 1094.14 764.881 1098.97 504.5 1098.97C244.119 1098.97 33 1094.14 33 1088.2C33 1082.27 244.119 1077.43 504.5 1077.43C764.881 1077.43 976 1082.24 976 1088.2Z" fill="white"/>
<path d="M842.318 725.549C842.177 725.549 843.889 717.057 844.054 716.517C846.024 710.465 853.437 699.886 860.474 699.909C861.659 699.944 862.823 700.228 863.891 700.743C864.959 701.258 865.906 701.991 866.672 702.896C867.438 703.801 868.004 704.857 868.335 705.996C868.665 707.134 868.752 708.329 868.59 709.504C868.074 714.524 863.57 718.887 859.489 721.233C854.797 724.165 842.318 725.549 842.318 725.549Z" fill="#5C5C5C"/>
<path d="M828.478 668.335C835.21 670.681 838.541 683.184 838.33 689.447C838.33 689.987 837.04 698.572 836.922 698.526H836.782C837.345 700.473 837.884 702.584 838.447 704.906C839.456 709.175 840.558 714.031 841.403 719.379C842.384 725.146 843.019 730.966 843.303 736.809C843.673 743.344 843.453 749.9 842.646 756.396C842.655 756.474 842.655 756.552 842.646 756.63C843.537 754.73 846.165 749.593 846.423 749.124C849.918 743.775 859.817 735.542 866.69 737.395C867.825 737.741 868.874 738.322 869.769 739.1C870.664 739.878 871.385 740.836 871.885 741.912C872.385 742.988 872.653 744.156 872.672 745.342C872.69 746.528 872.458 747.705 871.992 748.795C870.185 753.487 864.696 756.443 860.122 757.733C854.961 759.211 843.444 757.475 842.529 757.334C841.542 763.918 840.124 770.43 838.283 776.827C837.227 780.557 836.054 784.287 834.811 788.017C835.632 786.398 836.359 784.967 836.5 784.78C839.995 779.455 849.894 771.198 856.768 773.051C857.902 773.397 858.951 773.977 859.846 774.756C860.741 775.534 861.463 776.492 861.963 777.568C862.463 778.643 862.731 779.812 862.749 780.998C862.767 782.184 862.536 783.361 862.069 784.451C860.239 789.143 854.774 792.098 850.199 793.389C845.625 794.679 835.703 793.389 833.099 793.06L831.644 797.329C829.299 804.156 826.953 810.958 824.771 817.691C824.021 820.037 823.364 822.382 822.707 824.728C823.411 823.297 824.044 822.077 824.161 821.913C827.657 816.588 837.556 808.331 844.429 810.184C845.563 810.53 846.612 811.111 847.508 811.889C848.403 812.668 849.124 813.626 849.624 814.701C850.124 815.777 850.392 816.946 850.41 818.132C850.429 819.318 850.197 820.494 849.73 821.585C847.901 826.276 842.435 829.232 837.861 830.522C833.286 831.812 824.326 830.686 821.229 830.264C820.619 832.61 820.009 835.143 819.54 837.536C819.235 839.178 818.86 840.75 818.649 842.415C818.438 844.081 818.18 845.676 817.968 847.294C817.64 850.414 817.288 853.628 817.054 856.677C816.866 858.812 816.725 860.829 816.584 862.87C817.312 860.525 818.93 855.833 818.93 855.528C821.449 850.51 825.213 846.221 829.862 843.072C830.12 842.508 830.426 841.966 830.776 841.453C831.422 840.457 832.271 839.607 833.267 838.961C834.263 838.314 835.384 837.885 836.558 837.701C837.731 837.518 838.93 837.583 840.076 837.895C841.222 838.206 842.29 838.755 843.209 839.506C848.604 844.198 847.267 856.982 844.781 862.847C844.64 863.199 842.623 866.788 841.309 869.016C842.271 867.82 843.209 866.67 844.218 865.427C846.212 863.081 848.252 860.736 850.457 858.085L853.788 854.449C854.891 853.206 856.134 852.103 857.401 850.836C860.263 848.068 863.289 845.418 866.409 842.791C864.274 841.055 856.815 834.768 854.68 830.475C852.545 826.182 851.02 820.201 853.249 815.697C853.734 814.613 854.443 813.644 855.329 812.853C856.215 812.063 857.258 811.469 858.39 811.11C859.522 810.751 860.718 810.635 861.897 810.771C863.077 810.907 864.215 811.29 865.236 811.897C871.288 815.673 871.898 828.552 870.326 834.721C870.326 835.12 868.614 839.413 867.675 841.758C869.552 840.187 871.429 838.638 873.376 837.067C879.029 832.704 884.87 828.481 890.687 824.212C892.47 822.922 894.23 821.585 896.012 820.271C895.238 819.661 886.207 812.366 883.814 807.58C881.68 803.335 880.155 797.306 882.383 792.779C882.874 791.7 883.586 790.736 884.473 789.95C885.36 789.163 886.402 788.572 887.532 788.214C888.662 787.856 889.854 787.739 891.032 787.87C892.21 788.002 893.347 788.38 894.37 788.979C900.422 792.779 901.032 805.657 899.461 811.826C899.343 812.295 896.998 818.488 896.317 820.037C900.211 817.151 904.058 814.219 907.741 811.193C912.706 807.108 917.407 802.713 921.816 798.033C921.44 797.752 912.01 790.175 909.547 785.272C907.413 781.003 905.865 774.998 908.117 770.47C908.607 769.391 909.319 768.428 910.206 767.641C911.093 766.855 912.135 766.264 913.265 765.905C914.395 765.547 915.587 765.43 916.765 765.562C917.943 765.694 919.081 766.071 920.103 766.67C926.155 770.47 926.742 783.325 925.194 789.518C925.076 789.917 923.294 794.655 922.402 796.884L922.754 797.095C927.066 792.253 930.944 787.041 934.342 781.519C936.242 778.493 937.908 775.514 939.456 772.558C937.532 771.338 928.9 765.521 926.202 761.439C923.505 757.357 921.511 751.634 923.153 746.895C923.52 745.768 924.12 744.73 924.914 743.849C925.709 742.969 926.68 742.266 927.764 741.785C928.849 741.305 930.022 741.059 931.208 741.062C932.394 741.066 933.566 741.319 934.647 741.805C941.075 744.925 943.092 757.639 942.224 763.949C942.224 764.301 941.286 767.726 940.629 770.236C941.309 768.899 942.013 767.515 942.646 766.225C944.992 761.369 946.845 756.841 948.464 752.666C949.355 750.32 950.106 748.209 950.81 746.215C949.566 744.034 944.687 735.19 944.218 730.334C943.749 725.478 944.499 719.426 948.206 716.025C949.049 715.189 950.059 714.541 951.171 714.122C952.282 713.704 953.469 713.526 954.654 713.599C955.839 713.672 956.996 713.995 958.047 714.547C959.099 715.098 960.022 715.866 960.756 716.799C965.048 722.523 960.967 734.721 957.284 739.928C956.955 740.374 951.161 746.848 951.091 746.731V746.59C950.458 748.537 949.754 750.602 948.956 752.83C947.432 756.959 945.672 761.627 943.42 766.553C941.052 771.897 938.373 777.098 935.398 782.129C932.099 787.776 928.299 793.114 924.044 798.08L923.88 798.268C925.663 797.165 930.753 794.256 931.175 794.092C937.016 791.559 949.824 790.151 954.516 795.523C955.272 796.437 955.827 797.499 956.145 798.641C956.464 799.784 956.538 800.98 956.363 802.153C956.188 803.326 955.768 804.449 955.131 805.448C954.493 806.448 953.652 807.303 952.663 807.956C948.534 810.888 942.365 810.302 937.814 808.871C932.7 807.252 924.044 799.488 923.364 798.807C918.911 803.766 914.13 808.421 909.055 812.741C906.123 815.275 903.073 817.738 900 820.177C901.572 819.262 902.979 818.465 903.19 818.394C909.055 815.861 921.957 814.454 926.648 819.825C927.403 820.74 927.957 821.804 928.273 822.947C928.59 824.091 928.662 825.288 928.485 826.461C928.308 827.633 927.885 828.756 927.246 829.755C926.606 830.754 925.763 831.607 924.771 832.258C920.643 835.19 914.474 834.604 909.923 833.173C905.372 831.742 897.819 825.197 895.848 823.461L892.329 826.628C886.606 831.015 880.859 835.354 875.37 839.811C873.423 841.383 871.569 842.978 869.716 844.503L872.484 842.955C878.349 840.445 891.25 839.014 895.942 844.409C896.697 845.324 897.251 846.388 897.567 847.531C897.884 848.674 897.956 849.871 897.779 851.044C897.602 852.217 897.179 853.34 896.54 854.339C895.9 855.337 895.057 856.19 894.065 856.842C889.96 859.75 883.767 859.187 879.24 857.733C874.713 856.279 867.84 850.414 865.517 848.35C863.664 850.039 861.788 851.751 860.075 853.487C858.926 854.684 857.729 855.833 856.65 857.053L853.39 860.759C851.396 863.105 849.331 865.662 847.455 868.078C846.118 869.743 844.898 871.362 843.655 872.981C845.555 871.409 849.378 868.406 849.707 868.289C855.125 864.911 867.558 861.58 873.024 866.178C873.907 866.972 874.614 867.943 875.098 869.028C875.581 870.113 875.832 871.288 875.832 872.476C875.832 873.664 875.581 874.839 875.098 875.924C874.614 877.009 873.907 877.98 873.024 878.775C869.411 882.27 863.218 882.645 858.503 881.894C853.319 881.097 843.936 874.974 842.763 874.224C840.722 876.898 838.752 879.549 836.946 882.059C830.636 890.785 825.71 898.291 822.332 903.593L822.003 904.132L817.64 902.021C817.851 901.669 818.086 901.341 818.32 900.966C821.839 895.688 826.976 888.228 833.544 879.549C835.609 876.804 837.884 873.919 840.23 870.963C837.797 868.308 835.533 865.503 833.451 862.565C828.431 864.536 817.992 864.63 816.631 864.63C816.42 868.008 816.233 871.292 816.115 874.388C815.646 885.155 815.693 894.116 815.787 900.403C815.787 900.661 815.787 900.895 815.787 901.13L810.978 898.784C810.978 892.544 811.213 884.123 811.846 874.153C812.057 870.705 812.362 867.116 812.691 863.293C811.377 862.964 800.492 860.173 796.411 856.889C792.329 853.604 788.764 849.101 788.904 844.057C788.894 842.863 789.137 841.679 789.617 840.586C790.097 839.492 790.804 838.513 791.691 837.712C792.578 836.912 793.624 836.309 794.761 835.943C795.899 835.577 797.1 835.456 798.288 835.589C805.325 836.504 811.307 847.928 812.479 854.191C812.479 854.566 812.855 858.671 812.995 861.228C813.136 859.703 813.253 858.202 813.418 856.537C813.746 853.417 814.145 850.297 814.567 846.966C814.825 845.347 815.107 843.729 815.365 842.087C815.623 840.445 816.045 838.756 816.373 837.09C817.241 833.196 818.297 829.326 819.446 825.361C816.725 825.08 807.037 823.93 802.885 821.538C798.733 819.145 794.159 814.993 793.502 809.997C793.313 808.825 793.372 807.627 793.677 806.48C793.982 805.333 794.525 804.263 795.271 803.34C796.016 802.418 796.948 801.662 798.006 801.124C799.063 800.585 800.222 800.275 801.407 800.215C808.445 800.051 816.139 810.442 818.25 816.447C818.391 816.823 819.399 821.327 819.916 823.79C820.619 821.444 821.323 819.098 822.121 816.752C824.466 809.997 826.976 803.217 829.463 796.462C830.237 794.397 830.988 792.309 831.809 790.245C830.823 790.245 819.282 789.049 814.638 786.375C810.509 784.029 805.911 779.83 805.254 774.834C805.065 773.662 805.125 772.464 805.429 771.317C805.734 770.17 806.277 769.1 807.023 768.177C807.769 767.254 808.701 766.499 809.758 765.96C810.816 765.422 811.975 765.112 813.16 765.052C820.197 764.864 827.891 775.279 830.002 781.284C830.167 781.754 831.621 788.204 831.902 789.87C833.568 785.319 835.163 780.745 836.594 776.194C838.52 770.047 840.033 763.777 841.121 757.428C840.676 757.428 828.618 756.278 823.856 753.534C819.728 751.188 815.13 746.989 814.473 741.993C814.284 740.821 814.343 739.623 814.648 738.476C814.953 737.329 815.496 736.26 816.242 735.337C816.988 734.414 817.92 733.658 818.977 733.12C820.034 732.581 821.193 732.271 822.379 732.211C829.533 732.047 837.133 742.438 839.221 748.444C839.362 748.842 840.488 753.768 840.957 756.114H841.379C842.309 749.7 842.67 743.216 842.458 736.738C842.458 733.173 842.107 729.701 841.778 726.44C839.432 726.44 829.158 726.44 824.584 724.493C820.009 722.546 815.2 718.934 814.028 714.031C813.713 712.889 813.641 711.693 813.819 710.521C813.997 709.349 814.419 708.228 815.058 707.23C815.698 706.232 816.54 705.38 817.53 704.729C818.521 704.078 819.637 703.643 820.807 703.452C827.844 702.49 836.57 711.99 839.338 717.737C839.479 718.042 840.652 721.397 841.473 723.86C841.285 722.359 841.145 720.81 840.934 719.403C840.206 714.031 839.221 709.175 838.306 704.883C837.767 702.537 837.227 700.191 836.711 698.221C834.365 697.071 825.522 692.38 822.449 688.603C819.376 684.826 816.678 679.22 817.875 674.528C818.138 673.41 818.626 672.357 819.309 671.434C819.991 670.51 820.855 669.735 821.847 669.156C822.839 668.577 823.938 668.205 825.078 668.064C826.218 667.923 827.374 668.015 828.478 668.335Z" fill="#5C5C5C"/>
<path d="M957.589 778.422C952.006 778.188 940.84 772.464 940.84 772.464C940.84 772.464 946.845 766.248 947.267 765.919C952.264 761.932 964.227 757.193 970.185 761.228C971.152 761.915 971.964 762.797 972.569 763.818C973.174 764.838 973.558 765.974 973.697 767.152C973.837 768.329 973.728 769.523 973.377 770.657C973.027 771.79 972.443 772.837 971.663 773.731C968.45 777.531 962.351 778.61 957.589 778.422Z" fill="#5C5C5C"/>
<g opacity="0.5">
<path d="M842.318 725.549C842.177 725.549 843.889 717.057 844.054 716.517C846.024 710.465 853.437 699.886 860.474 699.909C861.659 699.944 862.823 700.228 863.891 700.743C864.959 701.258 865.906 701.991 866.672 702.896C867.438 703.801 868.004 704.857 868.335 705.996C868.665 707.134 868.752 708.329 868.59 709.504C868.074 714.524 863.57 718.887 859.489 721.233C854.797 724.165 842.318 725.549 842.318 725.549Z" fill="white"/>
<path d="M828.478 668.335C835.21 670.681 838.541 683.184 838.33 689.447C838.33 689.987 837.04 698.572 836.922 698.526H836.782C837.345 700.473 837.884 702.584 838.447 704.906C839.456 709.175 840.558 714.031 841.403 719.379C842.384 725.146 843.019 730.966 843.303 736.809C843.673 743.344 843.453 749.9 842.646 756.396C842.655 756.474 842.655 756.552 842.646 756.63C843.537 754.73 846.165 749.593 846.423 749.124C849.918 743.775 859.817 735.542 866.69 737.395C867.825 737.741 868.874 738.322 869.769 739.1C870.664 739.878 871.385 740.836 871.885 741.912C872.385 742.988 872.653 744.156 872.672 745.342C872.69 746.528 872.458 747.705 871.992 748.795C870.185 753.487 864.696 756.443 860.122 757.733C854.961 759.211 843.444 757.475 842.529 757.334C841.542 763.918 840.124 770.43 838.283 776.827C837.227 780.557 836.054 784.287 834.811 788.017C835.632 786.398 836.359 784.967 836.5 784.78C839.995 779.455 849.894 771.198 856.768 773.051C857.902 773.397 858.951 773.977 859.846 774.756C860.741 775.534 861.463 776.492 861.963 777.568C862.463 778.643 862.731 779.812 862.749 780.998C862.767 782.184 862.536 783.361 862.069 784.451C860.239 789.143 854.774 792.098 850.199 793.389C845.625 794.679 835.703 793.389 833.099 793.06L831.644 797.329C829.299 804.156 826.953 810.958 824.771 817.691C824.021 820.037 823.364 822.382 822.707 824.728C823.411 823.297 824.044 822.077 824.161 821.913C827.657 816.588 837.556 808.331 844.429 810.184C845.563 810.53 846.612 811.111 847.508 811.889C848.403 812.668 849.124 813.626 849.624 814.701C850.124 815.777 850.392 816.946 850.41 818.132C850.429 819.318 850.197 820.494 849.73 821.585C847.901 826.276 842.435 829.232 837.861 830.522C833.286 831.812 824.326 830.686 821.229 830.264C820.619 832.61 820.009 835.143 819.54 837.536C819.235 839.178 818.86 840.75 818.649 842.415C818.438 844.081 818.18 845.676 817.968 847.294C817.64 850.414 817.288 853.628 817.054 856.677C816.866 858.812 816.725 860.829 816.584 862.87C817.312 860.525 818.93 855.833 818.93 855.528C821.449 850.51 825.213 846.221 829.862 843.072C830.12 842.508 830.426 841.966 830.776 841.453C831.422 840.457 832.271 839.607 833.267 838.961C834.263 838.314 835.384 837.885 836.558 837.701C837.731 837.518 838.93 837.583 840.076 837.895C841.222 838.206 842.29 838.755 843.209 839.506C848.604 844.198 847.267 856.982 844.781 862.847C844.64 863.199 842.623 866.788 841.309 869.016C842.271 867.82 843.209 866.67 844.218 865.427C846.212 863.081 848.252 860.736 850.457 858.085L853.788 854.449C854.891 853.206 856.134 852.103 857.401 850.836C860.263 848.068 863.289 845.418 866.409 842.791C864.274 841.055 856.815 834.768 854.68 830.475C852.545 826.182 851.02 820.201 853.249 815.697C853.734 814.613 854.443 813.644 855.329 812.853C856.215 812.063 857.258 811.469 858.39 811.11C859.522 810.751 860.718 810.635 861.897 810.771C863.077 810.907 864.215 811.29 865.236 811.897C871.288 815.673 871.898 828.552 870.326 834.721C870.326 835.12 868.614 839.413 867.675 841.758C869.552 840.187 871.429 838.638 873.376 837.067C879.029 832.704 884.87 828.481 890.687 824.212C892.47 822.922 894.23 821.585 896.012 820.271C895.238 819.661 886.207 812.366 883.814 807.58C881.68 803.335 880.155 797.306 882.383 792.779C882.874 791.7 883.586 790.736 884.473 789.95C885.36 789.163 886.402 788.572 887.532 788.214C888.662 787.856 889.854 787.739 891.032 787.87C892.21 788.002 893.347 788.38 894.37 788.979C900.422 792.779 901.032 805.657 899.461 811.826C899.343 812.295 896.998 818.488 896.317 820.037C900.211 817.151 904.058 814.219 907.741 811.193C912.706 807.108 917.407 802.713 921.816 798.033C921.44 797.752 912.01 790.175 909.547 785.272C907.413 781.003 905.865 774.998 908.117 770.47C908.607 769.391 909.319 768.428 910.206 767.641C911.093 766.855 912.135 766.264 913.265 765.905C914.395 765.547 915.587 765.43 916.765 765.562C917.943 765.694 919.081 766.071 920.103 766.67C926.155 770.47 926.742 783.325 925.194 789.518C925.076 789.917 923.294 794.655 922.402 796.884L922.754 797.095C927.066 792.253 930.944 787.041 934.342 781.519C936.242 778.493 937.908 775.514 939.456 772.558C937.532 771.338 928.9 765.521 926.202 761.439C923.505 757.357 921.511 751.634 923.153 746.895C923.52 745.768 924.12 744.73 924.914 743.849C925.709 742.969 926.68 742.266 927.764 741.785C928.849 741.305 930.022 741.059 931.208 741.062C932.394 741.066 933.566 741.319 934.647 741.805C941.075 744.925 943.092 757.639 942.224 763.949C942.224 764.301 941.286 767.726 940.629 770.236C941.309 768.899 942.013 767.515 942.646 766.225C944.992 761.369 946.845 756.841 948.464 752.666C949.355 750.32 950.106 748.209 950.81 746.215C949.566 744.034 944.687 735.19 944.218 730.334C943.749 725.478 944.499 719.426 948.206 716.025C949.049 715.189 950.059 714.541 951.171 714.122C952.282 713.704 953.469 713.526 954.654 713.599C955.839 713.672 956.996 713.995 958.047 714.547C959.099 715.098 960.022 715.866 960.756 716.799C965.048 722.523 960.967 734.721 957.284 739.928C956.955 740.374 951.161 746.848 951.091 746.731V746.59C950.458 748.537 949.754 750.602 948.956 752.83C947.432 756.959 945.672 761.627 943.42 766.553C941.052 771.897 938.373 777.098 935.398 782.129C932.099 787.776 928.299 793.114 924.044 798.08L923.88 798.268C925.663 797.165 930.753 794.256 931.175 794.092C937.016 791.559 949.824 790.151 954.516 795.523C955.272 796.437 955.827 797.499 956.145 798.641C956.464 799.784 956.538 800.98 956.363 802.153C956.188 803.326 955.768 804.449 955.131 805.448C954.493 806.448 953.652 807.303 952.663 807.956C948.534 810.888 942.365 810.302 937.814 808.871C932.7 807.252 924.044 799.488 923.364 798.807C918.911 803.766 914.13 808.421 909.055 812.741C906.123 815.275 903.073 817.738 900 820.177C901.572 819.262 902.979 818.465 903.19 818.394C909.055 815.861 921.957 814.454 926.648 819.825C927.403 820.74 927.957 821.804 928.273 822.947C928.59 824.091 928.662 825.288 928.485 826.461C928.308 827.633 927.885 828.756 927.246 829.755C926.606 830.754 925.763 831.607 924.771 832.258C920.643 835.19 914.474 834.604 909.923 833.173C905.372 831.742 897.819 825.197 895.848 823.461L892.329 826.628C886.606 831.015 880.859 835.354 875.37 839.811C873.423 841.383 871.569 842.978 869.716 844.503L872.484 842.955C878.349 840.445 891.25 839.014 895.942 844.409C896.697 845.324 897.251 846.388 897.567 847.531C897.884 848.674 897.956 849.871 897.779 851.044C897.602 852.217 897.179 853.34 896.54 854.339C895.9 855.337 895.057 856.19 894.065 856.842C889.96 859.75 883.767 859.187 879.24 857.733C874.713 856.279 867.84 850.414 865.517 848.35C863.664 850.039 861.788 851.751 860.075 853.487C858.926 854.684 857.729 855.833 856.65 857.053L853.39 860.759C851.396 863.105 849.331 865.662 847.455 868.078C846.118 869.743 844.898 871.362 843.655 872.981C845.555 871.409 849.378 868.406 849.707 868.289C855.125 864.911 867.558 861.58 873.024 866.178C873.907 866.972 874.614 867.943 875.098 869.028C875.581 870.113 875.832 871.288 875.832 872.476C875.832 873.664 875.581 874.839 875.098 875.924C874.614 877.009 873.907 877.98 873.024 878.775C869.411 882.27 863.218 882.645 858.503 881.894C853.319 881.097 843.936 874.974 842.763 874.224C840.722 876.898 838.752 879.549 836.946 882.059C830.636 890.785 825.71 898.291 822.332 903.593L822.003 904.132L817.64 902.021C817.851 901.669 818.086 901.341 818.32 900.966C821.839 895.688 826.976 888.228 833.544 879.549C835.609 876.804 837.884 873.919 840.23 870.963C837.797 868.308 835.533 865.503 833.451 862.565C828.431 864.536 817.992 864.63 816.631 864.63C816.42 868.008 816.233 871.292 816.115 874.388C815.646 885.155 815.693 894.116 815.787 900.403C815.787 900.661 815.787 900.895 815.787 901.13L810.978 898.784C810.978 892.544 811.213 884.123 811.846 874.153C812.057 870.705 812.362 867.116 812.691 863.293C811.377 862.964 800.492 860.173 796.411 856.889C792.329 853.604 788.764 849.101 788.904 844.057C788.894 842.863 789.137 841.679 789.617 840.586C790.097 839.492 790.804 838.513 791.691 837.712C792.578 836.912 793.624 836.309 794.761 835.943C795.899 835.577 797.1 835.456 798.288 835.589C805.325 836.504 811.307 847.928 812.479 854.191C812.479 854.566 812.855 858.671 812.995 861.228C813.136 859.703 813.253 858.202 813.418 856.537C813.746 853.417 814.145 850.297 814.567 846.966C814.825 845.347 815.107 843.729 815.365 842.087C815.623 840.445 816.045 838.756 816.373 837.09C817.241 833.196 818.297 829.326 819.446 825.361C816.725 825.08 807.037 823.93 802.885 821.538C798.733 819.145 794.159 814.993 793.502 809.997C793.313 808.825 793.372 807.627 793.677 806.48C793.982 805.333 794.525 804.263 795.271 803.34C796.016 802.418 796.948 801.662 798.006 801.124C799.063 800.585 800.222 800.275 801.407 800.215C808.445 800.051 816.139 810.442 818.25 816.447C818.391 816.823 819.399 821.327 819.916 823.79C820.619 821.444 821.323 819.098 822.121 816.752C824.466 809.997 826.976 803.217 829.463 796.462C830.237 794.397 830.988 792.309 831.809 790.245C830.823 790.245 819.282 789.049 814.638 786.375C810.509 784.029 805.911 779.83 805.254 774.834C805.065 773.662 805.125 772.464 805.429 771.317C805.734 770.17 806.277 769.1 807.023 768.177C807.769 767.254 808.701 766.499 809.758 765.96C810.816 765.422 811.975 765.112 813.16 765.052C820.197 764.864 827.891 775.279 830.002 781.284C830.167 781.754 831.621 788.204 831.902 789.87C833.568 785.319 835.163 780.745 836.594 776.194C838.52 770.047 840.033 763.777 841.121 757.428C840.676 757.428 828.618 756.278 823.856 753.534C819.728 751.188 815.13 746.989 814.473 741.993C814.284 740.821 814.343 739.623 814.648 738.476C814.953 737.329 815.496 736.26 816.242 735.337C816.988 734.414 817.92 733.658 818.977 733.12C820.034 732.581 821.193 732.271 822.379 732.211C829.533 732.047 837.133 742.438 839.221 748.444C839.362 748.842 840.488 753.768 840.957 756.114H841.379C842.309 749.7 842.67 743.216 842.458 736.738C842.458 733.173 842.107 729.701 841.778 726.44C839.432 726.44 829.158 726.44 824.584 724.493C820.009 722.546 815.2 718.934 814.028 714.031C813.713 712.889 813.641 711.693 813.819 710.521C813.997 709.349 814.419 708.228 815.058 707.23C815.698 706.232 816.54 705.38 817.53 704.729C818.521 704.078 819.637 703.643 820.807 703.452C827.844 702.49 836.57 711.99 839.338 717.737C839.479 718.042 840.652 721.397 841.473 723.86C841.285 722.359 841.145 720.81 840.934 719.403C840.206 714.031 839.221 709.175 838.306 704.883C837.767 702.537 837.227 700.191 836.711 698.221C834.365 697.071 825.522 692.38 822.449 688.603C819.376 684.826 816.678 679.22 817.875 674.528C818.138 673.41 818.626 672.357 819.309 671.434C819.991 670.51 820.855 669.735 821.847 669.156C822.839 668.577 823.938 668.205 825.078 668.064C826.218 667.923 827.374 668.015 828.478 668.335Z" fill="white"/>
<path d="M957.589 778.422C952.006 778.188 940.84 772.464 940.84 772.464C940.84 772.464 946.845 766.248 947.267 765.919C952.264 761.932 964.227 757.193 970.185 761.228C971.152 761.915 971.964 762.797 972.569 763.818C973.174 764.838 973.558 765.974 973.697 767.152C973.837 768.329 973.728 769.523 973.377 770.657C973.027 771.79 972.443 772.837 971.663 773.731C968.45 777.531 962.351 778.61 957.589 778.422Z" fill="white"/>
</g>
<path d="M892.33 918.113C892.33 918.113 858.457 836.48 839.503 840.022C820.549 843.565 872.015 970.166 872.015 970.166C872.015 970.166 812.573 857.827 771.898 857.827C731.222 857.827 786.793 982.153 838.236 1023.46C838.236 1023.46 756.979 935.918 709.594 954.848C662.209 973.778 804.387 1062.5 804.387 1062.5C804.387 1062.5 721.769 1036.48 731.269 1056.58C740.769 1076.69 766.456 1080.25 766.456 1080.25L673 1084.94H998.054L924.912 1077.91C924.912 1077.91 1000.75 1040.05 980.437 1024.66C960.122 1009.27 915.435 1042.44 915.435 1042.44C915.435 1042.44 992.635 957.241 977.739 925.315C962.843 893.389 896.482 983.279 896.482 983.279C896.482 983.279 950.645 868.524 939.808 848.397C928.971 828.27 892.33 918.113 892.33 918.113Z" fill="#5C5C5C"/>
<path opacity="0.4" d="M892.33 918.113C892.33 918.113 858.457 836.48 839.503 840.022C820.549 843.565 872.015 970.166 872.015 970.166C872.015 970.166 812.573 857.827 771.898 857.827C731.222 857.827 786.793 982.153 838.236 1023.46C838.236 1023.46 756.979 935.918 709.594 954.848C662.209 973.778 804.387 1062.5 804.387 1062.5C804.387 1062.5 721.769 1036.48 731.269 1056.58C740.769 1076.69 766.456 1080.25 766.456 1080.25L673 1084.94H998.054L924.912 1077.91C924.912 1077.91 1000.75 1040.05 980.437 1024.66C960.122 1009.27 915.435 1042.44 915.435 1042.44C915.435 1042.44 992.635 957.241 977.739 925.315C962.843 893.389 896.482 983.279 896.482 983.279C896.482 983.279 950.645 868.524 939.808 848.397C928.971 828.27 892.33 918.113 892.33 918.113Z" fill="white"/>
<path d="M903.261 922.476C873.563 1010.49 873.563 1072.79 873.563 1072.79C873.563 1072.79 908.75 1074.15 945.321 1046.99" stroke="#263238" stroke-linecap="round" stroke-linejoin="round"/>
<path d="M888.366 969.861C882.22 943.542 874.064 917.733 863.97 892.662" stroke="#263238" stroke-linecap="round" stroke-linejoin="round"/>
<path d="M800.328 918.395L876.167 1030.71C876.167 1030.71 927.633 987.384 945.226 963.011" stroke="#263238" stroke-linecap="round" stroke-linejoin="round"/>
<path d="M874.807 1057.9C874.807 1057.9 794.91 1019.97 762.397 998.315" stroke="#263238" stroke-linecap="round" stroke-linejoin="round"/>
<path d="M49.2425 1066.11C49.2425 1066.11 48.3982 1069.9 38.7528 1074.93C29.1074 1079.95 18.2047 1087.09 23.6471 1090.01C29.0895 1092.94 48.3983 1086.24 53.8586 1081.21C59.3189 1076.18 65.5876 1073.24 65.5876 1069.05C65.5876 1064.87 60.5583 1062.33 56.3732 1062.33C54.9437 1062.18 53.4998 1062.45 52.2285 1063.12C50.9572 1063.8 49.917 1064.84 49.2425 1066.11Z" fill="#263238" stroke="#263238" stroke-linecap="round" stroke-linejoin="round"/>
<path d="M57.6317 1045.99C55.1171 1053.53 48.3994 1057.72 48.3994 1059.82C48.5329 1061.93 48.815 1064.03 49.2436 1066.11C52.2559 1067.83 55.5057 1069.11 58.889 1069.9C63.5052 1070.72 65.5887 1069.05 65.5887 1069.05C65.5887 1069.05 70.6359 1065.28 71.8933 1064.02C73.1506 1062.77 76.5094 1060.66 76.0783 1056.46C75.6472 1052.26 73.9768 1050.59 75.6652 1046.82C77.3536 1043.04 112.99 985.171 112.99 985.171L83.6402 973.837C83.6402 973.837 60.1463 1038.43 57.6317 1045.99Z" fill="#263238" stroke="#263238" stroke-linecap="round" stroke-linejoin="round"/>
<path d="M198.126 1072.82C198.126 1072.82 224.548 1084.98 224.979 1087.93C225.41 1090.88 206.514 1091.27 198.126 1090.44C189.738 1089.62 184.296 1082.47 184.296 1082.47C184.296 1082.47 187.224 1071.57 198.126 1072.82Z" fill="#263238" stroke="#263238" stroke-linecap="round" stroke-linejoin="round"/>
<path d="M159.545 974.681C159.545 974.681 170.448 1042.63 174.651 1055.63C178.854 1068.64 173.375 1067.36 175.477 1071.15C178.138 1075.13 181.086 1078.92 184.296 1082.47C184.296 1082.47 191.84 1075.75 195.199 1075.28C198.558 1074.82 201.072 1074.44 201.072 1074.44C201.072 1074.44 199.384 1066.05 198.127 1064.38C196.869 1062.71 196.025 1056.84 194.768 1052.22C193.51 1047.61 191.427 971.269 191.427 971.269C191.427 971.269 168.346 975.525 159.545 974.681Z" fill="#263238" stroke="#263238" stroke-linecap="round" stroke-linejoin="round"/>
<path d="M115.504 689.899C109.751 693.995 104.284 698.478 99.1406 703.317C89.0821 712.549 72.3059 725.966 71.4617 728.912C70.6175 731.858 82.7955 786.785 87.4117 804.351C92.0278 821.918 93.2851 902.907 87.4117 930.586C83.6143 948.03 78.4247 965.143 71.8928 981.758C84.8139 990.616 100.266 995.03 115.917 994.331C141.925 993.056 153.636 985.943 166.676 987.147C179.717 988.35 194.355 987.973 201.073 979.172C207.791 970.371 214.903 967.012 219.035 961.551C221.573 958.142 223.031 954.051 223.22 949.804C223.22 949.804 219.448 935.543 205.599 890.675C191.751 845.807 191.769 785.815 189.254 773.241C186.74 760.668 180.866 722.5 174.993 712.01C169.119 701.521 145.32 693.671 133.537 691.588C121.754 689.504 119.707 687.798 115.504 689.899Z" fill="#5C5C5C"/>
<mask id="mask0_141_1336" style="mask-type:luminance" maskUnits="userSpaceOnUse" x="71" y="688" width="153" height="307">
<path d="M115.505 689.899C109.752 693.995 104.285 698.478 99.1416 703.316C89.0831 712.549 72.3069 725.966 71.4627 728.912C70.6185 731.858 82.7965 786.784 87.4126 804.351C92.0288 821.917 93.2861 902.906 87.4126 930.585C83.6153 948.03 78.4257 965.142 71.8938 981.758C84.8149 990.616 100.267 995.029 115.918 994.331C141.926 993.056 153.637 985.943 166.677 987.146C179.718 988.35 194.356 987.973 201.074 979.172C207.792 970.37 214.904 967.011 219.036 961.551C221.574 958.142 223.032 954.05 223.221 949.804C223.221 949.804 219.449 935.543 205.6 890.674C191.752 845.806 191.77 785.814 189.255 773.241C186.741 760.668 180.867 722.5 174.994 712.01C169.12 701.52 145.321 693.671 133.538 691.588C121.755 689.504 119.708 687.798 115.505 689.899Z" fill="white"/>
</mask>
<g mask="url(#mask0_141_1336)">
<path opacity="0.15" d="M82.3467 687.385H75.9883V1003.62H82.3467V687.385Z" fill="black"/>
<path opacity="0.15" d="M104.224 687.385H97.8652V1003.62H104.224V687.385Z" fill="black"/>
<path opacity="0.15" d="M126.118 687.385H119.76V1003.62H126.118V687.385Z" fill="black"/>
<path opacity="0.15" d="M148.014 687.385H141.655V1003.62H148.014V687.385Z" fill="black"/>
<path opacity="0.15" d="M169.891 687.385H163.532V1003.62H169.891V687.385Z" fill="black"/>
<path opacity="0.15" d="M191.786 687.385H185.428V1003.62H191.786V687.385Z" fill="black"/>
<path opacity="0.15" d="M213.681 687.385H207.322V1003.62H213.681V687.385Z" fill="black"/>
<path d="M63.1094 694.533C118.018 694.929 171.706 694.929 226.686 694.749" stroke="white" stroke-miterlimit="10"/>
<path d="M63.1094 698.054C118.018 698.287 171.706 698.287 226.686 698.18" stroke="white" stroke-miterlimit="10"/>
<path d="M63.1094 712.837C118.018 713.34 171.706 713.34 226.686 713.106" stroke="white" stroke-miterlimit="10"/>
<path d="M63.1094 716.429C118.018 716.77 171.706 716.77 226.686 716.627" stroke="white" stroke-miterlimit="10"/>
<path d="M63.1094 731.247C118.018 731.84 171.706 731.84 226.686 731.589" stroke="white" stroke-miterlimit="10"/>
<path d="M63.1094 734.768C118.018 735.199 171.706 735.199 226.686 735.019" stroke="white" stroke-miterlimit="10"/>
<path d="M63.1094 749.604C118.018 750.305 171.706 750.305 226.686 749.999" stroke="white" stroke-miterlimit="10"/>
<path d="M63.1094 753.142C118.018 753.645 171.706 753.645 226.686 753.43" stroke="white" stroke-miterlimit="10"/>
<path d="M63.1094 767.961C118.018 768.751 171.706 768.751 226.686 768.41" stroke="white" stroke-miterlimit="10"/>
<path d="M63.1094 771.499C118.018 772.11 171.706 772.11 226.686 771.841" stroke="white" stroke-miterlimit="10"/>
<path d="M63.1094 786.317C116.348 785.527 171.706 785.527 225.537 785.868" stroke="white" stroke-miterlimit="10"/>
<path d="M63.1094 789.856C118.018 790.556 171.706 790.556 226.686 790.251" stroke="white" stroke-miterlimit="10"/>
<path d="M63.1094 804.674C118.018 803.974 171.706 803.974 226.686 804.297" stroke="white" stroke-miterlimit="10"/>
<path d="M63.1094 808.213C118.018 809.021 171.706 809.021 226.686 808.662" stroke="white" stroke-miterlimit="10"/>
<path d="M63.1094 823.031C118.018 822.438 171.706 822.438 226.686 822.708" stroke="white" stroke-miterlimit="10"/>
<path d="M63.1094 826.57C118.018 825.797 171.706 825.797 226.686 826.139" stroke="white" stroke-miterlimit="10"/>
<path d="M63.1094 841.406C118.018 840.885 171.706 840.885 226.686 841.119" stroke="white" stroke-miterlimit="10"/>
<path d="M63.1094 844.926C118.018 844.244 171.706 844.244 226.686 844.549" stroke="white" stroke-miterlimit="10"/>
<path d="M63.1094 859.763C118.018 859.35 171.706 859.35 226.686 859.529" stroke="white" stroke-miterlimit="10"/>
<path d="M63.1094 863.283C118.018 862.708 171.706 862.708 226.686 862.96" stroke="white" stroke-miterlimit="10"/>
<path d="M63.1094 878.084C118.018 877.76 171.706 877.76 226.686 877.904" stroke="white" stroke-miterlimit="10"/>
<path d="M63.1094 881.676C118.018 881.191 171.706 881.191 226.686 881.407" stroke="white" stroke-miterlimit="10"/>
<path d="M63.1094 896.476C118.018 896.261 171.706 896.261 226.686 896.35" stroke="white" stroke-miterlimit="10"/>
<path d="M63.1094 899.997C118.018 899.602 171.706 899.602 226.686 899.781" stroke="white" stroke-miterlimit="10"/>
<path d="M63.1094 914.833C118.018 914.708 171.706 914.708 226.686 914.833" stroke="white" stroke-miterlimit="10"/>
<path d="M63.1094 918.371C118.018 918.066 171.706 918.066 226.686 918.192" stroke="white" stroke-miterlimit="10"/>
<path d="M63.1094 933.19C118.018 933.19 171.706 933.19 226.686 933.19" stroke="white" stroke-miterlimit="10"/>
<path d="M63.1094 936.729C118.018 936.513 171.706 936.513 226.686 936.603" stroke="white" stroke-miterlimit="10"/>
<path d="M63.1094 951.547C118.018 951.547 171.706 951.547 226.686 951.547" stroke="white" stroke-miterlimit="10"/>
<path d="M63.1094 955.085C118.018 954.977 171.706 954.977 226.686 955.085" stroke="white" stroke-miterlimit="10"/>
<path d="M63.1094 969.903C118.018 970.065 171.706 970.065 226.686 969.993" stroke="white" stroke-miterlimit="10"/>
<path d="M63.1094 973.442H226.686" stroke="white" stroke-miterlimit="10"/>
<path d="M63.1094 988.26C118.018 988.53 171.706 988.53 226.686 988.404" stroke="white" stroke-miterlimit="10"/>
<path d="M63.1094 991.799C118.018 991.799 171.706 991.799 226.686 991.799" stroke="white" stroke-miterlimit="10"/>
<path opacity="0.3" d="M126.962 797.256L128.093 803.956C128.093 803.956 105.156 804.531 100.127 804.531H92.2955L94.5407 838.083C94.5407 838.083 97.3248 862.116 100.127 895.111C102.929 928.107 92.9421 975.077 92.9421 980.681C92.9421 986.285 87.3561 992.428 100.773 995.212C114.191 997.996 132.099 997.457 134.901 990.183C137.703 982.908 148.893 923.635 146.647 936.495C144.402 949.356 133.23 994.098 141.061 996.325C148.893 998.553 169.585 990.183 183.002 990.739C196.419 991.296 208.148 986.824 209.28 981.238C210.411 975.652 202.562 924.191 202.562 924.191L219.338 970.604C219.338 970.604 221.584 973.406 210.357 986.77C199.131 1000.13 148.857 1004.73 122.004 1004.73C95.1514 1004.73 62.1738 985.171 62.1738 985.171C62.1738 985.171 91.2537 937.07 85.6497 896.818C80.0457 856.566 80.6205 785.456 80.6205 785.456C80.6205 785.456 95.7262 789.928 106.342 789.928C116.957 789.928 126.962 797.256 126.962 797.256Z" fill="black"/>
<path opacity="0.3" d="M151.336 731.05L163.909 807.638C163.909 807.638 176.949 806.237 181.871 801.998C186.792 797.759 188.912 785.078 188.912 785.078L174.057 725.517L151.336 731.05Z" fill="black"/>
</g>
<path d="M115.504 689.899C109.751 693.995 104.284 698.478 99.1406 703.317C89.0821 712.549 72.3059 725.966 71.4617 728.912C70.6175 731.858 82.7955 786.785 87.4117 804.351C92.0278 821.918 93.2851 902.907 87.4117 930.586C83.6143 948.03 78.4247 965.143 71.8928 981.758C84.8139 990.616 100.266 995.03 115.917 994.331C141.925 993.056 153.636 985.943 166.676 987.147C179.717 988.35 194.355 987.973 201.073 979.172C207.791 970.371 214.903 967.012 219.035 961.551C221.573 958.142 223.031 954.051 223.22 949.804C223.22 949.804 219.448 935.543 205.599 890.675C191.751 845.807 191.769 785.815 189.254 773.241C186.74 760.668 180.866 722.5 174.993 712.01C169.119 701.521 145.32 693.671 133.537 691.588C121.754 689.504 119.707 687.798 115.504 689.899Z" stroke="#263238" stroke-linecap="round" stroke-linejoin="round"/>
<path d="M117.569 736.725L141.332 770.188L155.27 727.852C155.27 727.852 154.3 709.603 147.223 703.209C140.146 696.814 132.243 687.367 120.425 695.701C108.606 704.035 110.779 714.992 111.318 720.847C111.857 726.703 117.569 736.725 117.569 736.725Z" fill="white" stroke="#263238" stroke-miterlimit="10"/>
<path d="M126.316 723.559L133.286 731.606L131.687 756.267L141.332 770.188L147.763 752.513L139.177 731.606L140.255 718.746L131.687 711.238L126.316 723.559Z" fill="#263238" stroke="#263238" stroke-miterlimit="10"/>
<path d="M132.621 720.524L117.569 736.689C117.569 736.689 109.756 712.387 108.589 703.999C107.421 695.611 110.026 693.869 114.372 691.264C118.719 688.66 125.544 689.773 130.861 690.977C136.178 692.18 138.98 694.443 140.129 696.76C141.279 699.078 153.726 729.469 153.726 729.469L132.621 720.524Z" fill="white" stroke="#263238" stroke-miterlimit="10"/>
<path d="M141.439 764.925C151.336 815.523 163.335 902.116 152.127 987.398" stroke="#263238" stroke-miterlimit="10"/>
<path d="M150.098 786.389C151.477 786.389 152.595 785.271 152.595 783.892C152.595 782.514 151.477 781.396 150.098 781.396C148.719 781.396 147.602 782.514 147.602 783.892C147.602 785.271 148.719 786.389 150.098 786.389Z" fill="#263238"/>
<path d="M157.264 842.95C158.643 842.95 159.761 841.833 159.761 840.454C159.761 839.075 158.643 837.957 157.264 837.957C155.885 837.957 154.768 839.075 154.768 840.454C154.768 841.833 155.885 842.95 157.264 842.95Z" fill="#263238"/>
<path d="M106.899 678.44C106.899 678.44 111.371 687.834 111.803 693.599C112.234 699.365 126.333 720.29 131.237 720.29C136.141 720.29 135.943 704.484 135.296 697.443C134.65 690.402 136.572 686.54 137.218 685.696C137.865 684.852 128.237 682.283 122.274 677.793C116.311 673.303 111.371 672.656 109.018 673.518C106.665 674.38 106.899 678.44 106.899 678.44Z" fill="white"/>
<mask id="mask1_141_1336" style="mask-type:luminance" maskUnits="userSpaceOnUse" x="106" y="673" width="32" height="48">
<path d="M106.9 678.44C106.9 678.44 111.372 687.834 111.803 693.6C112.235 699.365 126.334 720.291 131.238 720.291C136.142 720.291 135.944 704.484 135.297 697.443C134.651 690.402 136.573 686.541 137.219 685.696C137.866 684.852 128.238 682.284 122.275 677.793C116.312 673.303 111.372 672.656 109.019 673.518C106.666 674.381 106.9 678.44 106.9 678.44Z" fill="white"/>
</mask>
<g mask="url(#mask1_141_1336)">
<path d="M122.275 677.793C116.294 673.303 111.372 672.656 109.019 673.518C106.666 674.381 106.9 678.44 106.9 678.44C106.9 678.44 111.372 687.834 111.803 693.6C111.796 693.665 111.796 693.731 111.803 693.797C115.819 695.229 120.014 696.094 124.269 696.366C127.923 696.682 131.604 696.409 135.172 695.557C134.992 689.72 136.609 686.469 137.183 685.696C137.758 684.924 128.256 682.302 122.275 677.793Z" fill="#5C5C5C"/>
<path opacity="0.5" d="M122.275 677.793C116.294 673.303 111.372 672.656 109.019 673.518C106.666 674.381 106.9 678.44 106.9 678.44C106.9 678.44 111.372 687.834 111.803 693.6C111.796 693.665 111.796 693.731 111.803 693.797C115.819 695.229 120.014 696.094 124.269 696.366C127.923 696.682 131.604 696.409 135.172 695.557C134.992 689.72 136.609 686.469 137.183 685.696C137.758 684.924 128.256 682.302 122.275 677.793Z" fill="white"/>
</g>
<path d="M106.899 678.44C106.899 678.44 111.371 687.834 111.803 693.599C112.234 699.365 126.333 720.29 131.237 720.29C136.141 720.29 135.943 704.484 135.296 697.443C134.65 690.402 136.572 686.54 137.218 685.696C137.865 684.852 128.237 682.283 122.274 677.793C116.311 673.303 111.371 672.656 109.018 673.518C106.665 674.38 106.899 678.44 106.899 678.44Z" stroke="#263238" stroke-linecap="round" stroke-linejoin="round"/>
<path d="M97.0757 672.656C97.0757 672.656 104.117 679.93 107.96 680.774C111.804 681.618 114.588 678.637 113.08 675.655C111.571 672.674 112.451 668.183 116.923 668.812C121.396 669.44 125.042 665.615 123.551 660.496C122.06 655.377 119.707 650.455 114.157 651.515C108.607 652.574 91.7231 663.046 97.0757 672.656Z" fill="#263238" stroke="#263238" stroke-linecap="round" stroke-linejoin="round"/>
<path d="M143.631 644.259C143.631 644.259 147.044 651.731 150.241 654.73C153.438 657.73 156.222 657.065 155.162 659.418C154.103 661.771 149.397 664.807 149.397 664.807C149.397 664.807 149.828 675.476 149.397 680.595C148.966 685.714 149.397 687.223 144.691 688.085C138.231 688.906 131.668 688.155 125.562 685.894C121.424 684.562 117.925 681.747 115.736 677.991C113.722 678.06 111.708 677.843 109.755 677.344C105.696 676.5 102.283 667.95 104.636 664.771C105.656 663.472 107.149 662.63 108.788 662.428C110.427 662.226 112.079 662.681 113.384 663.693C114.892 665.489 116.599 667.106 117.874 667.106C119.149 667.106 121.718 666.046 120.227 663.262C118.736 660.478 117.012 658.143 119.365 656.221C121.718 654.299 139.787 644.043 143.631 644.259Z" fill="white"/>
<mask id="mask2_141_1336" style="mask-type:luminance" maskUnits="userSpaceOnUse" x="103" y="644" width="53" height="45">
<path d="M143.632 644.259C143.632 644.259 147.045 651.731 150.242 654.731C153.439 657.73 156.223 657.066 155.163 659.419C154.104 661.772 149.398 664.807 149.398 664.807C149.398 664.807 149.829 675.476 149.398 680.595C148.967 685.714 149.398 687.223 144.692 688.085C138.232 688.907 131.669 688.155 125.562 685.894C121.425 684.562 117.926 681.747 115.737 677.991C113.723 678.061 111.709 677.843 109.756 677.344C105.697 676.5 102.284 667.95 104.637 664.771C105.657 663.472 107.15 662.63 108.789 662.428C110.428 662.226 112.08 662.681 113.384 663.693C114.893 665.49 116.6 667.106 117.875 667.106C119.15 667.106 121.719 666.046 120.228 663.262C118.737 660.478 117.013 658.143 119.366 656.221C121.719 654.3 139.788 644.043 143.632 644.259Z" fill="white"/>
</mask>
<g mask="url(#mask2_141_1336)">
<path d="M143.63 644.259C139.786 644.043 121.627 654.3 119.274 656.221C116.921 658.143 118.645 660.496 120.136 663.262C121.627 666.028 119.058 667.106 117.783 667.106C116.508 667.106 114.801 665.4 113.293 663.693C111.988 662.681 110.336 662.226 108.697 662.428C107.058 662.63 105.565 663.472 104.545 664.771C102.192 667.968 105.605 676.518 109.664 677.344C110.131 677.452 110.58 677.524 110.994 677.596C122.23 667.571 134.715 659.04 148.138 652.216C146.43 649.685 144.923 647.025 143.63 644.259Z" fill="#5C5C5C"/>
<path opacity="0.5" d="M143.63 644.259C139.786 644.043 121.627 654.3 119.274 656.221C116.921 658.143 118.645 660.496 120.136 663.262C121.627 666.028 119.058 667.106 117.783 667.106C116.508 667.106 114.801 665.4 113.293 663.693C111.988 662.681 110.336 662.226 108.697 662.428C107.058 662.63 105.565 663.472 104.545 664.771C102.192 667.968 105.605 676.518 109.664 677.344C110.131 677.452 110.58 677.524 110.994 677.596C122.23 667.571 134.715 659.04 148.138 652.216C146.43 649.685 144.923 647.025 143.63 644.259Z" fill="white"/>
</g>
<path d="M143.631 644.259C143.631 644.259 147.044 651.731 150.241 654.73C153.438 657.73 156.222 657.065 155.162 659.418C154.103 661.771 149.397 664.807 149.397 664.807C149.397 664.807 149.828 675.476 149.397 680.595C148.966 685.714 149.397 687.223 144.691 688.085C138.231 688.906 131.668 688.155 125.562 685.894C121.424 684.562 117.925 681.747 115.736 677.991C113.722 678.06 111.708 677.843 109.755 677.344C105.696 676.5 102.283 667.95 104.636 664.771C105.656 663.472 107.149 662.63 108.788 662.428C110.427 662.226 112.079 662.681 113.384 663.693C114.892 665.489 116.599 667.106 117.874 667.106C119.149 667.106 121.718 666.046 120.227 663.262C118.736 660.478 117.012 658.143 119.365 656.221C121.718 654.299 139.787 644.043 143.631 644.259Z" stroke="#263238" stroke-linecap="round" stroke-linejoin="round"/>
<path d="M149.398 664.771C147.474 665.155 145.647 665.918 144.021 667.016C142.396 668.113 141.006 669.524 139.932 671.165C136.555 676.554 139.932 677.47 142.033 676.194C144.135 674.919 147.907 672.009 150.008 670.806C152.11 669.603 152.631 664.34 149.398 664.771Z" fill="#263238" stroke="#263238" stroke-linecap="round" stroke-linejoin="round"/>
<path d="M140.492 658.55C141.15 658.3 141.211 656.856 140.629 655.327C140.046 653.797 139.04 652.761 138.382 653.011C137.724 653.262 137.663 654.705 138.245 656.235C138.828 657.764 139.834 658.801 140.492 658.55Z" fill="#263238"/>
<path d="M133.088 651.497C134.225 650.719 135.536 650.234 136.906 650.087C138.276 649.94 139.661 650.134 140.937 650.653" stroke="#263238" stroke-linecap="round" stroke-linejoin="round"/>
<path d="M89.6389 688.678C94.0148 679.84 99.7889 671.767 106.738 664.771C118.485 652.808 162.42 640.415 164.826 637.002C167.233 633.589 144.53 639.14 144.53 639.14C144.53 639.14 131.292 623.118 112.073 622.04C92.8541 620.962 87.3039 641.906 87.0884 652.377C86.8729 662.849 92.2075 675.009 92.2075 675.009C92.2075 675.009 86.1723 690.384 89.6389 688.678Z" fill="#5C5C5C"/>
<mask id="mask3_141_1336" style="mask-type:luminance" maskUnits="userSpaceOnUse" x="87" y="622" width="79" height="67">
<path d="M89.6399 688.678C94.0158 679.84 99.7899 671.767 106.739 664.771C118.486 652.808 162.421 640.415 164.827 637.002C167.234 633.589 144.531 639.14 144.531 639.14C144.531 639.14 131.293 623.118 112.074 622.04C92.8551 620.962 87.3049 641.906 87.0894 652.377C86.8738 662.849 92.2084 675.009 92.2084 675.009C92.2084 675.009 86.1733 690.384 89.6399 688.678Z" fill="white"/>
</mask>
<g mask="url(#mask3_141_1336)">
<path opacity="0.15" d="M104.224 614.406H97.8652V703.316H104.224V614.406Z" fill="black"/>
<path opacity="0.15" d="M126.119 614.406H119.761V703.316H126.119V614.406Z" fill="black"/>
<path opacity="0.15" d="M148.015 614.406H141.656V703.316H148.015V614.406Z" fill="black"/>
<path opacity="0.15" d="M169.892 614.406H163.533V703.316H169.892V614.406Z" fill="black"/>
<path d="M77.4424 627.715C110.276 627.715 143.11 627.62 175.944 627.428" stroke="white" stroke-miterlimit="10"/>
<path d="M77.4424 631.128C110.276 631.128 143.11 631.068 175.944 630.948" stroke="white" stroke-miterlimit="10"/>
<path d="M77.4424 646.144C110.276 646.144 143.11 646.024 175.944 645.785" stroke="white" stroke-miterlimit="10"/>
<path d="M77.4424 649.557C110.276 649.557 143.11 649.473 175.944 649.305" stroke="white" stroke-miterlimit="10"/>
<path d="M77.4424 664.573C110.276 664.573 143.11 664.429 175.944 664.142" stroke="white" stroke-miterlimit="10"/>
<path d="M77.4424 667.932C110.276 667.932 143.11 667.83 175.944 667.626" stroke="white" stroke-miterlimit="10"/>
<path d="M77.4424 683.002C110.276 683.002 143.11 682.834 175.944 682.499" stroke="white" stroke-miterlimit="10"/>
<path d="M77.4424 686.396C110.276 686.396 143.11 686.271 175.944 686.019" stroke="white" stroke-miterlimit="10"/>
</g>
<path d="M89.6389 688.678C94.0148 679.84 99.7889 671.767 106.738 664.771C118.485 652.808 162.42 640.415 164.826 637.002C167.233 633.589 144.53 639.14 144.53 639.14C144.53 639.14 131.292 623.118 112.073 622.04C92.8541 620.962 87.3039 641.906 87.0884 652.377C86.8729 662.849 92.2075 675.009 92.2075 675.009C92.2075 675.009 86.1723 690.384 89.6389 688.678Z" stroke="#263238" stroke-linecap="round" stroke-linejoin="round"/>
<path d="M92.1539 675.009C92.1539 675.009 86.1727 690.384 89.5854 688.678C93.9612 679.84 99.7354 671.767 106.685 664.771C118.432 652.808 162.366 640.415 164.773 637.002C167.18 633.589 144.476 639.139 144.476 639.139C144.476 639.139 129.317 647.043 116.725 655.305C108.055 661.251 99.8415 667.837 92.1539 675.009Z" fill="#5C5C5C" stroke="#263238" stroke-linecap="round" stroke-linejoin="round"/>
<path d="M97.7031 626.746C97.7031 626.746 97.9187 647.456 113.294 657.927" stroke="#263238" stroke-linecap="round" stroke-linejoin="round"/>
<path d="M92.6565 825.994L99.1945 827.79C99.1945 827.79 110.492 819.905 111.768 819.672C113.043 819.438 123.73 825.545 127.125 828.257C130.52 830.97 134.794 833.897 133.663 834.795C132.531 835.694 130.071 834.562 128.472 833.664C126.873 832.766 117.192 828.024 117.192 828.024C117.192 828.024 124.377 832.766 126.891 834.795C129.406 836.825 132.98 837.957 132.082 839.088C131.869 839.44 131.586 839.744 131.25 839.982C130.915 840.22 130.534 840.386 130.131 840.47C129.728 840.554 129.313 840.555 128.91 840.472C128.507 840.388 128.126 840.223 127.789 839.986C125.544 838.855 114.031 832.317 114.031 832.317C114.031 832.317 123.73 838.855 125.544 840.435C127.358 842.016 127.34 844.279 125.311 844.279C123.281 844.279 117.641 841.334 115.611 840.22C113.582 839.106 107.708 836.143 107.708 836.143C110.232 838.917 112.566 841.857 114.695 844.944C116.06 847.44 118.09 850.602 115.827 850.602C113.564 850.602 110.438 845.411 108.84 843.597C107.241 841.783 101.386 839.753 101.386 839.753C98.6465 841.046 95.7734 842.034 92.8181 842.699C88.9743 843.363 81.3047 835.245 81.3047 835.245L92.6565 825.994Z" fill="white" stroke="#263238" stroke-linecap="round" stroke-linejoin="round"/>
<path d="M99.1935 827.863L93.6074 834.58" stroke="#263238" stroke-linecap="round" stroke-linejoin="round"/>
<path d="M114.102 832.389L110.492 830.234" stroke="#263238" stroke-linecap="round" stroke-linejoin="round"/>
<path d="M117.263 828.096L113.204 825.869" stroke="#263238" stroke-linecap="round" stroke-linejoin="round"/>
<path d="M41.2678 751.13C41.2678 751.13 14.4331 773.367 14.002 775.037C13.571 776.708 81.951 840.058 81.951 840.058L94.5241 826.21L57.1998 776.295L85.7229 758.333C85.7229 758.333 88.2375 744.502 84.0525 736.527C82.7574 734.164 80.9607 732.113 78.7887 730.518C76.6166 728.923 74.1218 727.823 71.4793 727.295L41.2678 751.13Z" fill="#5C5C5C"/>
<mask id="mask4_141_1336" style="mask-type:luminance" maskUnits="userSpaceOnUse" x="14" y="727" width="81" height="114">
<path d="M41.2678 751.13C41.2678 751.13 14.4331 773.367 14.002 775.037C13.571 776.708 81.951 840.058 81.951 840.058L94.5241 826.21L57.1998 776.295L85.7229 758.333C85.7229 758.333 88.2375 744.502 84.0525 736.527C82.7574 734.164 80.9607 732.113 78.7887 730.518C76.6166 728.923 74.1218 727.823 71.4793 727.295L41.2678 751.13Z" fill="white"/>
</mask>
<g mask="url(#mask4_141_1336)">
<path opacity="0.15" d="M16.6778 718.422H10.3193V853.476H16.6778V718.422Z" fill="black"/>
<path opacity="0.15" d="M38.5547 718.422H32.1963V853.476H38.5547V718.422Z" fill="black"/>
<path opacity="0.15" d="M60.4502 718.422H54.0918V853.476H60.4502V718.422Z" fill="black"/>
<path opacity="0.15" d="M82.3448 718.422H75.9863V853.476H82.3448V718.422Z" fill="black"/>
<path d="M-3.63672 731.624C45.8836 731.84 96.2121 731.84 145.714 731.247" stroke="white" stroke-miterlimit="10"/>
<path d="M-3.63672 735.037C45.8836 735.198 96.2121 735.198 145.714 734.767" stroke="white" stroke-miterlimit="10"/>
<path d="M-3.63672 750.035C45.8836 750.304 96.2121 750.304 145.714 749.604" stroke="white" stroke-miterlimit="10"/>
<path d="M-3.63672 753.465C45.8836 753.645 96.2121 753.645 145.714 753.142" stroke="white" stroke-miterlimit="10"/>
<path d="M-3.63672 768.518C45.8836 768.805 96.2121 768.805 145.714 768.015" stroke="white" stroke-miterlimit="10"/>
<path d="M-3.63672 771.876C45.8836 772.11 96.2121 772.11 145.714 771.499" stroke="white" stroke-miterlimit="10"/>
<path opacity="0.3" d="M27.4365 757.004C27.4365 757.004 40.8539 765.392 46.4399 767.637C52.026 769.883 63.2161 774.912 63.2161 774.912L76.0767 768.194L45.8831 743.587L27.4365 757.004Z" fill="black"/>
<path d="M-3.63672 785.833C45.8836 785.527 96.2121 785.527 145.714 786.317" stroke="white" stroke-miterlimit="10"/>
<path d="M-3.63672 790.305C45.8836 790.556 96.2121 790.556 145.714 789.856" stroke="white" stroke-miterlimit="10"/>
<path d="M-3.63672 804.243C45.8836 803.974 96.2121 803.974 145.714 804.674" stroke="white" stroke-miterlimit="10"/>
<path d="M-3.63672 808.716C45.8836 809.021 96.2121 809.021 145.714 808.213" stroke="white" stroke-miterlimit="10"/>
<path d="M-3.63672 822.654C45.8836 822.438 96.2121 822.438 145.714 823.031" stroke="white" stroke-miterlimit="10"/>
<path d="M-3.63672 826.084C45.8836 825.797 96.2121 825.797 145.714 826.569" stroke="white" stroke-miterlimit="10"/>
</g>
<path d="M41.2678 751.13C41.2678 751.13 14.4331 773.367 14.002 775.037C13.571 776.708 81.951 840.058 81.951 840.058L94.5241 826.21L57.1998 776.295L85.7229 758.333C85.7229 758.333 88.2375 744.502 84.0525 736.527C82.7574 734.164 80.9607 732.113 78.7887 730.518C76.6166 728.923 74.1218 727.823 71.4793 727.295L41.2678 751.13Z" stroke="#263238" stroke-linecap="round" stroke-linejoin="round"/>
<path d="M228.752 750.232C228.752 750.232 202.582 735.324 191.733 724.727C180.884 714.13 176.393 709.154 175.262 713.213C174.13 717.273 184.746 770.691 186.775 771.661C188.805 772.631 231.679 787.916 240.265 788.365C248.851 788.814 254.634 789.497 255.622 785.671C256.61 781.845 250.234 770.098 242.295 760.83C234.356 751.562 228.752 750.232 228.752 750.232Z" fill="#5C5C5C"/>
<mask id="mask5_141_1336" style="mask-type:luminance" maskUnits="userSpaceOnUse" x="175" y="711" width="81" height="78">
<path d="M228.751 750.232C228.751 750.232 202.581 735.324 191.732 724.727C180.883 714.13 176.393 709.154 175.261 713.213C174.129 717.273 184.745 770.691 186.774 771.661C188.804 772.631 231.678 787.916 240.264 788.365C248.85 788.814 254.633 789.497 255.621 785.671C256.609 781.845 250.233 770.098 242.294 760.83C234.355 751.562 228.751 750.232 228.751 750.232Z" fill="white"/>
</mask>
<g mask="url(#mask5_141_1336)">
<path opacity="0.15" d="M191.787 729.325H185.429V800.633H191.787V729.325Z" fill="black"/>
<path opacity="0.15" d="M213.684 729.325H207.325V800.633H213.684V729.325Z" fill="black"/>
<path opacity="0.15" d="M235.561 729.325H229.202V800.633H235.561V729.325Z" fill="black"/>
<path opacity="0.15" d="M257.455 729.325H251.097V800.633H257.455V729.325Z" fill="black"/>
<path d="M166.605 734.768C197.739 735.103 228.825 735.169 259.862 734.965" stroke="white" stroke-miterlimit="10"/>
<path d="M166.605 749.604C197.739 750.167 228.825 750.269 259.862 749.909" stroke="white" stroke-miterlimit="10"/>
<path d="M166.605 753.142C197.739 753.549 228.825 753.621 259.862 753.358" stroke="white" stroke-miterlimit="10"/>
<path d="M166.605 767.96C197.739 768.595 228.825 768.715 259.862 768.32" stroke="white" stroke-miterlimit="10"/>
<path d="M166.605 771.499C197.739 771.978 228.825 772.068 259.862 771.768" stroke="white" stroke-miterlimit="10"/>
<path opacity="0.3" d="M201.901 782.168C201.901 782.168 219.234 776.582 224.838 767.637C230.442 758.692 228.197 753.088 223.149 746.945C220.227 743.307 216.037 740.908 211.42 740.228C211.42 740.228 208.618 760.92 201.901 764.835C197.059 767.887 192.56 771.452 188.483 775.469L201.901 782.168Z" fill="black"/>
<path d="M166.605 786.317C197.739 785.683 228.825 785.569 259.862 785.976" stroke="white" stroke-miterlimit="10"/>
</g>
<path d="M228.752 750.232C228.752 750.232 202.582 735.324 191.733 724.727C180.884 714.13 176.393 709.154 175.262 713.213C174.13 717.273 184.746 770.691 186.775 771.661C188.805 772.631 231.679 787.916 240.265 788.365C248.851 788.814 254.634 789.497 255.622 785.671C256.61 781.845 250.234 770.098 242.295 760.83C234.356 751.562 228.752 750.232 228.752 750.232Z" stroke="#263238" stroke-linecap="round" stroke-linejoin="round"/>
<path d="M109.63 695.359C109.63 695.359 121.377 731.426 126.406 756.178C131.435 780.929 133.591 803.974 133.591 803.974C133.591 803.974 126.406 799.375 107.169 797.687C87.9322 795.999 79.0771 793.071 70.689 777.139C62.301 761.207 56.8406 762.464 48.4525 759.95C40.0644 757.435 37.5498 752.765 37.5498 752.765C37.5498 752.765 106.702 694.874 109.63 695.359ZM136.213 692.216C142.434 704.67 147.496 717.669 151.337 731.049C157.875 753.609 167.143 802.896 167.143 802.896C167.143 802.896 183.165 801.1 187.907 790.933C192.649 780.767 192.864 776.923 200.48 774.229C208.096 771.535 218.549 765.877 219.447 758.656C220.109 753.778 221.087 748.948 222.375 744.197C222.375 744.197 180.183 709.226 173.627 704.682C167.071 700.137 138.027 690.42 136.213 692.216Z" fill="#5C5C5C"/>
<mask id="mask6_141_1336" style="mask-type:luminance" maskUnits="userSpaceOnUse" x="37" y="691" width="186" height="113">
<path d="M109.63 695.359C109.63 695.359 121.377 731.426 126.406 756.178C131.435 780.929 133.591 803.974 133.591 803.974C133.591 803.974 126.406 799.375 107.169 797.687C87.9322 795.999 79.0771 793.071 70.689 777.139C62.301 761.207 56.8406 762.464 48.4525 759.95C40.0644 757.435 37.5498 752.765 37.5498 752.765C37.5498 752.765 106.702 694.874 109.63 695.359ZM136.213 692.216C142.434 704.67 147.496 717.669 151.337 731.049C157.875 753.609 167.143 802.896 167.143 802.896C167.143 802.896 183.165 801.1 187.907 790.933C192.649 780.767 192.864 776.923 200.48 774.229C208.096 771.535 218.549 765.877 219.447 758.656C220.109 753.778 221.087 748.948 222.375 744.197C222.375 744.197 180.183 709.226 173.627 704.682C167.071 700.137 138.027 690.42 136.213 692.216Z" fill="white"/>
</mask>
<g mask="url(#mask6_141_1336)">
<path opacity="0.15" d="M38.5557 717.434H32.1973V838.137H38.5557V717.434Z" fill="black"/>
<path opacity="0.15" d="M60.4512 717.434H54.0928V838.137H60.4512V717.434Z" fill="black"/>
<path opacity="0.15" d="M82.3457 678.906H75.9873V838.154H82.3457V678.906Z" fill="black"/>
<path opacity="0.15" d="M104.223 678.906H97.8643V838.154H104.223V678.906Z" fill="black"/>
<path opacity="0.15" d="M126.118 678.906H119.76V838.154H126.118V678.906Z" fill="black"/>
<path opacity="0.15" d="M148.014 678.906H141.655V838.154H148.014V678.906Z" fill="black"/>
<path opacity="0.15" d="M169.891 678.906H163.532V838.154H169.891V678.906Z" fill="black"/>
<path opacity="0.15" d="M191.786 678.906H185.428V838.154H191.786V678.906Z" fill="black"/>
<path opacity="0.15" d="M213.683 678.906H207.324V838.154H213.683V678.906Z" fill="black"/>
<path d="M65.9658 694.533C118.055 694.928 170.036 694.928 221.406 694.767" stroke="white" stroke-miterlimit="10"/>
<path d="M65.9658 698.053C118.055 698.287 170.036 698.287 221.406 698.197" stroke="white" stroke-miterlimit="10"/>
<path d="M65.9658 712.836C118.055 713.339 170.036 713.339 221.406 713.142" stroke="white" stroke-miterlimit="10"/>
<path d="M65.9658 716.428C118.055 716.769 170.036 716.769 221.406 716.626" stroke="white" stroke-miterlimit="10"/>
<path d="M3.92578 731.247C76.0777 731.84 148.212 731.84 220.938 731.552" stroke="white" stroke-miterlimit="10"/>
<path d="M3.92578 734.767C76.0777 735.198 148.212 735.198 220.938 734.983" stroke="white" stroke-miterlimit="10"/>
<path d="M3.92578 749.604C76.0777 750.304 148.212 750.304 220.938 749.963" stroke="white" stroke-miterlimit="10"/>
<path d="M3.92578 753.142C76.0777 753.645 148.212 753.645 220.938 753.394" stroke="white" stroke-miterlimit="10"/>
<path d="M3.92578 767.96C76.0777 768.751 148.212 768.751 220.938 768.356" stroke="white" stroke-miterlimit="10"/>
<path d="M3.92578 771.499C76.0777 772.11 148.212 772.11 220.938 771.804" stroke="white" stroke-miterlimit="10"/>
<path d="M3.92578 786.317C76.0777 785.527 148.212 785.527 220.938 785.922" stroke="white" stroke-miterlimit="10"/>
<path d="M3.92578 789.856C76.0777 790.556 148.212 790.556 220.938 790.215" stroke="white" stroke-miterlimit="10"/>
<path d="M3.92578 804.674C76.0777 803.973 148.212 803.973 220.938 804.333" stroke="white" stroke-miterlimit="10"/>
</g>
<path d="M109.63 695.359C109.63 695.359 121.377 731.426 126.406 756.178C131.435 780.929 133.591 803.974 133.591 803.974C133.591 803.974 126.406 799.375 107.169 797.687C87.9322 795.999 79.0771 793.071 70.689 777.139C62.301 761.207 56.8406 762.464 48.4525 759.95C40.0644 757.435 37.5498 752.765 37.5498 752.765C37.5498 752.765 106.702 694.874 109.63 695.359ZM136.213 692.216C142.434 704.67 147.496 717.669 151.337 731.049C157.875 753.609 167.143 802.896 167.143 802.896C167.143 802.896 183.165 801.1 187.907 790.933C192.649 780.767 192.864 776.923 200.48 774.229C208.096 771.535 218.549 765.877 219.447 758.656C220.109 753.778 221.087 748.948 222.375 744.197C222.375 744.197 180.183 709.226 173.627 704.682C167.071 700.137 138.027 690.42 136.213 692.216Z" stroke="#263238" stroke-linecap="round" stroke-linejoin="round"/>
<path d="M209.478 690.941C209.478 690.941 211.167 700.964 211.741 703.352C212.316 705.741 217.794 712.675 217.794 712.675L208.634 718.458C206.454 714.519 204.056 710.705 201.449 707.035C199.905 705.472 192.145 703.442 189.882 700.389C187.619 697.335 188.194 693.761 187.619 691.498C187.044 689.235 181.835 682.75 183.11 681.763C184.386 680.775 187.062 681.619 188.319 683.182C189.577 684.744 189.595 686.989 190.116 688.121C190.636 689.253 197.588 693.51 197.588 693.51C197.588 693.51 194.48 684.618 193.995 683.361C193.878 683.018 193.838 682.653 193.877 682.292C193.917 681.931 194.035 681.584 194.223 681.274C194.411 680.964 194.666 680.699 194.968 680.498C195.27 680.297 195.612 680.164 195.971 680.11C197.372 680.11 203.73 686.325 203.73 686.325L209.478 690.941Z" stroke="#263238" stroke-linecap="round" stroke-linejoin="round"/>
<path d="M182.771 673.763C188.3 671 188.698 660.589 183.661 650.508C178.624 640.428 170.059 634.495 164.531 637.257C159.002 640.02 158.604 650.431 163.641 660.512C168.678 670.592 177.243 676.525 182.771 673.763Z" fill="white" stroke="#263238" stroke-linecap="round" stroke-linejoin="round"/>
<path d="M180.535 671.372C184.333 669.475 183.958 661.023 179.697 652.495C175.436 643.967 168.902 638.593 165.104 640.491C161.306 642.388 161.682 650.84 165.943 659.368C170.204 667.895 176.737 673.27 180.535 671.372Z" fill="white" stroke="#263238" stroke-linecap="round" stroke-linejoin="round"/>
<path d="M182.23 673.051L198.091 696.761C198.292 697.066 198.553 697.326 198.859 697.526C199.165 697.727 199.509 697.862 199.869 697.924C200.229 697.986 200.598 697.974 200.953 697.888C201.308 697.803 201.642 697.645 201.934 697.425C202.221 697.211 202.462 696.942 202.644 696.634C202.826 696.326 202.945 695.985 202.993 695.63C203.042 695.276 203.019 694.915 202.927 694.57C202.834 694.224 202.674 693.9 202.455 693.617L184.835 671.165C184.737 671.027 184.612 670.909 184.468 670.82C184.323 670.731 184.162 670.672 183.994 670.647C183.826 670.622 183.655 670.631 183.491 670.674C183.327 670.716 183.173 670.792 183.039 670.896L182.446 671.291C182.189 671.499 182.022 671.799 181.982 672.127C181.942 672.456 182.031 672.787 182.23 673.051Z" fill="#263238" stroke="#263238" stroke-linecap="round" stroke-linejoin="round"/>
<path d="M193.816 676.374C193.816 676.374 189.11 679.284 189.326 680.864C189.541 682.445 190.224 683.092 191.571 683.092C192.918 683.092 196.492 681.08 197.839 680.415C199.186 679.751 198.217 674.596 193.816 676.374Z" fill="white" stroke="#263238" stroke-linecap="round" stroke-linejoin="round"/>
<path d="M195.613 681.763C193.932 683.997 192.424 686.357 191.104 688.821C190.961 689.809 199.133 697.802 200.552 697.802C201.971 697.802 209.731 693.007 209.443 691.031C209.156 689.055 201.253 683.128 199.852 681.709C198.451 680.29 197.193 679.787 195.613 681.763Z" fill="white" stroke="#263238" stroke-linecap="round" stroke-linejoin="round"/>
<path d="M193.528 691.641L201.144 682.606" stroke="#263238" stroke-linecap="round" stroke-linejoin="round"/>
<path d="M205.384 686.99L197.769 695.593" stroke="#263238" stroke-linecap="round" stroke-linejoin="round"/>
<path d="M228.069 765.805L204.826 717.057L221.98 708.076C221.98 708.076 240.264 729.289 247.719 744C255.173 758.71 258.496 782.15 255.622 785.761C252.748 789.371 239.582 786.874 233.044 782.815" fill="#5C5C5C"/>
<mask id="mask7_141_1336" style="mask-type:luminance" maskUnits="userSpaceOnUse" x="204" y="708" width="53" height="80">
<path d="M228.07 765.805L204.827 717.057L221.981 708.076C221.981 708.076 240.265 729.289 247.72 744C255.174 758.71 258.497 782.15 255.623 785.761C252.749 789.371 239.583 786.874 233.045 782.815" fill="white"/>
</mask>
<g mask="url(#mask7_141_1336)">
<path opacity="0.15" d="M213.682 699.975H207.323V798.118H213.682V699.975Z" fill="black"/>
<path opacity="0.15" d="M235.56 699.975H229.201V798.118H235.56V699.975Z" fill="black"/>
<path opacity="0.15" d="M257.455 699.975H251.097V798.118H257.455V699.975Z" fill="black"/>
<path d="M188.23 712.836C218.765 713.339 250.557 713.339 280.751 712.836" stroke="white" stroke-miterlimit="10"/>
<path d="M188.23 716.428C218.765 716.769 250.557 716.769 280.751 716.428" stroke="white" stroke-miterlimit="10"/>
<path d="M188.23 731.246C218.765 731.839 250.557 731.839 280.751 731.246" stroke="white" stroke-miterlimit="10"/>
<path d="M188.23 734.767C218.765 735.198 250.557 735.198 280.751 734.767" stroke="white" stroke-miterlimit="10"/>
<path d="M188.23 749.603C218.765 750.304 250.557 750.304 280.751 749.603" stroke="white" stroke-miterlimit="10"/>
<path d="M188.23 753.142C218.765 753.645 250.557 753.645 280.751 753.142" stroke="white" stroke-miterlimit="10"/>
<path d="M188.23 767.96C218.765 768.751 250.557 768.751 280.751 767.96" stroke="white" stroke-miterlimit="10"/>
<path d="M188.23 771.499C218.765 772.109 250.557 772.109 280.751 771.499" stroke="white" stroke-miterlimit="10"/>
<path d="M188.23 786.317C218.765 785.527 250.557 785.527 280.751 786.317" stroke="white" stroke-miterlimit="10"/>
</g>
<path d="M228.069 765.805L204.826 717.057L221.98 708.076C221.98 708.076 240.264 729.289 247.719 744C255.173 758.71 258.496 782.15 255.622 785.761C252.748 789.371 239.582 786.874 233.044 782.815" stroke="#263238" stroke-linecap="round" stroke-linejoin="round"/>
</svg>
